<?xml version="1.0" encoding="utf-8"?>
<!-- Generator: Adobe Illustrator 16.0.0, SVG Export Plug-In . SVG Version: 6.00 Build 0)  -->
<!DOCTYPE svg PUBLIC "-//W3C//DTD SVG 1.1//EN" "http://www.w3.org/Graphics/SVG/1.1/DTD/svg11.dtd">
<svg version="1.1" id="Capa_1" xmlns="http://www.w3.org/2000/svg" xmlns:xlink="http://www.w3.org/1999/xlink" x="0px" y="0px"
	 width="367.018px" height="112.874px" viewBox="0 0 367.018 112.874" enable-background="new 0 0 367.018 112.874"
	 xml:space="preserve">
<g>
	<path d="M149.159,48.6l16.191-35.783h5.329L186.87,48.6h-6.598l-3.553-8.273h-17.46l-3.502,8.273H149.159z M167.939,19.874
		l-6.447,15.276h12.994l-6.446-15.276H167.939z"/>
	<path d="M190.778,48.6V12.817h6.496v30.252h17.155V48.6H190.778z"/>
	<path d="M219.302,48.6V12.817h23.805v5.178h-17.561v9.847h16.445v5.177h-16.445v10.406h17.561V48.6H219.302z"/>
	<path d="M246.201,49.057l-0.457-5.33l3.604-0.203c3.011-0.202,4.518-1.859,4.518-4.974V12.817h6.497V38.5
		c0,6.43-3.335,9.881-10,10.355L246.201,49.057z"/>
	<path d="M284.216,49.107c-3.451,0-6.47-0.761-9.059-2.283s-4.593-3.662-6.015-6.421c-1.421-2.758-2.132-5.997-2.132-9.72
		c0-3.756,0.711-7.004,2.132-9.745c1.422-2.74,3.417-4.863,5.989-6.37c2.57-1.505,5.6-2.258,9.084-2.258
		c3.487,0,6.515,0.753,9.087,2.258c2.57,1.507,4.567,3.63,5.988,6.37c1.422,2.741,2.132,5.973,2.132,9.694
		c0,3.757-0.71,7.013-2.132,9.771c-1.421,2.759-3.418,4.898-5.988,6.421C290.73,48.346,287.703,49.107,284.216,49.107z
		 M284.216,43.524c3.283,0,5.837-1.133,7.666-3.399c1.826-2.267,2.74-5.414,2.74-9.441c0-4.06-0.906-7.207-2.715-9.44
		c-1.812-2.232-4.375-3.349-7.691-3.349c-3.281,0-5.837,1.116-7.663,3.349c-1.826,2.233-2.741,5.381-2.741,9.44
		c0,4.027,0.915,7.175,2.741,9.441S280.935,43.524,284.216,43.524z"/>
	<path d="M149.159,96.409l16.191-35.783h5.329l16.191,35.783h-6.598l-3.553-8.273h-17.46l-3.502,8.273H149.159z M167.939,67.682
		l-6.447,15.276h12.994l-6.446-15.276H167.939z"/>
	<path d="M190.778,96.409V60.626h4.871l19.237,24.971V60.626h6.04v35.783h-4.822l-19.287-25.074v25.074H190.778z"/>
	<path d="M228.742,96.409V60.626h13.299c5.988,0,10.615,1.54,13.881,4.62c3.265,3.078,4.898,7.495,4.898,13.247
		c0,5.717-1.634,10.135-4.898,13.246c-3.266,3.113-7.893,4.67-13.881,4.67H228.742z M235.239,91.028h6.395
		c8.257,0,12.386-4.18,12.386-12.535c0-8.325-4.129-12.487-12.386-12.487h-6.395V91.028z"/>
	<path d="M267.418,96.409V60.626h6.498v35.783H267.418z"/>
	<path d="M281.679,96.409V60.626h4.873l19.237,24.971V60.626h6.038v35.783h-4.82L287.72,71.335v25.074H281.679z"/>
	<path d="M315.786,96.409l16.192-35.783h5.328l16.191,35.783H346.9l-3.554-8.273h-17.46l-3.502,8.273H315.786z M334.565,67.682
		l-6.445,15.276h12.993l-6.445-15.276H334.565z"/>
</g>
<g>
	<polygon fill="#009BDB" points="53.528,13.015 11.175,96.011 42.916,96.011 69.398,44.115 	"/>
	<polygon points="85.269,13.015 69.398,44.115 95.881,96.011 127.622,96.011 	"/>
	<polygon fill="#0F627C" points="42.916,96.011 95.881,96.011 69.398,44.115 	"/>
</g>
</svg>
