<?xml version="1.0" encoding="utf-8"?>
<!-- Generator: Adobe Illustrator 16.0.0, SVG Export Plug-In . SVG Version: 6.00 Build 0)  -->
<!DOCTYPE svg PUBLIC "-//W3C//DTD SVG 1.1//EN" "http://www.w3.org/Graphics/SVG/1.1/DTD/svg11.dtd">
<svg version="1.1" id="Capa_1" xmlns="http://www.w3.org/2000/svg" xmlns:xlink="http://www.w3.org/1999/xlink" x="0px" y="0px"
	 width="809.086px" height="356.267px" viewBox="0 0 809.086 356.267" enable-background="new 0 0 809.086 356.267"
	 xml:space="preserve">
<g>
	<g>
		<path fill="#CB6120" d="M358.261,82.202l-11.608-20.375c1.836-1,3.083-2.943,3.083-5.181c0-3.258-2.641-5.898-5.896-5.898
			c-3.258,0-5.896,2.64-5.896,5.898c0,3.257,2.638,5.897,5.896,5.897c0.113,0,0.224-0.01,0.335-0.018
			c-1.039,6.072-3.281,17.737-6.23,24.618C337.944,87.144,348.927,98.127,358.261,82.202z"/>
		<path fill="#CB6120" d="M419.039,87.144c-2.951-6.883-5.197-18.553-6.232-24.624c3.038-0.237,5.437-2.771,5.437-5.874
			c0-3.258-2.64-5.898-5.896-5.898c-3.258,0-5.897,2.64-5.897,5.898c0,2.482,1.536,4.604,3.712,5.475l-11.445,20.081
			C408.056,98.127,419.039,87.144,419.039,87.144z"/>
		<path fill="#CB6120" d="M452.714,51.723c-4.474,0-8.1,3.626-8.1,8.102c0,2.863,1.487,5.373,3.73,6.813
			c-6.32,5.947-20.818,19.452-25.285,22.43c0,0-11.531,10.16-22.788,1.097c0,0-11.385-7.2-20.763-44.35
			c3.768-0.695,6.622-3.989,6.622-7.958c0-4.473-3.627-8.1-8.101-8.1c-4.476,0-8.102,3.627-8.102,8.1
			c0,3.969,2.856,7.264,6.622,7.958c-9.376,37.15-20.762,44.35-20.762,44.35C344.534,99.229,333,89.069,333,89.069
			c-4.438-2.961-18.802-16.332-25.178-22.329c2.336-1.421,3.897-3.984,3.897-6.915c0-4.476-3.624-8.102-8.1-8.102
			c-4.471,0-8.099,3.626-8.099,8.102c0,4.474,3.628,8.1,8.099,8.1c0.821,0,1.61-0.125,2.354-0.351l23.735,71.191
			c0,0,48.459-15.722,96.647,0l23.757-71.276c0.82,0.277,1.691,0.436,2.602,0.436c4.476,0,8.101-3.626,8.101-8.1
			C460.815,55.349,457.19,51.723,452.714,51.723z"/>
	</g>
	<g>
		<path fill="#CB6120" d="M117.927,289.816c-39.933,0-69.314-31.861-69.314-70.967c0-35.381,22.761-69.934,72.21-69.934
			c26.276,0,47.588,10.139,56.898,28.759l-21.311,10.346c-0.828-14.69-10.759-33.932-35.382-33.932
			c-30.827,0-47.794,24-47.794,63.104c0,35.382,18.415,64.141,44.692,64.141c13.861,0,29.172-7.862,37.861-20.69l16.14,8.275
			C158.893,281.748,137.996,289.816,117.927,289.816z"/>
		<path fill="#CB6120" d="M449.794,254.85c-1.864,4.346-19.656,38.691-77.383,38.691c-47.587,0-102.83-8.275-139.453-54.622
			c-8.482-0.827-12.621-1.035-19.242-2.897v33.932c0,16.346,7.862,17.38,7.862,17.38h-39.726c0,0,7.449-1.034,7.449-17.587v-102.83
			c0-16.346-7.449-17.587-7.449-17.587s43.244,0,45.727,0c39.725,0,72.209,12.621,72.209,43.657
			c0,23.172-15.932,38.691-43.863,43.449c19.034,26.07,76.761,50.692,116.9,51.106C427.241,287.955,447.517,258.782,449.794,254.85z
			 M274.959,194.435c0-26.277-21.311-37.037-47.38-37.037c-4.551,0-9.104,1.036-13.242,2.484c-0.414,2.068-0.621,4.551-0.621,7.448
			v61.036c4.76,1.241,9.932,1.655,13.656,1.655C253.649,230.021,274.959,220.504,274.959,194.435z M307.651,213.676
			c0-39.312,32.483-66.002,72.415-66.002c39.726,0,72.211,26.691,72.211,66.002c0,39.105-32.485,63.312-72.211,63.312
			C340.134,276.988,307.651,252.782,307.651,213.676z M332.478,212.021c0,35.38,21.313,56.484,47.588,56.484
			c26.07,0,47.381-21.104,47.381-56.484c0-35.381-21.311-58.968-47.381-58.968C353.791,153.054,332.478,176.64,332.478,212.021z"/>
		<path fill="#CB6120" d="M520.96,287.333h-16.966c0,0-9.104-1.034-15.518-18l-38.485-102.624
			c-6.205-16.346-14.275-17.38-14.275-17.38h39.725c0,0-7.24,1.034-1.033,17.587l38.484,102.83c0.62,1.656,1.24,2.897,1.861,4.139
			c0.62-1.241,1.241-2.482,1.656-4.139l18.826-50.07l-19.862-52.967c-6.207-16.346-14.276-17.38-14.276-17.38h39.726
			c0,0-7.241,1.034-1.034,17.587l38.691,102.83c0.621,1.656,1.034,2.897,1.654,4.139c0.621-1.241,1.242-2.482,1.862-4.139
			l38.484-102.83c6.207-16.553-1.035-17.587-1.035-17.587h26.485c0,0-8.276,1.034-14.276,17.38l-45.313,120.624h-16.966
			c0,0-9.104-1.034-15.519-18l-13.035-34.966L520.96,287.333z"/>
		<path fill="#CB6120" d="M670.957,167.33c-0.829-1.241-1.449-2.275-2.069-3.311c-0.207,0.827-0.207,1.863-0.207,2.897v102.83
			c0,16.553,7.656,17.587,7.656,17.587h-26.278c0,0,7.656-1.034,7.656-17.38V167.33c0-16.967-7.656-18.001-7.656-18.001h42.21
			c0,0-6.827,1.241,2.689,17.587l46.967,78.623V167.33c0-16.967-7.862-18.001-7.862-18.001h26.276c0,0-7.654,1.241-7.654,17.587
			v120.417h-10.76L670.957,167.33z"/>
	</g>
</g>
</svg>
