<?xml version="1.0" encoding="utf-8"?>
<!-- Generator: Adobe Illustrator 16.0.0, SVG Export Plug-In . SVG Version: 6.00 Build 0)  -->
<!DOCTYPE svg PUBLIC "-//W3C//DTD SVG 1.1//EN" "http://www.w3.org/Graphics/SVG/1.1/DTD/svg11.dtd">
<svg version="1.1" id="Capa_1" xmlns="http://www.w3.org/2000/svg" xmlns:xlink="http://www.w3.org/1999/xlink" x="0px" y="0px"
	 width="589.587px" height="459.418px" viewBox="0 0 589.587 459.418" enable-background="new 0 0 589.587 459.418"
	 xml:space="preserve">
<g>
	<path fill-rule="evenodd" clip-rule="evenodd" fill="#CB6120" d="M335.919,67.424h-8.305l-26.552,45.251v14.164L335.919,67.424z
		 M326.968,65.147h10.937h1.982l-1.005,1.716l-37.979,64.723l-2.118,3.611v-4.183V112.38v-0.31l0.162-0.27l27.042-46.078
		l0.335-0.576H326.968z M309.948,67.424l-8.886,15.149v14.095l17.155-29.245H309.948z M298.946,81.697l9.375-15.974l0.335-0.576
		h0.65h10.899h1.982l-1.014,1.716l-20.272,34.555l-2.118,3.612v-4.182V82.275v-0.304L298.946,81.697z M250.641,59.632
		c-1.401-0.661-3.366-1.07-5.558-1.07c-2.186,0-4.153,0.409-5.56,1.07c-1.187,0.561-1.922,1.263-1.922,1.949
		c0,0.707,0.735,1.396,1.922,1.953c1.407,0.672,3.375,1.086,5.56,1.086c2.192,0,4.157-0.414,5.558-1.086
		c1.2-0.557,1.925-1.247,1.925-1.953C252.565,60.896,251.84,60.193,250.641,59.632z M244.811,55.899
		c2.921,0,5.581,0.563,7.542,1.486c2.208,1.05,3.571,2.582,3.571,4.368c0,1.782-1.362,3.327-3.571,4.368
		c-1.96,0.92-4.621,1.492-7.542,1.492c-2.928,0-5.591-0.572-7.542-1.492c-2.208-1.041-3.574-2.585-3.574-4.368
		c0-1.786,1.366-3.317,3.574-4.368C239.22,56.461,241.883,55.899,244.811,55.899z M165.33,78.443
		c3.406,15.535,10.997,19.797,24.678,12.889c12.157-6.773,19.479,9.737,4.351,17.234c-9.916,3.872-18.143,3.154-24.679-2.169
		C162.917,99.982,161.462,90.661,165.33,78.443z M187.579,149.031h-95.97c-7.883-17.849-26.463-19.813-42.691-8.26
		c10.228,1.696,14.436,4.303,16.256,9.723c-0.917,4.908-9.442,7.351-18.714,8.899c5.428,1.535,11.566,3.448,15.625,8.712
		c-2.796,7.017-8.922,9.002-14.618,10.816c12.036,10.502,26.652,13.78,43.415-4.001l130.254,48.324
		c49.563-8.141,81.463-36.005,87.477-74.213h-25.705l-19.618,20.804l-16.355-10.533l-12.352,12.347l-11.629-12.347l-13.439,12.714
		L187.579,149.031z M140.481,201.812l70.12,24.341l-106.449,30.345c-2.685,19.838-13.573,29.917-30.893,32.515
		c5.482-6.422,7.783-11.933,5.638-18.355c-6.163-2.219-11.83-1.332-20.348,1.271c7.258-6.95,9.802-11.616,10.353-18.892
		c-6.418-2.533-12.836-1.087-19.259,2.185c3.038-12.477,9.458-19.192,19.441-21.615c8.776-1.879,15.143,0.48,21.254,3.448
		L140.481,201.812z M218.6,233.785l21.435-6.181c11.194,9.306,17.249,21.482,11.987,39.968
		C246.507,250.684,235.729,239.061,218.6,233.785z M245.935,225.697c10.739,8.39,14.351,19.687,13.54,36.789
		c9.817-14.369,10.17-29.923-0.278-41.512L245.935,225.697z M276.006,211.985c5.771,12.537,3.969,25.612-4.545,37.422
		c2.35-12.456,0.401-23.631-7.715-30.341L276.006,211.985z M315.562,149.031c-3.587,24.256-16.485,44.377-34.104,57.507
		c25.688,0.582,50.43-5.682,73.215-25.439l46.109,32.896h79.058c17.904,0,32.901,5.175,32.342,17.792
		c-0.838,11.5-10.246,17.743-23.9,19.81c-17.388,1.32-28.287,8.139-29.714,23.009h14.876c1.425-4.82,4.58-7.635,8.889-9.074
		c2.419-0.369,2.672,2.667,0.735,9.074h13.058c1.339-6.254,4.535-9.343,9.257-9.795c1.455,0.604,1.209,3.864-0.73,9.795h15.786
		c11.962-23.123,28.479-43.963,24.329-65.507c-2.61-9.211-10.651-16.374-25.575-16.374c-13.115,0-26.303,0.338-39.425-0.024
		c-7.485-0.226-13.245-1.149-17.682-4.763c-6.544-5.365-7.787-16.976-0.821-22.462c5.094-4.001,15.422-4.462,38.31-4.462
		c22.919,0,36.287-4.746,36.479-19.423c0.233-12.881-6.958-19.593-24.852-19.593h-71.868c-8.645,0.127-10.071-11.673,0.364-11.794
		h46.819c18.213,0,28.06-7.653,35.021-15.423c7.677-10.618,8.045-20.595,3.26-24.681c-5.352-5.612-19.896-0.49-32.777,3.707
		c-5.035,1.642-12.09,4.695-17.49,4.199c-4.886-0.44-6.193-4.138-2.084-6l30.495-16.609c3.868-2.173,0.2-6.798-3.906-4.625
		c-15.011,6.749-26.532,13.041-39.074,21.833c-3.567,2.493-6.852,4.979-7.396,8.137c-0.473,2.795,1.381,5.973,5.352,7.031
		c14.986,3.98,45.897-12.326,55.216-11.488c4.016,0.348,3.681,5.871,2.565,8.646c-2.725,6.826-13.707,14.217-36.165,15.022
		l-40.553,0.629c-14.528,0.183-21.6,6.443-21.792,15.247c-0.144,11.975,8.591,19.05,23.785,19.05h73.306
		c12.763,0,14.455,14.152,0.172,14.152H315.562z M318.299,208.552c12.722-4.073,24.913-9.045,35.205-17.236l44.094,29.391
		c2.603,1.879,5.565,2.787,8.898,2.729l75.121-0.906c21.895-0.796,27.998,10.033,21.036,17.241
		c-15.786,12.247-40.271,4.073-54.239,34.836h-17.24l1.626-9.795l-8.891,9.795h-17.604c1.197-18.037,16.412-28.112,41.199-27.858
		c10.831-0.209,7.325-9.854,0.715-8.796l-51.894,1.087c-8.587-0.181-15.729-3.874-21.4-9.437l-24.783-24.142
		C340.896,210.424,329.012,210.085,318.299,208.552z M298.989,54.37c-4.269,6.406-10.124,10.443-16.805,11.914l1.81,77.029
		l27.255-0.359l5.086-8.074h61.041c5.009,0,6.938-3.448,6.598-8.166h-70.486l3.301-5.618h71.724c3.387,0,5.597-3.302,4.984-6.178
		h-73.085l3.302-5.622h74.334c5.394,0,6.807-4.841,5.867-7.263H327.97l3.084-5.253h77.11c6.578,0,8.624-6.414,7.766-9.617H336.7
		l3.088-5.271h80.395c6.909,0,8.184-6.416,8.196-10.153h-82.625l3.191-5.447h83.842c6.659,0,11.048-8.578,9.621-11.922H298.989z
		 M221.503,45.579c-1.657,14.81-2.098,29.444-0.368,43.771c0.85,7.448,5.517,6.538,5.82,0.551L226.5,45.21
		c27.063-0.543,49.506-2.628,74.942-8.719c-6.065,14.922-15.153,22.966-26.534,25.796l1.82,85.747l-15.255,13.44l-14.177-10.535
		l-12.352,10.535L222.59,150.22l-12.716,12.351l-13.805-14.169l8.723-22.532c-10.263,1.117-14.204-3.427-15.26-10.531
		c15.178,0.078,25.985-4.086,24.707-19.99c-3.375-21.237-17.355-20.517-32.707-9.805c-2.184-13.687-2.396-21.44,6.545-31.253
		C197.587,47.028,209.091,45.089,221.503,45.579z"/>
	<g>
		<g>
			<path fill="#CB6120" d="M112.627,357.343H98.356c-2.772,0-3.802-0.312-4.723,2.362h-2.365v-17.359h2.472
				c0.508,2.468,1.946,2.468,4.617,2.468h34.4v2.572c-2.664,0.302-4.83,1.125-4.83,4.715v17.871c0,2.88,1.138,4.212,3.596,4.212
				v2.88c-10.365,7.596-26.799,11.39-40.459,11.39c-22.897,0-43.329-14.27-43.329-39.421c0-25.276,21.767-39.229,44.973-39.229
				c9.757,0,20.438,2.876,29.582,5.846c2.053,0.72,3.18,0.106,3.796-0.821l2.573,1.13l-9.248,17.969l-2.364-1.132
				c0.414-2.251-1.747-4.199-4.105-5.633c-6.472-3.701-14.172-4.833-21.365-4.833c-15.594,0-27.312,10.664-27.312,26.898
				c0,16.428,14.375,26.6,29.162,26.6c7.088,0,13.765-1.645,19.2-4.828V357.343z"/>
			<path fill="#CB6120" d="M198.598,313.101c-1.906,0.439-2.492,0.961-2.492,2.943v29.043c0,15.364-7.646,21.167-27.132,21.167
				c-19.03,0-26.827-6.247-26.827-21.167v-29.043c0-1.981-0.433-2.57-2.42-2.943v-1.83h16.691v1.83
				c-1.918,0.373-2.439,0.961-2.439,2.943v28.312c0,9.773,4.417,13.147,15.086,13.147c10.798,0,15.208-3.963,15.208-13.441v-28.018
				c0-1.981-0.521-2.57-2.429-2.943v-1.83h16.754V313.101z"/>
			<path fill="#CB6120" d="M264.155,364.488h-15.947v-1.833c2.429-0.295,1.396-2.347-0.073-3.971l-29.771-30.867v31.888
				c0,1.851,0.292,2.288,2.42,2.951v1.833h-15.216v-1.833c2.21-0.517,2.511-1.178,2.511-2.951v-43.661
				c0-1.917-0.456-2.504-2.511-2.943v-1.83h17.716v1.83c-0.872,0.143-1.327,0.597-1.327,1.552c0,0.95,0.594,1.761,1.259,2.354
				l28.301,29.845v-30.809c0-1.765,0-2.204-2.505-2.943v-1.83h15.143v1.83c-2.2,0.667-2.42,1.26-2.42,2.943v43.661
				c0,1.851,0.441,2.504,2.42,2.951V364.488z"/>
			<path fill="#CB6120" d="M318.461,343.833H308.24c-1.977,0-2.713-0.226-3.374,1.687h-1.696v-12.419h1.76
				c0.38,1.767,1.41,1.767,3.31,1.767h24.627v1.839c-1.903,0.22-3.447,0.802-3.447,3.374v12.801c0,2.05,0.809,3.019,2.565,3.019
				v2.05c-7.419,5.443-19.177,8.167-28.958,8.167c-16.393,0-31.023-10.218-31.023-28.234c0-18.096,15.586-28.08,32.191-28.08
				c6.987,0,14.635,2.06,21.175,4.188c1.475,0.511,2.281,0.07,2.722-0.597l1.843,0.817l-6.627,12.866l-1.676-0.813
				c0.291-1.615-1.257-3.003-2.949-4.041c-4.625-2.646-10.14-3.452-15.292-3.452c-11.174,0-19.557,7.646-19.557,19.259
				c0,11.758,10.3,19.039,20.894,19.039c5.061,0,9.845-1.168,13.734-3.456V343.833z"/>
			<path fill="#CB6120" d="M398.424,364.488h-15.95v-1.833c2.426-0.295,1.396-2.347-0.074-3.971l-29.766-30.867v31.888
				c0,1.851,0.293,2.288,2.418,2.951v1.833h-15.215v-1.833c2.215-0.517,2.509-1.178,2.509-2.951v-43.661
				c0-1.917-0.453-2.504-2.509-2.943v-1.83h17.716v1.83c-0.883,0.143-1.323,0.597-1.323,1.552c0,0.95,0.592,1.761,1.249,2.354
				l28.305,29.845v-30.809c0-1.765,0-2.204-2.5-2.943v-1.83h15.14v1.83c-2.198,0.667-2.419,1.26-2.419,2.943v43.661
				c0,1.851,0.437,2.504,2.419,2.951V364.488z"/>
			<path fill="#CB6120" d="M455.751,366.253h-1.76c-0.298-1.254-0.601-1.765-2.954-1.765h-45.124v-1.833
				c1.838-0.517,2.495-0.958,2.495-3.021v-43.591c0-1.981-0.584-2.504-2.495-2.943v-1.83h44.462c2.068,0,2.655,0,2.949-1.761h1.835
				v13.751h-1.835c-0.366-1.626-0.808-2.504-2.508-2.504H420.02v12.564h18.238c2.051,0,2.418-0.437,3.011-2.424h1.76v13.531h-1.76
				c-0.445-1.923-1.029-2.512-3.011-2.512H420.02v13.016h30.944c2.066,0,2.581-0.511,3.027-2.438h1.76V366.253z"/>
			<path fill="#CB6120" d="M547.144,388.454h-28.361v-2.664c1.376-0.217,2.753-0.867,2.753-2.451c0-1.168-0.833-2.564-1.683-3.619
				l-15.785-21.222h-20.045v23.023c0,2.876,0.969,3.632,3.727,4.269v2.664h-24.3v-2.664c2.774-0.637,3.628-1.499,3.628-4.269
				v-63.325c0-2.88-0.854-3.628-3.628-4.257v-2.667h47.237c14.49,0,31.969,4.269,31.969,22.274c0,13.229-8.629,20.684-20.996,23.464
				l15.889,21.427c2.651,3.613,5.527,6.08,9.596,7.354V388.454z M506.305,324.492h-22.283v21.212h22.814
				c7.792,0,19.619-0.421,19.619-10.987C526.456,324.279,513.765,324.492,506.305,324.492z"/>
		</g>
		<g>
			<path fill="#CB6120" d="M274.676,415.148c-4.077,0-7.955-0.526-11.017-1.584l1.273-4.4c3.008,1.013,5.984,1.478,9.48,1.478
				c4.495,0,7.044-2.166,7.044-5.234c0-2.491-1.22-4.075-6.048-6.095l-3.015-1.214c-5.348-2.234-7.416-4.604-7.416-8.893
				c0-5.679,4.404-9.004,11.493-9.004c3.812,0,6.307,0.473,9.269,1.695l-1.422,4.436c-2.333-1.098-5.094-1.626-7.846-1.626
				c-4.656,0-6.462,1.586-6.462,3.967c0,2.063,0.793,3.338,5.563,5.344l3.072,1.226c5.616,2.378,7.846,5.128,7.846,9.421
				C286.491,411.288,282.145,415.148,274.676,415.148z"/>
			<path fill="#CB6120" d="M296.231,415.096c-1.958,0-3.496-1.372-3.496-3.432c0-2.124,1.537-3.498,3.496-3.498
				c1.806,0,3.392,1.374,3.392,3.498C299.623,413.724,298.037,415.096,296.231,415.096z"/>
			<path fill="#CB6120" d="M326.045,414.623l-2.537-8.32h-11.811l-2.541,8.32h-4.972l11.067-33.894h5.192l11.06,33.894H326.045z
				 M317.58,386.126l-4.772,16.1h9.54L317.58,386.126z"/>
			<path fill="#CB6120" d="M339.772,415.096c-1.96,0-3.498-1.372-3.498-3.432c0-2.124,1.537-3.498,3.498-3.498
				c1.797,0,3.392,1.374,3.392,3.498C343.164,413.724,341.57,415.096,339.772,415.096z"/>
		</g>
		<rect x="144.341" y="398.283" fill="#CB6120" width="107.996" height="3.76"/>
		<rect x="352.618" y="398.283" fill="#CB6120" width="96.908" height="3.76"/>
	</g>
</g>
</svg>
