<?xml version="1.0" encoding="utf-8"?>
<!-- Generator: Adobe Illustrator 16.0.0, SVG Export Plug-In . SVG Version: 6.00 Build 0)  -->
<!DOCTYPE svg PUBLIC "-//W3C//DTD SVG 1.1//EN" "http://www.w3.org/Graphics/SVG/1.1/DTD/svg11.dtd">
<svg version="1.1" id="Capa_1" xmlns="http://www.w3.org/2000/svg" xmlns:xlink="http://www.w3.org/1999/xlink" x="0px" y="0px"
	 width="781.011px" height="342.011px" viewBox="0 0 781.011 342.011" enable-background="new 0 0 781.011 342.011"
	 xml:space="preserve">
<g>
	<path fill-rule="evenodd" clip-rule="evenodd" d="M418.439,167.862c0.439-1.23,0.908-2.45,1.314-3.69
		c1.946-5.948,3.863-11.907,5.816-17.852c1.222-3.719,2.512-7.415,3.732-11.134c1.221-3.721,2.38-7.462,3.594-11.186
		c1.293-3.969,2.625-7.924,3.925-11.89c0.3-0.918,0.599-1.843,0.797-2.786c0.347-1.656-0.298-3.264-1.751-4.069
		c-1.103-0.611-2.297-1.098-3.502-1.475c-2.304-0.72-4.512-1.595-6.354-3.208c-0.335-0.295-0.665-0.646-0.865-1.038
		c-0.504-0.985-0.19-1.819,0.826-2.235c0.465-0.191,0.976-0.33,1.476-0.373c1.672-0.143,3.348-0.308,5.024-0.325
		c4.338-0.045,8.676-0.003,13.015-0.017c7.552-0.025,15.103-0.05,22.651-0.104c6.42-0.045,12.84-0.134,19.258-0.197
		c1.516-0.016,2.908,0.373,4.155,1.269c0.813,0.583,1.286,1.324,1.073,2.328c-0.223,1.058-1.027,1.614-2.002,1.879
		c-1.475,0.4-2.97,0.657-4.521,0.559c-2.532-0.16-4.955,0.434-7.328,1.251c-4.337,1.494-6.089,5.267-5.704,9.36
		c0.203,2.173,0.484,4.34,0.786,6.502c0.224,1.608,0.559,3.201,0.811,4.806c0.583,3.715,1.137,7.435,1.718,11.15
		c0.267,1.707,0.579,3.408,0.852,5.115c0.605,3.81,1.194,7.623,1.798,11.434c0.819,5.168,1.63,10.337,2.476,15.501
		c0.828,5.065,1.68,10.126,2.55,15.185c0.973,5.657,2.003,11.304,2.962,16.962c0.561,3.3,0.942,6.633,1.57,9.919
		c0.607,3.182,0.92,6.424,2.104,9.498c1.933,5.015,5.294,8.475,10.448,10.128c2,0.642,4.051,0.885,6.146,1.022
		c2.221,0.146,4.44,0.476,6.629,0.895c1.336,0.255,2.354,1.154,3.1,2.393c-0.568,1.305-1.568,2.119-2.918,2.424
		c-1.227,0.278-2.486,0.486-3.742,0.564c-1.523,0.095-3.061,0.037-4.591,0.021c-9.332-0.098-18.663-0.209-27.995-0.303
		c-7.904-0.079-15.809-0.142-23.713-0.203c-1.538-0.012-3.045-0.163-4.51-0.671c-1.313-0.456-2.098-1.353-2.092-2.49
		c0.007-1.244,0.605-2.039,2.123-2.415c1.223-0.304,2.5-0.403,3.759-0.547c1.21-0.139,2.442-0.139,3.64-0.341
		c3.334-0.563,5.434-2.564,6.488-5.743c0.855-2.587,0.801-5.253,0.406-7.859c-0.912-6.032-2.029-12.034-3.053-18.049
		c-0.947-5.563-1.9-11.124-2.814-16.692c-0.841-5.118-1.615-10.247-2.454-15.365c-0.779-4.766-1.646-9.518-2.401-14.287
		c-0.781-4.919-1.455-9.856-2.221-14.778c-0.254-1.636-0.65-3.25-0.958-4.758c-0.735-0.241-0.979,0.035-1.146,0.464
		c-1.034,2.653-2.076,5.304-3.107,7.958c-1.212,3.114-2.429,6.227-3.619,9.349c-1.009,2.651-1.964,5.324-2.981,7.973
		c-1.238,3.226-2.541,6.428-3.775,9.655c-1.652,4.321-3.254,8.662-4.898,12.985c-1.789,4.703-3.596,9.398-5.403,14.094
		c-1.167,3.03-2.292,6.078-3.541,9.075c-1.103,2.649-3.055,3.449-5.776,3.168c-2.387-0.246-4.379-1.274-5.86-3.185
		c-0.431-0.556-0.837-1.157-1.124-1.795c-2.25-5.013-4.469-10.04-6.695-15.064c-1.9-4.281-3.795-8.564-5.693-12.845
		c-2.932-6.606-5.875-13.206-8.791-19.818c-1.785-4.045-3.516-8.116-5.295-12.164c-1.309-2.978-2.642-5.944-4.004-8.897
		c-0.217-0.47-0.642-0.843-0.953-1.241c-0.842,0.342-1.005,0.877-1.092,1.52c-0.506,3.726-1.02,7.451-1.564,11.171
		c-0.752,5.128-1.554,10.25-2.295,15.38c-0.299,2.06-0.477,4.137-0.74,6.201c-0.207,1.613-0.45,3.221-0.696,4.829
		c-0.536,3.513-1.103,7.021-1.618,10.536c-0.377,2.56-0.672,5.132-1.045,7.692c-0.254,1.758-0.592,3.504-0.872,5.259
		c-0.112,0.702-0.162,1.413-0.257,2.118c-0.467,3.474-0.916,6.95-1.414,10.419c-0.506,3.52-1.117,7.026-1.57,10.553
		c-0.257,2.003-0.625,4.009-0.336,6.061c0.313,2.203,1.635,3.576,3.532,4.45c2.095,0.964,4.313,1.484,6.624,1.675
		c2.582,0.213,5.155,0.528,7.724,0.862c0.584,0.076,1.191,0.325,1.687,0.649c1.322,0.864,1.347,2.38,0.059,3.282
		c-1.233,0.864-2.623,1.321-4.15,1.317c-3.012-0.007-6.022-0.016-9.033,0c-13.657,0.076-27.314,0.162-40.969,0.239
		c-1.477,0.009-2.953-0.002-4.363-0.563c-1.289-0.511-2.041-1.476-2.07-2.736c-0.033-1.402,0.371-2.127,1.744-2.51
		c1.858-0.516,3.764-0.854,5.646-1.281c3.151-0.715,6.114-1.827,8.8-3.709c2.714-1.901,4.285-4.545,4.963-7.633
		c1.01-4.613,1.701-9.296,2.555-13.944c0.967-5.248,1.967-10.49,2.943-15.736c1.106-5.945,2.211-11.89,3.305-17.838
		c1.047-5.698,2.091-11.398,3.113-17.101c0.762-4.249,1.462-8.508,2.236-12.755c0.727-3.998,1.547-7.978,2.27-11.977
		c0.866-4.801,1.741-9.603,2.475-14.425c0.334-2.193-0.032-4.392-1.097-6.375c-0.374-0.693-0.972-1.348-1.621-1.794
		c-1.56-1.07-3.224-1.872-5.222-1.89c-2.754-0.025-5.468-0.435-8.084-1.356c-0.334-0.118-0.645-0.304-0.967-0.456
		c-1.715-0.806-1.531-2.514-0.404-3.316c0.838-0.597,1.886-0.952,2.889-1.249c0.664-0.196,1.416-0.128,2.129-0.13
		c4.782-0.009,9.566-0.004,14.35-0.004c3.443,0,6.888,0.024,10.331-0.006c5.295-0.046,10.589-0.161,15.884-0.185
		c2.391-0.011,4.785,0.081,7.174,0.213c1.228,0.068,2.402,0.472,3.371,1.268c1.375,1.127,1.219,2.901-0.313,3.811
		c-0.303,0.179-0.646,0.333-0.99,0.387c-1.504,0.235-3.008,0.513-4.523,0.618c-1.676,0.116-3.199,0.582-4.581,1.512
		c-0.976,0.656-1.099,1.032-0.64,2.178c0.719,1.792,1.465,3.574,2.248,5.339c2.227,5.014,4.483,10.015,6.72,15.025
		c2.903,6.509,5.779,13.03,8.7,19.532c2.564,5.705,5.176,11.389,7.76,17.085c0.441,0.972,0.836,1.964,1.283,2.932
		c0.178,0.386,0.438,0.733,0.662,1.099C418.115,167.892,418.277,167.877,418.439,167.862z"/>
	<path fill-rule="evenodd" clip-rule="evenodd" d="M611.789,186.055c-0.54,0.833-1.117,1.774-1.745,2.682
		c-0.894,1.292-1.853,2.525-3.646,3c-0.399-1.659,0.015-3.096,0.743-4.419c0.928-1.685,1.986-3.298,3.008-4.931
		c0.211-0.336,0.505-0.62,0.841-1.027c0.409,0.321,0.732,0.633,1.108,0.856c0.819,0.489,1.63,1.021,2.511,1.372
		c0.953,0.38,1.397,0.097,1.401-0.893c0.004-1.942,0.686-3.972-0.625-5.78c-0.076-0.106-0.047-0.299-0.042-0.45
		c0.003-0.098,0.051-0.195,0.078-0.292c1.107-0.355,1.112-0.354,1.382-1.459c0.072-0.296,0.119-0.601,0.148-0.905
		c0.31-3.245,1.021-6.411,1.863-9.552c0.027-0.098,0.063-0.194,0.088-0.292c0.445-1.757,0.223-1.855-1.572-2.182
		c-2.558-0.464-5.063,0.291-7.598,0.061c-0.928-0.084-1.801-0.194-2.639-0.645c-1.822-0.983-3.072-3.543-2.6-5.556
		c0.3-1.282,0.766-2.528,1.027-3.817c0.223-1.103,0.901-1.777,1.726-2.413c0.521-0.402,1.039-0.828,1.468-1.322
		c0.787-0.907,0.852-1.621,0.147-2.621c-0.492-0.697-1.11-1.331-1.765-1.882c-1.846-1.555-4.01-2.568-6.2-3.554
		c-2.546-1.146-5.092-2.323-7.148-4.296c-0.329-0.317-0.708-0.616-0.937-1c-1.045-1.752-1.393-3.112,0.174-5.022
		c0.316-0.384,0.617-0.782,0.956-1.211c-0.267-0.372-0.51-0.692-0.733-1.023c-1.162-1.721-1.139-2.949,0.148-4.614
		c0.402-0.52,0.891-0.982,1.383-1.421c0.455-0.405,0.988-0.721,1.453-1.116c1.104-0.935,2.268-1.498,3.799-1.645
		c4.303-0.415,8.049-2.407,11.688-4.597c3.488-2.098,6.982-4.185,10.473-6.279c1.426-0.855,2.996-1.27,4.626-1.4
		c0.741-0.059,1.183-0.339,1.624-0.922c0.606-0.804,1.372-1.487,2.063-2.229c0.434-0.466,0.855-0.943,1.453-1.605
		c-0.734-0.199-1.197-0.428-1.662-0.434c-3.553-0.037-7.116-0.189-10.656,0.015c-2.727,0.157-5.433,0.773-7.912,2.046
		c-1.328,0.682-2.453,1.652-3.283,2.892c-0.525,0.788-1.219,1.122-2.096,1.355c-2.592,0.69-5.242,0.76-7.875,0.663
		c-3.125-0.116-6.127-0.994-8.996-2.214c-2.289-0.975-4.492-2.148-6.764-3.167c-1.012-0.453-2.09-0.767-3.15-1.1
		c-1.664-0.522-3.252-0.225-4.678,0.697c-0.863,0.559-1.637,0.521-2.591,0.302c-1.776-0.405-3.616-0.525-5.392-0.936
		c-3.178-0.735-6.281-1.683-8.85-3.856c-2.834-2.396-3.863-5.327-3.039-8.993c0.49-2.178,1.398-4.135,2.463-6.054
		c0.238-0.431,0.456-0.874,0.729-1.399c-0.986-0.556-1.775-0.217-2.529,0.187c-0.762,0.409-1.49,0.881-2.229,1.335
		c-1.201,0.74-2.49,1.142-3.918,1.044c-0.297-0.02-0.601,0.027-1.112,0.054c0.062,0.485,0.051,0.921,0.183,1.308
		c0.212,0.623,0.494,1.224,0.787,1.814c0.932,1.873,1.238,3.768,0.168,5.795c0.475,0.492,0.9,0.992,1.387,1.424
		c1.016,0.905,1.717,1.986,2.117,3.291c0.859,2.808-1.148,5.167-4.049,4.792c-2.025-0.262-3.602-1.308-5.053-2.628
		c-2.99-2.725-6.528-4.476-10.32-5.755c-1.25-0.422-2.525-0.798-3.816-1.063c-2.619-0.536-5.172-0.444-7.458,1.189
		c-0.287,0.205-0.579,0.431-0.792,0.706c-0.445,0.575-0.613,1.183,0.039,1.754c0.609,0.533,1.172,1.133,1.829,1.598
		c2.912,2.058,5.919,4.013,8.374,6.622c1.458,1.549,2.684,3.318,4,4.998c0.773,0.988,0.824,2.049,0.236,3.149
		c-0.023,0.045-0.051,0.088-0.072,0.134c-0.859,1.985-0.533,3.366,1.127,4.719c0.234,0.19,0.5,0.341,0.746,0.506
		c-0.832,1.491-3.047,1.787-4.074,0.582c-1.447-1.697-1.867-3.608-1.01-5.692c0.507-1.232,0.265-2.229-0.496-3.272
		c-2.071-2.845-4.697-5.064-7.574-7.036c-1.387-0.949-2.725-1.969-4.049-3.004c-0.514-0.402-0.924-0.938-1.392-1.403
		c-1.666-1.657-1.347-4.395,0.325-6.013c1.885-1.823,4.188-2.624,6.756-2.756c3.849-0.199,7.445,0.838,10.918,2.364
		c1.533,0.673,3.029,1.441,4.512,2.225c1.397,0.739,2.674,1.635,3.837,2.742c0.864,0.822,1.972,1.404,3.024,1.997
		c0.416,0.235,1.1,0.358,1.341-0.236c0.126-0.313-0.103-0.846-0.306-1.203c-0.854-1.496-2.398-2.152-3.777-3.005
		c-0.377-0.234-0.751-0.475-1.314-0.83c0.613-0.705,1.066-1.368,1.654-1.872c1.033-0.886,1.071-1.898,0.585-3.031
		c-0.362-0.843-0.743-1.678-1.146-2.502c-0.375-0.77-0.629-0.806-1.191-0.221c-1.752,1.825-3.816,2.141-6.055,0.992
		c-2.115-1.085-3.568-2.661-4.013-5.06c-0.252-1.361,0.192-2.551,1.24-3.188c0.21-0.128,0.468-0.289,0.69-0.271
		c1.397,0.111,2.836-0.225,4.188,0.482c0.398,0.208,1.024,0.225,1.455,0.073c1.25-0.438,2.055,0.104,2.768,1.013
		c0.215,0.274,0.439,0.541,0.84,1.033c0.313-0.515,0.576-0.954,0.836-1.381c0.908,0.318,1.665,0.484,2.322,0.838
		c0.764,0.41,1.462,0.383,2.176,0.005c0.941-0.499,1.907-0.969,2.784-1.566c2.892-1.964,6.54-1.293,9.024,1.092
		c-0.27,0.44-0.553,0.908-0.841,1.37c-1.319,2.111-2.755,4.15-3.565,6.549c-1.139,3.374-0.152,6.577,3.158,8.25
		c2.426,1.226,4.929,2.126,7.614,2.532c0.603,0.092,1.193,0.252,1.791,0.373c1.258,0.253,2.435,0.314,3.697-0.289
		c2.714-1.298,5.466-0.83,8.116,0.316c3.27,1.412,6.472,2.987,9.775,4.315c3.213,1.293,6.609,1.549,10.051,1.186
		c0.505-0.053,1.016-0.069,1.519-0.13c0.992-0.12,1.845-0.493,2.493-1.304c2.079-2.591,4.904-3.938,8.071-4.53
		c2.738-0.513,5.517-0.856,8.294-1.116c1.297-0.122,2.631,0.128,3.949,0.208c1.369,0.083,2.744,0.125,4.108,0.262
		c1.054,0.105,2.135,0.214,3.136,0.531c1.816,0.576,2.392,2.501,1.215,4.007c-0.62,0.793-1.414,1.453-2.144,2.158
		c-0.364,0.354-0.753,0.685-1.146,1.009c-0.906,0.75-1.546,1.609-1.378,2.885c0.028,0.217-0.157,0.461-0.257,0.723
		c-0.229,0.029-0.444,0.119-0.618,0.068c-2.558-0.752-4.843,0.078-6.994,1.313c-2.91,1.67-5.747,3.467-8.622,5.199
		c-2.699,1.627-5.362,3.334-8.395,4.302c-1.786,0.57-3.561,1.223-5.489,1.191c-0.384-0.006-0.835,0.114-1.146,0.331
		c-0.962,0.669-1.914,1.362-2.785,2.142c-0.825,0.737-0.77,1.368,0.167,1.984c0.933,0.614,1.959,1.085,2.926,1.652
		c0.405,0.239,0.765,0.561,1.378,1.021c-1.324,0.634-2.369,1.131-3.413,1.633c-0.456,0.22-0.941,0.4-1.353,0.686
		c-1.114,0.771-1.188,1.451-0.154,2.313c0.893,0.746,1.844,1.462,2.869,2c2.073,1.084,4.234,1.998,6.318,3.059
		c2.375,1.208,4.572,2.67,6.22,4.833c1.722,2.263,1.534,5.29-0.505,7.179c-0.299,0.277-0.537,0.644-0.875,0.851
		c-1.814,1.106-1.976,2.99-2.176,4.781c-0.183,1.646,0.639,2.547,2.299,2.536c1.568-0.012,3.154-0.183,4.694-0.478
		c0.853-0.163,1.589-0.171,2.362,0.183c0.32,0.146,0.674,0.249,1.022,0.296c2.118,0.293,2.63-0.055,3.409-2.044
		c2.046-5.227,5.02-9.867,8.91-13.915c2.017-2.098,4.149-4.051,6.713-5.49c2.098-1.178,4.314-1.954,6.65-2.553
		c3.029-0.776,6.09-0.698,9.116-0.509c3.937,0.248,7.519,1.586,10.423,4.473c1.746,1.736,3.367,3.568,4.562,5.7
		c1.397,2.492,2.418,5.145,2.39,8.086c-0.02,2.078,0.015,4.157-0.008,6.234c-0.02,1.697-0.406,3.315-1.261,4.794
		c-0.94,1.63-2.415,2.6-4.157,3.173c-2.795,0.919-5.686,1.156-8.583,0.817c-1.179-0.138-2.356-0.636-3.442-1.161
		c-2.484-1.2-3.521-5.11-2.485-7.163c0.751-1.487,2.135-2.276,3.46-3.125c0.982-0.63,1.973-1.247,2.971-1.852
		c1.086-0.657,1.495-1.708,1.428-2.864c-0.154-2.714-1.152-5.149-2.858-7.259c-1.854-2.293-4.499-2.546-7.169-1.156
		c-1.06,0.552-2.031,1.371-2.869,2.236c-2.466,2.546-4.353,5.481-5.742,8.762c-1.07,2.529-1.965,5.101-2.609,7.765
		c-0.236,0.975-0.086,1.904,0.182,2.857c0.504,1.803,1.065,3.605,1.361,5.447c0.332,2.07-0.029,4.146-0.541,6.172
		c-0.246,0.978-0.518,1.955-0.862,2.9c-0.259,0.71-0.688,1.355-0.978,2.055c-0.266,0.643-0.639,1.325-0.626,1.984
		c0.04,2.081,0.165,4.166,0.394,6.234c0.316,2.877,0.752,5.741,1.143,8.609c0.695,5.104,2.172,10.013,3.964,14.813
		c1.491,3.99,3.778,7.553,6.731,10.641c2.557,2.674,5.702,4.333,9.41,4.515c3.502,0.171,7.009,0.207,10.511-0.471
		c4.911-0.952,9.255-2.936,13.12-6.117c5.651-4.651,9.516-10.526,12.247-17.241c1.615-3.973,2.862-8.062,3.634-12.263
		c0.742-4.041,1.441-8.101,1.527-12.241c0.053-2.537,0.447-5.068,0.51-7.605c0.128-5.244,0.31-10.495-0.493-15.714
		c-0.271-1.757-0.402-3.537-0.724-5.284c-1.151-6.263-3.035-12.27-7.057-17.339c-2.937-3.703-6.821-6-11.469-7.069
		c-2.449-0.564-4.924-0.657-7.397-0.903c-3.127-0.311-6.24-0.701-9.331-1.378c-2.998-0.658-5.911-1.5-8.711-2.7
		c-4.715-2.019-9.111-4.554-12.482-8.542c-2.419-2.862-3.881-6.097-4.277-9.907c-0.517-4.95,1.254-8.936,4.508-12.439
		c2.566-2.765,5.692-4.766,9.058-6.397c2.013-0.976,4.048-1.936,6.15-2.688c1.903-0.679,3.894-1.163,5.881-1.557
		c2.537-0.503,5.105-0.854,7.665-1.221c0.805-0.115,1.629-0.095,2.443-0.1c1.939-0.013,3.883,0.066,5.818-0.02
		c3.288-0.148,6.488,0.373,9.666,1.109c1.172,0.272,2.189,0.294,3.359-0.275c2.4-1.167,6.676-0.22,8.78,1.919
		c1.708,1.737,2.841,3.826,3.878,5.987c1.295,2.699,2.562,5.415,3.897,8.094c0.806,1.615,0.521,2.628-1.208,3.113
		c-1.053,0.295-2.201,0.403-3.297,0.354c-1.78-0.078-3.49-0.572-5.109-1.354c-1.537-0.743-1.971-2.294-2.576-3.646
		c-1.174-2.621-3.013-4.552-5.48-5.937c-3.207-1.801-6.668-2.751-10.329-2.899c-2.177-0.088-4.374-0.17-6.536,0.032
		c-2.226,0.209-4.383,0.896-6.405,1.896c-4.106,2.031-7.308,4.948-9.058,9.292c-1.023,2.543-1.054,5.188-0.674,7.819
		c0.221,1.535,0.658,3.096,1.311,4.5c1.797,3.879,5.002,6.189,8.985,7.5c2.718,0.895,5.502,1.294,8.372,1.458
		c3.491,0.2,6.962,0.749,10.436,1.196c3.438,0.444,6.776,1.37,10.011,2.561c5.009,1.845,9.597,4.407,13.193,8.511
		c2.538,2.896,4.433,6.154,6.097,9.611c1.597,3.314,2.637,6.799,3.576,10.315c0.52,1.946,0.66,3.994,0.955,5.998
		c0.578,3.942,0.709,7.917,0.574,11.884c-0.152,4.523-0.371,9.055-0.852,13.552c-0.394,3.674-1.05,7.339-1.885,10.94
		c-1.18,5.093-2.913,10.02-5.238,14.723c-2.541,5.144-5.672,9.859-9.681,14.007c-5.069,5.248-10.94,9.286-17.729,11.906
		c-4.029,1.555-8.235,2.433-12.541,3.047c-5.851,0.834-11.688,0.634-17.537,0.497c-1.76-0.042-3.524-0.402-5.264-0.734
		c-4.533-0.866-8.795-2.452-12.802-4.78c-5.063-2.941-9.294-6.735-12.538-11.626c-3.542-5.339-5.779-11.175-6.825-17.484
		c-0.3-1.803-0.685-3.592-0.972-5.396c-0.199-1.252-0.325-2.518-0.436-3.782c-0.133-1.52-0.242-3.042-0.306-4.565
		c-0.034-0.777-0.46-1.042-1.134-1.188C613.982,186.658,613.063,186.388,611.789,186.055z"/>
	<path fill-rule="evenodd" clip-rule="evenodd" d="M115.572,240.094c-1.937,0-3.887,0.137-5.807-0.038
		c-1.912-0.174-3.787-0.738-5.695-0.992c-2.645-0.352-5.172-1.168-7.608-2.129c-2.872-1.136-5.55-2.72-8.091-4.54
		c-5.318-3.812-9.139-8.781-11.726-14.734c-1.519-3.496-2.663-7.108-3.121-10.92c-0.31-2.569-0.788-5.119-1.065-7.691
		c-0.422-3.954-0.545-7.923-0.174-11.892c0.199-2.125,0.396-4.251,0.652-6.37c0.187-1.559,0.396-3.122,0.725-4.656
		c0.519-2.429,1.049-4.861,1.74-7.244c2.129-7.329,5.223-14.208,10.091-20.156c3.312-4.045,7.077-7.597,11.962-9.738
		c1.961-0.859,4.023-1.347,6.111-1.821c1.974-0.449,3.953-0.634,5.914-0.427c3.322,0.352,6.691,0.625,9.625,2.56
		c2.197,1.448,4.088,3.204,5.608,5.331c1.642,2.295,2.985,4.774,3.431,7.595c0.641,4.06,0.636,8.146-0.458,12.124
		c-0.78,2.843-2.816,4.615-5.631,5.536c-3.108,1.019-6.286,1.24-9.476,0.726c-2.156-0.347-4.148-1.204-4.98-3.516
		c-0.92-2.558-0.834-5.357,1.771-7.036c1.45-0.936,2.897-1.876,4.375-2.769c1.616-0.977,2.237-2.249,1.936-4.211
		c-0.264-1.713-0.895-3.21-1.678-4.689c-1.727-3.254-4.945-4.02-8.165-2.177c-1.839,1.053-3.241,2.622-4.546,4.242
		c-3.205,3.981-5.203,8.576-6.697,13.428c-1.23,3.999-2.123,8.081-2.471,12.227c-0.344,4.096-0.715,8.216-0.242,12.35
		c0.179,1.564,0.098,3.158,0.136,4.738c0.103,4.333,0.685,8.616,1.472,12.866c0.721,3.901,1.611,7.795,3.201,11.429
		c1.842,4.211,4.141,8.179,7.971,11.012c2.473,1.829,5.293,2.597,8.277,2.706c4.916,0.18,9.758-0.433,14.423-2.05
		c3.197-1.109,6.122-2.751,8.762-4.886c6.825-5.52,11.464-12.579,14.641-20.686c1.3-3.316,2.29-6.72,3.15-10.172
		c0.97-3.901,1.651-7.842,2.025-11.843c0.265-2.833,0.727-5.652,0.878-8.49c0.21-3.907,0.613-7.815,0.156-11.742
		c-0.299-2.572-0.341-5.177-0.685-7.742c-0.271-2.009-0.69-4.021-1.292-5.956c-0.752-2.416-1.589-4.834-2.688-7.107
		c-2.627-5.438-7.031-8.893-12.789-10.534c-2.229-0.636-4.526-1.028-6.896-1.108c-2.73-0.092-5.458-0.52-8.169-0.919
		c-2.005-0.296-4.021-0.648-5.964-1.207c-6.74-1.938-12.986-4.802-17.771-10.16c-2.88-3.226-4.466-6.993-4.415-11.377
		c0.049-4.148,1.553-7.701,4.27-10.809c3.117-3.563,6.984-6.076,11.254-7.958c2.826-1.247,5.749-2.326,8.709-3.21
		c2.275-0.68,4.669-0.99,7.025-1.375c4.439-0.726,8.922-0.83,13.405-0.703c3.151,0.09,6.284,0.378,9.356,1.168
		c0.881,0.228,1.716,0.167,2.645-0.245c2.076-0.92,4.26-0.776,6.407-0.061c3.522,1.174,5.234,4.035,6.638,7.158
		c1.354,3.009,2.313,6.209,4.169,8.973c1.013,1.509,0.228,3.123-1.668,3.541c-2.951,0.65-5.839,0.17-8.596-1.065
		c-1.083-0.485-1.745-1.321-2.186-2.409c-1.188-2.938-2.815-5.556-5.718-7.105c-2.984-1.594-6.152-2.637-9.544-2.916
		c-1.517-0.125-3.038-0.298-4.556-0.29c-5.469,0.026-10.452,1.637-14.697,5.093c-4.051,3.298-6.348,7.617-6.047,12.928
		c0.318,5.581,2.37,9.813,8.549,12.362c2.77,1.142,5.65,1.54,8.588,1.894c3.379,0.407,6.779,0.508,10.155,1.021
		c4.595,0.698,9.083,1.675,13.425,3.332c6.624,2.529,12.06,6.542,15.715,12.719c2.319,3.917,3.996,8.097,5.123,12.527
		c1.072,4.22,1.518,8.509,1.741,12.822c0.117,2.273-0.144,4.565-0.229,6.85c-0.042,1.12-0.006,2.249-0.127,3.36
		c-0.33,3.029-0.658,6.06-1.115,9.071c-0.42,2.761-0.969,5.504-1.53,8.241c-1.005,4.9-2.556,9.626-4.536,14.225
		c-1.578,3.662-3.496,7.14-5.674,10.452c-1.641,2.496-3.516,4.874-5.535,7.076c-4.934,5.383-10.74,9.659-17.34,12.805
		c-3.539,1.688-7.228,2.998-11.104,3.689c-2.996,0.534-5.99,1.138-9.01,1.467c-2.881,0.313-5.794,0.308-8.693,0.443
		C115.576,240.235,115.574,240.165,115.572,240.094z"/>
	<path fill-rule="evenodd" clip-rule="evenodd" d="M262.693,192.773c-1.222,0.805-2.359,1.466-3.4,2.254
		c-3.023,2.29-5.674,4.983-7.81,8.102c-1.704,2.488-4.161,2.953-6.962,1.801c-2.587-1.064-4.646-2.895-6.751-4.663
		c-3.329-2.796-6.998-5.047-11.007-6.735c-0.088-0.037-0.195-0.026-0.481-0.059c-0.249,0.379-0.61,0.801-0.831,1.287
		c-2.16,4.763-4.295,9.539-6.441,14.308c-1.545,3.427-3.105,6.846-4.642,10.277c-0.788,1.761-0.998,3.632-0.841,5.532
		c0.147,1.807,1.255,2.953,2.834,3.681c2.426,1.117,5.002,1.687,7.627,2.074c1.66,0.245,3.336,0.42,4.974,0.771
		c0.766,0.165,1.531,0.574,2.161,1.052c0.759,0.575,0.801,1.479,0.09,2.122c-0.584,0.527-1.329,0.945-2.074,1.203
		c-0.806,0.278-1.691,0.383-2.55,0.439c-1.827,0.12-3.658,0.211-5.488,0.222c-9.032,0.053-18.065,0.05-27.097,0.122
		c-4.023,0.032-8.046,0.23-12.07,0.271c-1.207,0.012-2.428-0.195-3.624-0.403c-1.109-0.193-1.764-0.861-1.827-1.775
		c-0.066-0.949,0.337-1.732,1.218-2.104c1.308-0.551,2.667-0.973,3.987-1.492c2.6-1.02,5.269-1.9,7.754-3.146
		c3.416-1.711,6.307-4.128,8.008-7.665c2.44-5.071,4.82-10.173,7.202-15.273c2.624-5.616,5.245-11.234,7.821-16.872
		c2.826-6.187,5.59-12.404,8.401-18.598c2.753-6.065,5.538-12.116,8.3-18.178c2.254-4.946,4.617-9.849,6.69-14.871
		c1.065-2.581,0.55-4.711-1.866-6.454c-2.42-1.744-5.209-2.445-8.097-2.866c-3.845-0.562-7.714-0.646-11.583-0.516
		c-1.822,0.062-3.639,0.344-5.455,0.558c-0.566,0.067-1.124,0.236-1.102,1.188c0.551,0.088,1.123,0.212,1.699,0.264
		c0.761,0.067,1.534,0.022,2.287,0.125c1.135,0.154,1.803,0.913,2.109,1.96c0.303,1.033-0.055,1.924-0.844,2.616
		c-1.549,1.355-3.399,2.039-5.426,2.131c-1.922,0.086-3.863,0.165-5.77-0.021c-2.102-0.205-4.242-0.315-6.238-1.195
		c-1.769-0.78-2.496-2.03-2.356-3.946c0.235-3.209,2.205-5.052,4.901-6.249c2.469-1.094,5.115-1.579,7.766-2.102
		c4.397-0.867,8.803-0.583,13.217-0.565c4.031,0.016,8.063,0.004,12.096,0.004c12.096,0,24.193-0.008,36.289,0.009
		c1.917,0.003,3.832,0.169,5.748,0.173c1.713,0.003,3.423-0.152,5.137-0.167c1.671-0.015,3.343,0.113,4.922,0.708
		c0.836,0.314,1.449,0.904,1.701,1.823c0.201,0.739-0.011,1.328-0.607,1.729c-0.502,0.338-1.055,0.703-1.631,0.813
		c-1.643,0.312-3.309,0.685-4.967,0.694c-3.092,0.02-6.081,0.518-8.98,1.508c-1.598,0.545-3.027,1.436-3.908,2.987
		c-0.983,1.729-0.814,3.53-0.223,5.292c0.973,2.891,2.067,5.74,3.082,8.617c2.266,6.43,4.502,12.872,6.773,19.3
		c1.459,4.126,2.982,8.229,4.419,12.363c0.288,0.83,0.662,1.148,1.545,1.044c2.171-0.254,4.346-0.472,6.524-0.637
		c2.737-0.207,5.479-0.363,8.219-0.507c1.018-0.053,2.041,0.012,3.061-0.012c4.232-0.099,8.447,0.239,12.65,0.654
		c1.855,0.183,3.686,0.671,5.514,1.086c0.311,0.071,0.548,0.47,0.818,0.717c-0.309,0.202-0.6,0.54-0.931,0.585
		c-2.36,0.315-4.731,0.549-7.095,0.854c-2.314,0.297-4.617,0.667-6.932,0.967c-2.416,0.313-4.842,0.551-7.257,0.874
		c-2.565,0.343-5.124,0.734-7.681,1.131c-1.451,0.226-2.895,0.499-4.34,0.765c-0.824,0.152-1.023,0.451-0.883,1.266
		c0.025,0.15,0.076,0.297,0.126,0.441c1.528,4.479,3.052,8.958,4.587,13.434c1.635,4.765,3.246,9.539,4.936,14.286
		c0.936,2.633,1.709,5.326,3.12,7.788c2.373,4.138,5.824,6.788,10.479,7.693c2.334,0.454,4.749,0.481,7.118,0.767
		c1.052,0.127,2.104,0.348,3.113,0.666c0.498,0.158,0.967,0.572,1.321,0.981c0.623,0.721,0.58,1.468-0.187,1.978
		c-0.655,0.435-1.438,0.848-2.196,0.917c-2.278,0.208-4.572,0.245-6.859,0.344c-0.254,0.012-0.511,0-0.766,0.002
		c-6.424,0.068-12.848,0.137-19.271,0.206c-3.061,0.033-6.121,0.053-9.182,0.105c-2.799,0.048-5.599,0.173-8.398,0.186
		c-1.779,0.009-3.563-0.066-5.336-0.215c-1.395-0.118-2.666-0.648-3.656-1.695c-0.658-0.697-0.717-1.376,0.016-1.982
		c0.556-0.461,1.291-0.832,1.998-0.957c1.294-0.228,2.633-0.202,3.943-0.36c2.096-0.252,3.936-0.96,5.047-2.95
		c0.701-1.256,0.785-2.615,0.619-3.956c-0.428-3.441-1.424-6.738-2.659-9.979c-0.863-2.269-1.521-4.615-2.302-6.916
		c-1.027-3.031-2.088-6.051-3.131-9.077c-0.431-1.245-0.844-2.495-1.291-3.734C263.244,193.678,263.031,193.386,262.693,192.773z
		 M246.89,147.905c-0.354,0.583-0.66,0.988-0.864,1.439c-1.236,2.724-2.434,5.463-3.67,8.187c-3.178,6.99-6.368,13.974-9.551,20.961
		c-0.928,2.034-1.871,4.06-2.764,6.108c-0.465,1.063-0.333,1.305,0.699,1.74c0.188,0.08,0.381,0.149,0.572,0.217
		c2.588,0.918,5.189,1.796,7.754,2.776c0.778,0.298,1.408,0.302,2.18-0.001c3.826-1.504,7.666-2.976,11.521-4.402
		c1.761-0.651,3.577-1.152,5.354-1.76c0.992-0.339,1.16-0.674,0.842-1.585c-1.563-4.501-3.145-8.997-4.713-13.498
		c-1.137-3.259-2.258-6.523-3.391-9.782c-1.135-3.261-2.273-6.52-3.422-9.774C247.376,148.36,247.184,148.235,246.89,147.905z"/>
	<path fill-rule="evenodd" clip-rule="evenodd" d="M604.828,180.016c-0.32,3.21-0.462,7.093-1.152,10.877
		c-0.808,4.433-2.051,8.785-3.859,12.955c-1.501,3.462-3.197,6.822-5.271,9.961c-3.438,5.21-7.624,9.758-12.604,13.557
		c-3.99,3.043-8.331,5.467-13.014,7.222c-3.564,1.336-7.238,2.259-11.073,2.632c-3.267,0.318-6.517,0.309-9.767,0.11
		c-2.01-0.124-4.011-0.541-5.989-0.953c-2.786-0.581-5.534-1.313-8.165-2.437c-5.995-2.563-11.423-6.012-16.255-10.389
		c-4.446-4.029-8.138-8.695-11.251-13.804c-1.748-2.868-3.144-5.924-4.402-9.049c-1.874-4.654-3.085-9.47-3.803-14.417
		c-0.254-1.758-0.353-3.54-0.497-5.313c-0.259-3.193-0.132-6.389,0.108-9.571c0.527-6.965,2.281-13.604,5.182-19.982
		c2.018-4.436,4.472-8.559,7.515-12.348c2.849-3.549,6.07-6.73,9.726-9.434c4.184-3.095,8.705-5.634,13.592-7.451
		c4.805-1.786,9.791-2.698,14.925-2.723c2.024-0.01,4.054-0.048,6.071,0.081c1.616,0.103,3.234,0.353,4.822,0.682
		c9.121,1.896,17.189,5.985,24.186,12.079c4.979,4.338,9.157,9.382,12.445,15.166c2.225,3.914,3.982,8.013,5.414,12.253
		c0.662,1.962,1.063,4.019,1.49,6.052c0.438,2.08,0.873,4.172,1.109,6.281C604.584,174.477,604.639,176.925,604.828,180.016z
		 M522.324,176.018c-0.079,0.002-0.16,0.005-0.24,0.008c0.18,3.046,0.301,6.098,0.561,9.137c0.158,1.866,0.488,3.721,0.813,5.569
		c0.429,2.449,0.74,4.94,1.44,7.313c1.005,3.402,2.226,6.749,3.515,10.057c2.575,6.612,6.44,12.33,12.04,16.795
		c2.017,1.607,4.26,2.865,6.69,3.58c4.123,1.211,8.23,0.935,12.164-0.949c3.416-1.638,6.183-4.088,8.581-6.968
		c2.853-3.424,5.009-7.25,6.698-11.384c1.564-3.83,2.738-7.765,3.597-11.789c0.892-4.176,1.412-8.417,1.614-12.688
		c0.201-4.227,0.221-8.453-0.24-12.668c-0.254-2.321-0.381-4.667-0.809-6.956c-0.916-4.896-2.055-9.743-3.883-14.402
		c-1.905-4.86-4.232-9.485-7.584-13.521c-3.258-3.922-6.943-7.229-11.967-8.859c-4.264-1.384-8.356-1.036-12.293,0.803
		c-6.01,2.809-9.986,7.728-13.098,13.411c-1.514,2.763-2.793,5.646-3.749,8.653c-0.752,2.369-1.474,4.752-2.065,7.166
		c-0.482,1.966-0.781,3.981-1.105,5.983c-0.27,1.653-0.568,3.314-0.652,4.982C522.24,171.528,522.324,173.774,522.324,176.018z"/>
	<path fill-rule="evenodd" clip-rule="evenodd" d="M449.325,94.333c-1.669,0.96-2.882,0.903-3.832-0.262
		c-1.926-2.357-4.44-4.037-6.701-6.008c-1.649-1.439-3.329-2.848-4.901-4.369c-1.376-1.332-2.343-2.967-2.605-4.899
		c-0.123-0.924-0.604-1.143-1.414-1.239c-0.848-0.101-1.715-0.277-2.501-0.596c-1.179-0.478-1.989-1.383-2.406-2.614
		c-0.362-1.073-0.369-1.056-1.484-0.768c-2.909,0.752-5.862,1.285-8.86,1.461c-2.543,0.149-5.063-0.152-7.594-0.456
		c-3.11-0.374-6.051-1.313-8.993-2.288c-0.964-0.32-1.917-0.704-2.82-1.169c-1.196-0.616-2.467-0.721-3.722-0.522
		c-1.379,0.218-2.708,0.116-4.086,0.037c-2.041-0.117-4.047-0.349-6.047-0.739c-2.543-0.496-5.104-0.913-7.63-1.484
		c-1.903-0.43-3.804-0.504-5.731-0.416c-0.792,0.037-1.23,0.496-1.421,1.167c-0.241,0.85-0.805,0.984-1.591,1.107
		c-4.4,0.691-8.73,0.041-13.05-0.63c-4.919-0.763-9.813-1.687-14.728-2.469c-2.052-0.327-4.128-0.51-6.199-0.684
		c-2.309-0.194-4.555,0.312-6.805,0.75c-0.395,0.077-0.801,0.176-1.199,0.166c-3.068-0.084-5.756,1.054-8.375,2.491
		c-3.385,1.855-6.525,4.171-10.191,5.484c-1.279,0.459-2.641,0.705-3.979,0.986c-1.104,0.232-2.061,0.541-2.914,1.439
		c-2.543,2.683-5.813,4.213-9.23,5.495c-3.537,1.327-7.205,2.143-10.871,2.951c-1.826,0.402-3.719,0.513-5.582,0.734
		c-1.082,0.129-1.787-0.649-2.578-1.171c-1.878-1.241-3.848-1.259-5.813-0.375c-1.008,0.454-1.96,1.099-2.826,1.794
		c-2.023,1.627-3.98,3.336-5.963,5.014c-0.193,0.165-0.371,0.35-0.57,0.51c-1.738,1.396-3.43,2.75-5.811,3.091
		c-3.172,0.456-5.343,2.559-7.135,5.092c-1.748,2.472-3.124,5.158-4.203,7.958c-1.037,2.697-2.714,4.454-5.443,5.491
		c-3.035,1.154-5.942,2.654-8.902,4.006c-1.99,0.909-4.127,1.225-6.254,1.116c-2.476-0.126-4.927-0.648-7.399-0.878
		c-2.175-0.202-4.368-0.399-6.543-0.312c-4.158,0.167-6.958,2.501-8.892,6.045c-0.338,0.619-0.756,1.205-1.211,1.745
		c-0.203,0.241-0.582,0.45-0.893,0.464c-1.918,0.09-3.07,1.289-3.918,2.786c-1.049,1.855-1.93,3.804-2.91,5.698
		c-1.309,2.531-2.633,5.059-4.751,7.044c-0.361,0.337-0.753,0.64-1.334,1.129c-0.413-0.83-0.83-1.462-1.032-2.156
		c-0.104-0.357,0.035-0.961,0.297-1.221c2.212-2.21,3.455-5.009,4.844-7.727c0.992-1.939,1.814-3.964,3.232-5.682
		c0.969-1.175,2.024-2.146,3.475-2.63c0.957-0.32,1.551-0.941,2.063-1.83c2.008-3.48,4.969-5.716,8.961-6.5
		c2.475-0.486,4.934-0.458,7.421,0c2.044,0.375,4.12,0.663,6.19,0.779c1.959,0.11,3.949,0.091,5.892-0.149
		c1.173-0.145,2.302-0.771,3.415-1.262c2.786-1.228,5.561-2.484,8.32-3.768c0.883-0.41,1.503-1.07,1.943-2.012
		c1.267-2.718,2.568-5.429,4.023-8.049c1.76-3.169,4.093-5.852,7.512-7.334c1.108-0.48,2.318-0.718,3.475-1.092
		c0.563-0.183,1.2-0.308,1.639-0.664c2.534-2.047,5.017-4.157,7.518-6.244c1.887-1.573,3.854-3.061,6.257-3.704
		c2.121-0.569,4.293-0.453,6.168,0.793c1.641,1.092,3.298,1.066,5.092,0.692c1.887-0.395,3.817-0.593,5.685-1.056
		c4.754-1.178,9.412-2.644,13.392-5.644c0.791-0.596,1.428-1.431,2.024-2.239c0.53-0.719,1.098-1.132,2.027-1.029
		c2.488,0.273,4.713-0.669,6.848-1.725c2.322-1.149,4.559-2.483,6.793-3.807c2.51-1.489,5.156-2.62,7.999-3.272
		c0.487-0.112,1.017-0.032,1.523-0.076c0.707-0.06,1.428-0.082,2.112-0.244c2.397-0.567,4.832-0.809,7.273-0.645
		c3.344,0.225,6.691,0.493,10.009,0.943c2.759,0.373,5.475,1.054,8.216,1.565c4.506,0.84,9.035,1.417,13.639,1.154
		c0.768-0.044,1.311-0.271,1.826-0.883c0.848-1.012,1.984-1.449,3.357-1.504c2.984-0.12,5.871,0.474,8.762,1.02
		c2.293,0.432,4.583,0.857,6.885,1.237c2.49,0.412,4.947,0.437,7.434,0.422c0.306-0.002,0.65,0.078,0.91-0.035
		c1.494-0.643,2.748-0.024,4.064,0.601c3.693,1.751,7.584,2.825,11.629,3.475c4.195,0.673,8.313,0.448,12.406-0.52
		c2.221-0.525,4.409-1.184,6.609-1.792c1.165-0.322,1.377-0.174,1.299,1.022c-0.033,0.504-0.129,1.005-0.201,1.507
		c-0.223,1.568,0.35,2.363,1.911,2.465c1.165,0.077,2.339,0.012,3.509,0.007c0.91-0.005,1.245,0.213,1.061,0.977
		c-0.912,3.769,1.35,6.072,3.796,8.234c1.675,1.479,3.565,2.715,5.249,4.187c1.682,1.469,3.252,3.071,4.816,4.668
		C448.564,92.988,448.877,93.657,449.325,94.333z"/>
	<path fill-rule="evenodd" clip-rule="evenodd" d="M357.785,237.711c0.311-0.211,0.352-0.262,0.395-0.265
		c2.393-0.153,2.436-0.461,3.588,2.055c1.992,4.351,3.959,8.717,6.457,12.805c1.458,2.386,2.987,4.747,4.705,6.948
		c3.455,4.427,7.857,7.376,13.459,8.629c2.986,0.668,5.948,0.742,8.939,0.723c4.021-0.025,8.043-0.184,12.064-0.315
		c1.88-0.062,3.758-0.2,5.636-0.296c2.858-0.146,5.536,0.646,8.192,1.571c2.059,0.716,4.113,1.458,6.202,2.081
		c3.859,1.151,7.777,1.274,11.766,0.669c4.335-0.656,8.581-1.643,12.727-3.033c2.083-0.699,3.978-1.796,5.615-3.324
		c2.219-2.069,2.876-4.595,1.964-7.375c-1.036-3.162-1.335-6.387-1.137-9.634c0.189-3.084,0.74-6.147,1.166-9.214
		c0.069-0.494,0.284-0.98,0.5-1.438c0.33-0.697,1.947-1.126,2.541-0.673c0.174,0.132,0.289,0.414,0.32,0.642
		c0.049,0.35,0.053,0.722-0.014,1.067c-0.261,1.342-0.582,2.672-0.83,4.015c-0.193,1.046-0.42,2.105-0.436,3.161
		c-0.037,2.498-0.039,5.001,0.105,7.493c0.069,1.19,0.458,2.371,0.776,3.535c1.188,4.335,0.12,8.181-2.957,11
		c-2.942,2.695-6.525,4.035-10.306,4.969c-2.46,0.608-4.927,1.198-7.408,1.719c-2.181,0.458-4.372,0.863-6.624,0.845
		c-4.069-0.033-7.968-0.942-11.767-2.299c-2.822-1.007-5.6-2.205-8.587-2.575c-1.649-0.204-3.351-0.022-5.026,0.025
		c-0.555,0.015-1.105,0.215-1.66,0.223c-6.16,0.089-12.322,0.206-18.484,0.188c-1.396-0.003-2.797-0.473-4.188-0.763
		c-3.27-0.683-6.262-1.971-9.012-3.903c-2.453-1.726-4.512-3.833-6.217-6.244c-2.081-2.945-4.093-5.961-5.871-9.095
		c-1.824-3.216-3.332-6.61-4.979-9.926c-0.36-0.725-0.765-1.431-1.073-2.177C358.084,238.934,357.955,238.295,357.785,237.711z"/>
	<path fill-rule="evenodd" clip-rule="evenodd" d="M284.764,185.995c1.278-0.195,2.318-0.391,3.366-0.504
		c1.769-0.192,3.544-0.331,5.313-0.496c1.416-0.131,2.828-0.311,4.247-0.391c1.06-0.06,2.132-0.071,3.185,0.031
		c1.667,0.162,3.33,0.399,4.98,0.673c3.387,0.563,5.928,2.417,7.535,5.399c0.992,1.836,2.307,2.808,4.408,3.011
		c1.497,0.145,2.97,0.653,4.428,1.086c4.293,1.275,8.58,2.586,12.52,4.777c2.273,1.264,4.442,2.678,6.043,4.823
		c1.786,2.39,2.359,4.997,1.764,7.912c-0.212,1.041-0.232,2.118-0.38,3.173c-0.159,1.136-0.485,1.297-1.493,0.803
		c-0.229-0.112-0.469-0.202-0.691-0.323c-1.205-0.647-1.303-0.902-0.857-2.185c1.414-4.088,0.52-7.043-2.934-9.672
		c-2.912-2.216-6.225-3.599-9.689-4.683c-2.128-0.666-4.215-1.469-6.355-2.09c-1.453-0.421-2.964-0.641-4.451-0.938
		c-1.47-0.293-2.605-1.104-3.504-2.266c-0.467-0.603-0.963-1.201-1.32-1.868c-1.41-2.623-3.74-3.849-6.545-4.173
		c-2.455-0.285-4.903-0.741-7.421-0.3c-1.692,0.297-3.446,0.209-5.167,0.369c-1.717,0.16-3.428,0.397-5.138,0.633
		c-0.994,0.137-1.165,0.09-1.427-0.81C285.014,187.414,284.932,186.816,284.764,185.995z"/>
	<path fill-rule="evenodd" clip-rule="evenodd" d="M386.484,289.657c-4.01-0.466-7.819-1.483-11.451-3.122
		c-1.382-0.623-2.703-1.389-4.025-2.134c-1.301-0.735-1.788-1.944-1.572-3.357c0.086-0.545,0.511-1.084,0.896-1.525
		c0.533-0.611,0.477-1.034-0.146-1.514c-0.563-0.433-1.09-0.919-1.587-1.428c-1.263-1.294-1.347-2.994-0.269-4.418
		c0.917-1.213,2.154-1.885,3.647-1.885c1.406,0,2.355,0.916,2.993,2.071c0.464,0.84,0.827,1.755,1.096,2.677
		c0.215,0.736,0.607,1.096,1.324,1.287c4.896,1.306,8.703,4.313,12.088,7.917c0.561,0.596,0.918,1.456,1.164,2.255
		c0.395,1.284-0.069,2.212-1.34,2.646C388.407,289.434,387.428,289.489,386.484,289.657z M386.467,285.816
		c-0.484-0.568-0.793-1.039-1.205-1.389c-0.963-0.82-1.954-1.609-2.973-2.359c-1.729-1.271-3.666-2.131-5.712-2.759
		c-0.506-0.154-1.051-0.311-1.401,0.172c-0.578,0.796-1.061,1.662-1.586,2.499C375.469,283.95,383.461,286.424,386.467,285.816z
		 M372.438,275.711c0.606-1.03,0.157-1.57-0.396-2.012c-0.174-0.139-0.636-0.145-0.792-0.009c-0.152,0.128-0.205,0.613-0.08,0.777
		C371.488,274.891,371.927,275.226,372.438,275.711z"/>
	<path fill-rule="evenodd" clip-rule="evenodd" d="M523.293,124.613c-1.053,0.05-2.106,0.092-3.16,0.151
		c-1.954,0.109-3.7-0.583-5.405-1.412c-3.188-1.551-5.874-3.812-8.568-6.071c-1.986-1.667-4.034-3.262-6.106-4.82
		c-0.594-0.447-1.341-0.761-2.066-0.936c-0.602-0.146-1.322-0.142-1.904,0.052c-1.18,0.392-2.307,0.557-3.571,0.398
		c-1.509-0.188-3.058-0.035-4.586-0.078c-3.681-0.104-7.289-0.639-10.78-1.85c-0.335-0.116-0.705-0.216-0.966-0.434
		c-0.2-0.168-0.366-0.516-0.355-0.775c0.057-1.179,1.216-2.018,2.329-1.654c4.053,1.322,8.264,1.617,12.466,1.893
		c1.549,0.102,3.142,0.077,4.667-0.528c1.604-0.636,3.188-0.363,4.723,0.392c1.979,0.976,3.698,2.314,5.395,3.705
		c2.987,2.45,5.742,5.209,9.131,7.133c1.14,0.646,2.369,1.177,3.615,1.574c0.735,0.234,1.606,0.229,2.381,0.108
		c1.82-0.283,3.438,0.165,4.938,1.133c0.644,0.415,0.669,0.94,0.054,1.313c-0.671,0.407-1.417,0.689-2.132,1.026
		C523.357,124.827,523.326,124.72,523.293,124.613z"/>
	<path fill-rule="evenodd" clip-rule="evenodd" d="M177.859,225.143c-1.003,0.341-1.949,0.671-2.903,0.975
		c-0.121,0.039-0.285-0.06-0.632-0.144c-0.414-1.845-0.863-3.756-1.268-5.678c-0.387-1.827-1.209-3.438-2.336-4.9
		c-1.188-1.541-1.141-2.234,0.326-3.558c0.108-0.098,0.264-0.144,0.474-0.254c1.812,1.738,3.29,3.703,4.04,6.146
		c0.313,1.017,0.574,2.054,0.777,3.098c0.163,0.841,0.588,1.185,1.443,1.239c2.307,0.146,3.211,0.976,3.672,3.258
		c0.176,0.873,0.315,1.752,0.473,2.629c0.844-0.016,1.042-0.616,1.363-1.026c1.347-1.718,2.521-3.589,4.359-4.865
		c1.307-0.908,2.689-1.421,4.263-0.703c0.548,0.25,1.19,0.457,1.198,1.222c0.004,0.559-1.148,1.869-1.695,1.771
		c-1.991-0.356-2.994,0.918-3.947,2.264c-0.932,1.317-2.434,1.607-3.768,2.182c-1.022,0.439-2.112,0.722-3.174,1.071
		c-1.328,0.436-1.75,0.121-1.842-1.274c-0.059-0.905-0.176-1.811-0.334-2.705C178.303,225.624,178.032,225.397,177.859,225.143z"/>
	<path fill-rule="evenodd" clip-rule="evenodd" d="M223.051,209.938c0.255,1.333,0.507,2.623,0.749,3.916
		c0.183,0.98-0.132,1.794-0.857,2.459c-1.169,1.071-1.692,1.037-2.725-0.156c-0.235-0.269-0.492-0.519-0.743-0.771
		c-0.496-0.499-0.537-1.025-0.232-1.667c1.003-2.106,1.95-4.239,2.957-6.344c0.191-0.402,0.502-0.774,0.83-1.079
		c2.258-2.086,3.709-4.695,4.912-7.47c0.101-0.233,0.213-0.462,0.316-0.694c0.748-1.646,1.123-1.719,2.507-0.627
		c0.616,0.485,0.573,0.984,0.323,1.613c-1.637,4.115-3.618,7.974-7.545,10.43C223.414,209.628,223.303,209.736,223.051,209.938z"/>
	<path fill-rule="evenodd" clip-rule="evenodd" d="M491.727,213.596c0.253-0.337,0.529-0.994,1.021-1.312
		c2.389-1.536,4.835-2.982,7.262-4.456c0.217-0.132,0.44-0.259,0.675-0.354c1.264-0.514,2.624,0.356,2.661,1.709
		c0.02,0.708-0.546,0.887-1.057,1.136c-1.18,0.576-2.496,1-3.485,1.815c-1.558,1.282-3.591,1.772-5.011,3.229
		c-0.206,0.211-0.506,0.345-0.785,0.464c-0.47,0.201-0.819-0.008-0.951-0.457C491.914,214.888,491.865,214.376,491.727,213.596z"/>
	<path fill-rule="evenodd" clip-rule="evenodd" d="M530.945,206.589c0.826-0.229,1.551-0.467,2.293-0.628
		c3.512-0.763,5.975-2.95,7.869-5.857c1.582-2.429,3.076-4.915,4.621-7.368c2-3.174,4.488-5.779,8.189-6.946
		c1.698-0.535,3.408-1.001,5.211-1.001c1.475,0,2.951-0.056,4.426-0.043c4.192,0.038,8.26,0.936,12.33,1.821
		c0.533,0.116,1.039,0.283,1.111,0.873c0.092,0.747,0.242,1.583-0.39,2.156c-0.229,0.208-0.763,0.189-1.13,0.122
		c-3.289-0.594-6.55-1.453-9.863-1.773c-3.326-0.32-6.735-0.368-10.006,0.599c-2.219,0.656-4.283,1.719-5.65,3.681
		c-1.506,2.164-2.893,4.411-4.314,6.632c-1.481,2.313-2.929,4.658-4.941,6.561c-2.274,2.151-5.053,3.331-8.085,3.994
		c-0.55,0.12-0.896-0.067-1.185-0.45C530.918,208.289,530.632,207.553,530.945,206.589z"/>
	<path fill-rule="evenodd" clip-rule="evenodd" d="M535.397,139.178c0.248-1.815,0.933-2.405,2.521-2.493
		c1.846-0.102,3.596-0.646,5.229-1.499c1.16-0.606,1.548-1.623,1.307-2.953c-0.09-0.491-0.139-0.99-0.213-1.536
		c0.849-0.503,1.592-1.022,2.623-0.712c1.04,1.875,1.118,3.81,0.109,5.671c-0.886,1.637-2.475,2.52-4.188,3.086
		c-1.395,0.461-2.834,0.795-4.264,1.139C537.406,140.149,536.445,139.642,535.397,139.178z"/>
</g>
</svg>
