<?xml version="1.0" encoding="utf-8"?>
<!-- Generator: Adobe Illustrator 16.0.0, SVG Export Plug-In . SVG Version: 6.00 Build 0)  -->
<!DOCTYPE svg PUBLIC "-//W3C//DTD SVG 1.1//EN" "http://www.w3.org/Graphics/SVG/1.1/DTD/svg11.dtd">
<svg version="1.1" id="Capa_1" xmlns="http://www.w3.org/2000/svg" xmlns:xlink="http://www.w3.org/1999/xlink" x="0px" y="0px"
	 width="454.313px" height="441.552px" viewBox="0 0 454.313 441.552" enable-background="new 0 0 454.313 441.552"
	 xml:space="preserve">
<g>
	<g>
		<g>
			<g>
				<path fill="#211915" d="M355.778,194.3c-4.185-6.509-4.732-12.368-2.138-19.474c9.252-25.363,16.188-51.161,17.515-77.982
					c1.424-28.666-12.14-48.969-41.956-60.673c-3.032-1.19-6.095-2.349-9.208-3.376c-33.002-10.9-67.477-12.525-100.7-12.736
					c-31.728,1.098-61.756,3.23-90.344,12.981c-13.597,4.636-26.081,10.862-35.884,20.644
					c-13.945,13.913-15.047,30.829-14.011,48.087c1.518,25.383,8.579,49.81,17.45,73.841c2.388,6.467,1.86,11.852-1.946,17.812
					c-11.903,18.648-19.832,38.564-19.999,60.176c-0.276,35.642,13.076,65.553,39.271,89.758V209.332l114.637-52.915l111.774,53.839
					l-2.343,131.421C376.748,303.758,389.669,246.943,355.778,194.3z M318.037,110.625c-2.738,11.065-7.945,21.118-17.833,28.89
					c-3.56,2.795-6.947,3.259-11.472,1.524c-42.522-16.315-85.151-16.287-127.662,0.011c-4.576,1.753-7.851,1.105-11.483-1.541
					c-14.156-10.316-23.414-37.093-18.317-52.751c11.671-29.02,93.831-25.694,93.9-26.414c25.607,0.978,42.012,3.274,62.463,7.171
					C316.845,73.083,324.391,84.92,318.037,110.625z"/>
			</g>
			<g>
				<path fill="#211915" d="M332.256,213.08l-21.886,10.335l-70.718-34.096l-17.512,8.498l47.853,23.631l-22.96,10.431
					l-47.653-23.272l-17.383,8.177l68.956,34.538l-23.037,10.777l-105.581-49.038l106.325-49.635L332.256,213.08z"/>
				<g>
					<polygon fill="#211915" points="332.753,220.311 310.435,230.767 296.326,275.274 281.759,243.211 264.611,251.76 
						264.781,252.155 264.776,252.155 286.352,304.183 264.233,380.077 286.333,368.938 298.05,328.06 310.727,356.984 
						329.345,347.945 306.824,298.38 					"/>
					<path fill="#211915" d="M120.711,349.015l58.074,27.312l0.244-47.514l-7.043-19.392l7.209-12.608l0.241-47.045l-58.07-27.883
						L120.711,349.015z M137.513,250.589l26.563,12.488l-0.165,31.645l-26.562-12.489L137.513,250.589z M137.241,303.089
						l26.562,12.49l-0.161,31.644l-26.562-12.488L137.241,303.089z"/>
					<path fill="#211915" d="M191.215,255.424l-0.652,126.439l33.393,15.812l3.489-1.586v0.091l30.18-13.892V255.507l-33.529,15.708
						L191.215,255.424z M241.291,368.194l-17.334,7.418l-3.424-1.615v-0.024l-13.601-6.392l0.423-81.959l0,0l16.742,8.198
						l17.115-9.209L241.291,368.194z"/>
				</g>
			</g>
		</g>
	</g>
</g>
</svg>
