<?xml version="1.0" encoding="utf-8"?>
<!-- Generator: Adobe Illustrator 16.0.0, SVG Export Plug-In . SVG Version: 6.00 Build 0)  -->
<!DOCTYPE svg PUBLIC "-//W3C//DTD SVG 1.1//EN" "http://www.w3.org/Graphics/SVG/1.1/DTD/svg11.dtd">
<svg version="1.1" id="Capa_1" xmlns="http://www.w3.org/2000/svg" xmlns:xlink="http://www.w3.org/1999/xlink" x="0px" y="0px"
	 width="789.057px" height="325.523px" viewBox="0 0 789.057 325.523" enable-background="new 0 0 789.057 325.523"
	 xml:space="preserve">
<g>
	<path fill="#CB6120" d="M317.726,104.931c14.846,0,22.965,5.424,22.965,19.559c0,8.389-2.273,12.617-8.119,16.316
		c6.273,2.731,9.525,7.293,9.525,16.852c0,14.79-9.203,21.215-23.939,21.215h-29.359v-73.941H317.726z M303.757,117.759v17.608
		h13.318c5.846,0,8.449-3.045,8.449-8.901c0-6.088-2.914-8.707-8.555-8.707H303.757z M303.757,147.992v18.036h13.646
		c6.178,0,9.533-1.846,9.533-9.133c0-6.083-3.574-8.903-9.533-8.903H303.757z"/>
	<polygon fill="#CB6120" points="357.489,104.931 405.163,104.931 405.163,117.973 372.431,117.973 372.431,135.258 
		398.653,135.258 398.653,148.099 372.431,148.099 372.431,165.829 405.163,165.829 405.163,178.872 357.489,178.872 	"/>
	<path fill="#CB6120" d="M435.159,154.078v24.794h-14.941v-73.941h28.588c16.793,0,26.016,7.494,26.016,24.359
		c0,10.199-4.135,17.063-10.848,21.31l10.504,28.272H458.14l-8.572-24.794H435.159z M448.806,117.759h-13.646v23.492h13.873
		c7.469,0,10.514-5.224,10.514-11.757C459.546,122.425,455.962,117.759,448.806,117.759"/>
	<rect x="490.091" y="104.931" fill="#CB6120" width="14.947" height="73.941"/>
	<path fill="#CB6120" d="M567.966,118.409c0,0-15.273-1.739-21.541-1.739c-8.031,0-11.824,2.929-11.824,7.819
		c0,4.678,2.938,6.321,15.297,10.229c15.908,5.104,20.791,9.569,20.791,21.864c0,16.092-10.949,23.595-25.461,23.595
		c-10.08,0-24.598-3.378-24.598-3.378l1.521-11.633c0,0,14.521,1.965,22.211,1.965c8.008,0,11.48-3.811,11.48-9.574
		c0-4.568-2.596-6.624-13.213-9.674c-16.578-4.8-22.861-10.44-22.861-22.298c0-15.337,10.186-21.972,25.137-21.972
		c9.854,0,24.262,2.943,24.262,2.943L567.966,118.409z"/>
	<path fill="#CB6120" d="M629.622,118.409c0,0-15.264-1.739-21.559-1.739c-8.014,0-11.818,2.929-11.818,7.819
		c0,4.678,2.934,6.321,15.285,10.229c15.916,5.104,20.793,9.569,20.793,21.864c0,16.092-10.941,23.595-25.453,23.595
		c-10.066,0-24.59-3.378-24.59-3.378l1.502-11.633c0,0,14.518,1.965,22.207,1.965c8.031,0,11.492-3.811,11.492-9.574
		c0-4.568-2.605-6.624-13.219-9.674c-16.561-4.8-22.848-10.44-22.848-22.298c0-15.337,10.184-21.972,25.129-21.972
		c9.854,0,24.262,2.943,24.262,2.943L629.622,118.409z"/>
	<path fill="#CB6120" d="M643.81,142.326c0-25.009,7.377-38.713,30.543-38.713c23.186,0,30.561,13.704,30.561,38.713
		c0,25.019-7.375,37.851-30.561,37.851C651.187,180.177,643.81,167.345,643.81,142.326 M689.524,142.326
		c0-17.075-3.041-25.656-15.172-25.656c-12.133,0-15.162,8.581-15.162,25.656s3.029,24.805,15.162,24.805
		C686.483,167.131,689.524,159.401,689.524,142.326"/>
	<g>
		<polygon fill="#CB6120" points="289.624,198.687 297.644,198.687 308.935,232.509 320.216,198.687 328.216,198.687 
			328.216,238.707 323.792,238.707 323.792,203.422 322.987,203.422 311.401,237.263 306.45,237.263 294.87,203.422 294.06,203.422 
			294.06,238.707 289.624,238.707 		"/>
		<path fill="#CB6120" d="M366.495,209.794v28.913h-4.324v-2.025c0,0-4.314,2.605-8.533,2.605c-8.051,0-9.734-3.759-9.734-14.396
			v-15.098h4.314v15.03c0,7.982,0.707,10.596,6.064,10.596c4.273,0,7.889-2.149,7.889-2.149v-23.477H366.495z"/>
		<path fill="#CB6120" d="M381.714,238.707v-28.913h4.258v2.019c0,0,4.668-2.596,8.939-2.596c7.947,0,9.74,3.923,9.74,14.224v15.267
			h-4.266v-15.148c0-7.641-0.873-10.472-6.234-10.472c-4.137,0-8.113,2.14-8.113,2.14v23.48H381.714z"/>
		<path fill="#CB6120" d="M419.573,198.232h4.32v5.032h-4.32V198.232z M419.573,209.794h4.32v28.913h-4.32V209.794z"/>
		<path fill="#CB6120" d="M457.722,210.079l-0.17,3.531c0,0-4.605-0.523-6.809-0.523c-6.611,0-8.4,2.891-8.4,10.65
			c0,8.551,1.318,11.683,8.463,11.683c2.189,0,6.797-0.53,6.797-0.53l0.188,3.585c0,0-5.363,0.813-8.018,0.813
			c-9.148,0-11.857-4.218-11.857-15.55c0-10.477,3.383-14.521,11.975-14.521C452.528,209.217,457.722,210.079,457.722,210.079"/>
		<path fill="#CB6120" d="M471.155,198.232h4.32v5.032h-4.32V198.232z M471.155,209.794h4.32v28.913h-4.32V209.794z"/>
		<path fill="#CB6120" d="M490.692,209.794h4.266v2.089c0,0,4.373-2.666,8.637-2.666c7.256,0,10.439,4.453,10.439,14.684
			c0,11.34-3.697,15.387-12.574,15.387c-2.711,0-5.641-0.454-6.441-0.63v12.888h-4.326V209.794z M495.019,215.397v19.492
			c0.74,0.12,3.73,0.639,6.207,0.639c6.346,0,8.418-3.299,8.418-11.628c0-7.923-2.479-10.813-6.688-10.813
			C499.044,213.087,495.019,215.397,495.019,215.397"/>
		<path fill="#CB6120" d="M548.317,233.329c0.111,1.681,1.5,2.322,3.346,2.541l-0.174,3.417c-3.061,0-5.139-0.58-6.867-2.316
			c0,0-5.178,2.316-10.367,2.316c-5.24,0-8.125-3.005-8.125-8.846c0-5.55,2.885-7.981,8.814-8.571l9.051-0.854v-2.487
			c0-4.061-1.732-5.501-5.189-5.501c-4.023,0-10.891,0.755-10.891,0.755l-0.168-3.295c0,0,6.346-1.271,11.293-1.271
			c6.51,0,9.277,3.011,9.277,9.312V233.329z M535.472,225.115c-3.518,0.353-4.902,2.024-4.902,5.201c0,3.355,1.43,5.335,4.375,5.335
			c4.273,0,9.051-1.807,9.051-1.807v-9.541L535.472,225.115z"/>
		<rect x="564.11" y="197.18" fill="#CB6120" width="4.318" height="41.527"/>
		<path fill="#CB6120" d="M583.997,198.232h4.318v5.032h-4.318V198.232z M583.997,209.794h4.318v28.913h-4.318V209.794z"/>
		<path fill="#CB6120" d="M625.657,238.707h-4.27v-1.966c0,0-4.443,2.546-8.746,2.546c-5.656,0-10.379-2.316-10.379-14.818
			c0-10.161,3.277-15.252,12.035-15.252c2.484,0,6.234,0.577,7.09,0.741V197.18h4.27V238.707z M621.388,233.271V213.67
			c-0.92-0.174-4.494-0.695-6.85-0.695c-6.047,0-7.848,3.991-7.848,11.494c0,9.376,3.061,10.951,6.453,10.951
			C617.233,235.42,621.388,233.271,621.388,233.271"/>
		<path fill="#CB6120" d="M661.274,233.329c0.104,1.681,1.498,2.322,3.332,2.541l-0.162,3.417c-3.066,0-5.133-0.58-6.867-2.316
			c0,0-5.195,2.316-10.367,2.316c-5.252,0-8.135-3.005-8.135-8.846c0-5.55,2.883-7.981,8.822-8.571l9.053-0.854v-2.487
			c0-4.061-1.734-5.501-5.189-5.501c-4.029,0-10.893,0.755-10.893,0.755l-0.182-3.295c0,0,6.344-1.271,11.307-1.271
			c6.508,0,9.281,3.011,9.281,9.312V233.329z M648.425,225.115c-3.523,0.353-4.906,2.024-4.906,5.201
			c0,3.355,1.445,5.335,4.379,5.335c4.258,0,9.053-1.807,9.053-1.807v-9.541L648.425,225.115z"/>
		<path fill="#CB6120" d="M698.853,238.707h-4.273v-1.966c0,0-4.445,2.546-8.758,2.546c-5.65,0-10.379-2.316-10.379-14.818
			c0-10.161,3.291-15.252,12.045-15.252c2.479,0,6.23,0.577,7.092,0.741V197.18h4.273V238.707z M694.579,233.271V213.67
			c-0.922-0.174-4.5-0.695-6.861-0.695c-6.053,0-7.824,3.991-7.824,11.494c0,9.376,3.043,10.951,6.441,10.951
			C690.423,235.42,694.579,233.271,694.579,233.271"/>
	</g>
	<path fill="#CB6120" d="M243.231,199.537"/>
	<g>
		<polygon fill="#CB6120" points="73.05,83.11 73.05,83.145 73.05,90.408 73.05,167.322 73.05,168.702 73.05,171.232 73.05,171.596 
			73.05,252.2 73.05,263.518 73.05,263.585 73.05,267.716 90.085,267.716 94.337,75.442 73.05,75.442 		"/>
		<path fill="#CB6120" d="M228.452,210.773h-89.717l-0.227-8.558h89.398c-0.066-0.377-0.121-0.794-0.193-1.166
			c-0.322-2.076-0.762-4.066-1.322-5.948h-88.051l-0.238-8.542h84.727c-0.977-1.73-2.082-3.358-3.324-4.873
			c-5.596-6.822-12.941-11.472-22.016-13.925c3.529-2.666,6.559-6.134,9.143-10.449c4.313-7.239,6.424-15.481,6.424-25.237
			c0-0.035,0-0.058,0-0.08c0-0.048,0-0.092,0-0.132c0-19.061-5.748-32.736-17.605-41.83c-11.221-8.614-28.787-13.491-52.309-14.546
			c-1.504-0.012-3.006-0.045-4.541-0.045c-0.549,0-1.121,0.033-1.684,0.033v-0.033h-19.164l4.258,192.273h4.354
			c1.225,0.011,2.434,0.031,3.602,0.031h0.023h0.039c23.693,0,42.813-2.168,57.342-6.498c14.527-4.35,25.053-10.65,31.525-18.93
			c0.039-0.075,0.105-0.14,0.139-0.207h-0.395h-79.08l-0.225-8.553h84.506h0.355c1.021-2.271,1.879-4.626,2.551-7.127h-0.303
			h-87.303l-0.219-8.537h89.152h0.203c0.209-2.045,0.307-4.15,0.307-6.307c0-0.277,0-0.526,0-0.815H228.452z"/>
	</g>
</g>
</svg>
