<?xml version="1.0" encoding="utf-8"?>
<!-- Generator: Adobe Illustrator 16.0.0, SVG Export Plug-In . SVG Version: 6.00 Build 0)  -->
<!DOCTYPE svg PUBLIC "-//W3C//DTD SVG 1.1//EN" "http://www.w3.org/Graphics/SVG/1.1/DTD/svg11.dtd">
<svg version="1.1" id="Capa_1" xmlns="http://www.w3.org/2000/svg" xmlns:xlink="http://www.w3.org/1999/xlink" x="0px" y="0px"
	 width="566.348px" height="482.389px" viewBox="0 0 566.348 482.389" enable-background="new 0 0 566.348 482.389"
	 xml:space="preserve">
<g>
	<g>
		<circle fill="#211915" cx="277.844" cy="240.222" r="191.061"/>
		<path fill="#211915" d="M277.844,432.18C172,432.18,85.887,346.067,85.887,240.222c0-105.846,86.113-191.957,191.957-191.957
			c105.846,0,191.957,86.111,191.957,191.957C469.801,346.067,383.689,432.18,277.844,432.18z M277.844,50.058
			c-104.855,0-190.164,85.307-190.164,190.164c0,104.857,85.309,190.165,190.164,190.165c104.857,0,190.164-85.308,190.164-190.165
			C468.008,135.365,382.701,50.058,277.844,50.058z"/>
	</g>
	<g>
		<path fill-rule="evenodd" clip-rule="evenodd" fill="#211915" d="M423.688,240.425c0,80.316-65.107,145.425-145.422,145.425
			c-80.32,0-145.428-65.109-145.428-145.425c0-80.315,65.107-145.424,145.428-145.424
			C358.58,95.001,423.688,160.109,423.688,240.425z"/>
		<path fill="#FFFFFF" d="M278.266,388.54c-81.674,0-148.117-66.443-148.117-148.115c0-81.67,66.443-148.115,148.117-148.115
			c81.668,0,148.111,66.445,148.111,148.115C426.377,322.096,359.934,388.54,278.266,388.54z M278.266,97.69
			c-78.707,0-142.738,64.03-142.738,142.734s64.031,142.736,142.738,142.736c78.701,0,142.732-64.031,142.732-142.736
			S356.967,97.69,278.266,97.69z"/>
	</g>
	<g>
		<polygon fill="#211915" points="83.66,323.289 41.927,333.538 75.606,363.025 69.749,394.307 143.205,374.269 118.803,315.823 		
			"/>
		<path fill="#211915" d="M68.604,395.548l6.028-32.185l-34.59-30.285l43.404-10.66l35.898-7.628l25.082,60.075L68.604,395.548z
			 M43.813,333.999l32.768,28.688l-5.688,30.378l71.091-19.393l-23.723-56.818l-34.414,7.313L43.813,333.999z"/>
	</g>
	<g>
		<polygon fill="#211915" points="468.568,323.289 510.301,333.538 476.621,363.025 482.479,394.307 409.021,374.269 
			433.426,315.823 		"/>
		<path fill="#211915" d="M483.623,395.548l-75.822-20.683l25.082-60.075l35.873,7.621l43.43,10.667l-34.588,30.285L483.623,395.548
			z M410.242,373.672l71.092,19.393l-5.688-30.378l32.77-28.688l-40.063-9.84l-34.389-7.305L410.242,373.672z"/>
	</g>
	<g>
		<defs>
			<circle id="SVGID_3_" cx="276.935" cy="241.979" r="145.425"/>
		</defs>
		<clipPath id="SVGID_2_">
			<use xlink:href="#SVGID_3_"  overflow="visible"/>
		</clipPath>
		<g clip-path="url(#SVGID_2_)">
			<path fill="#717175" d="M459.604,201.766c-122.221-36.855-252.021-36.855-374.24,0c-6.697-23.926-13.392-47.85-20.089-71.774
				c135.341-40.813,279.078-40.813,414.419,0C472.994,153.916,466.299,177.84,459.604,201.766z"/>
			<path fill="#717175" d="M459.604,201.766c-122.221-36.855-252.021-36.855-374.24,0c-6.697-23.926-13.392-47.85-20.089-71.774
				c135.341-40.813,279.078-40.813,414.419,0C472.994,153.916,466.299,177.84,459.604,201.766z"/>
		</g>
		<g clip-path="url(#SVGID_2_)">
			<path fill="#434142" d="M459.604,247.943c-122.221-36.855-252.021-36.855-374.24,0c-6.697-23.924-13.392-47.848-20.089-71.774
				c135.341-40.813,279.078-40.813,414.419,0C472.994,200.095,466.299,224.019,459.604,247.943z"/>
			<path fill="#434142" d="M459.604,247.943c-122.221-36.855-252.021-36.855-374.24,0c-6.697-23.924-13.392-47.848-20.089-71.774
				c135.341-40.813,279.078-40.813,414.419,0C472.994,200.095,466.299,224.019,459.604,247.943z"/>
		</g>
		<g clip-path="url(#SVGID_2_)">
			<path fill="#211915" d="M459.604,304.151c-122.221-36.855-252.021-36.855-374.24,0c-6.697-23.926-13.392-47.85-20.089-71.775
				c135.341-40.813,279.078-40.813,414.419,0C472.994,256.301,466.299,280.225,459.604,304.151z"/>
			<path fill="#211915" d="M459.604,304.151c-122.221-36.855-252.021-36.855-374.24,0c-6.697-23.926-13.392-47.85-20.089-71.775
				c135.341-40.813,279.078-40.813,414.419,0C472.994,256.301,466.299,280.225,459.604,304.151z"/>
		</g>
	</g>
	<g>
		<path fill="#FFFFFF" d="M278.988,339.25c-4.258,0-7.705,3.447-7.705,7.703c0,4.252,3.447,7.703,7.705,7.703
			c4.25,0,7.701-3.451,7.701-7.703C286.689,342.698,283.238,339.25,278.988,339.25z"/>
		<g>
			<path fill="#FFFFFF" d="M171.186,189.514l3.396-6.193c-0.561,0.586-1.119,1.191-1.654,1.85c0.043-0.088,0.086-0.177,0.125-0.262
				c1.232-2.443,2.172-4.349,2.902-5.592c0.09-0.159,0.17-0.313,0.254-0.451c2.119-2.473,4.621-5.092,7.221-7.602
				c4.508-4.403,9.299-8.455,12.527-11.896c3.195-3.468,6.453-8.468,9.25-12.576c0.703-1.013,1.354-1.987,1.941-2.877
				c0.309-0.468,2.521-2.941,2.521-4.382l-2.662,0.867c-0.625,0.197-1.299,0.41-2.045,0.693c-1.01,0.385-2.141,0.835-3.332,1.339
				c-1.205,0.496-2.416,1.129-3.682,1.772c-1.279,0.637-2.514,1.394-3.742,2.181c-0.611,0.394-1.227,0.794-1.818,1.212
				c-0.578,0.432-1.145,0.869-1.695,1.316c-1.102,0.891-2.139,1.803-3.004,2.776c-3.568,3.801-7.053,9.797-9.654,15.894
				c-1.529,3.514-2.766,7.048-3.803,10.208c-0.049,0.08-0.096,0.161-0.146,0.25c-0.682,1.141-1.582,2.888-2.746,5.138
				c-0.148,0.299-0.303,0.607-0.459,0.924c0.316-1.387,0.58-2.741,0.801-4.057l-3.078,8.742L171.186,189.514z"/>
			<path fill="#FFFFFF" d="M389.086,186.896l-3.393-6.193c0.559,0.587,1.117,1.192,1.652,1.85c-0.043-0.087-0.086-0.177-0.125-0.261
				c-1.232-2.442-2.172-4.348-2.904-5.593c-0.088-0.16-0.172-0.312-0.252-0.452c-2.121-2.471-4.621-5.09-7.221-7.601
				c-4.508-4.402-9.297-8.455-12.527-11.897c-3.197-3.465-6.453-8.466-9.248-12.574c-0.705-1.013-1.357-1.987-1.943-2.877
				c-0.311-0.468-2.521-2.942-2.521-4.382l2.662,0.868c0.623,0.197,1.301,0.409,2.045,0.692c1.014,0.385,2.139,0.836,3.332,1.338
				c1.203,0.497,2.414,1.13,3.68,1.772c1.277,0.638,2.514,1.396,3.744,2.18c0.611,0.395,1.227,0.794,1.818,1.214
				c0.576,0.43,1.143,0.869,1.695,1.315c1.102,0.89,2.139,1.803,3.004,2.775c3.566,3.8,7.053,9.797,9.654,15.893
				c1.525,3.515,2.764,7.049,3.803,10.209c0.051,0.08,0.096,0.16,0.146,0.249c0.682,1.143,1.582,2.888,2.746,5.139
				c0.15,0.3,0.301,0.606,0.457,0.922c-0.316-1.388-0.576-2.742-0.799-4.056l3.076,8.742L389.086,186.896z"/>
			<g>
				<path fill="#FFFFFF" d="M268.33,347.155c-0.002-0.068-0.01-0.133-0.01-0.201c0-1.447,0.289-2.824,0.813-4.084
					c-0.68-0.137-1.35-0.271-2.041-0.413c-2.463-0.513-4.971-1.062-7.506-1.656c-0.596-0.467-1.225-0.964-1.879-1.484
					c-2.967-2.345-6.4-5.109-9.824-7.06c-6.875-3.827-15.051-8.219-21.654-12.082c0.117,0.599,0.494,1.888,1.313,3.497
					c0.406,0.815,0.906,1.729,1.518,2.712c0.621,0.959,1.363,1.969,2.219,3.021c0.883,1.071,1.908,2.157,3.074,3.21
					c-2.039-0.909-4.07-1.874-6.092-2.914c-0.932-0.483-1.859-0.986-2.783-1.496c-0.51-0.691-1.041-1.436-1.586-2.231
					c-2.139-3.079-4.498-6.714-7.117-9.601c-2.611-2.916-5.566-6.021-8.469-9.15c-2.857-3.15-5.717-6.301-8.287-9.133
					c-0.158,1.199-0.051,5.289,1.898,10.35c0.508,1.24,1.107,2.559,1.84,3.895c0.109,0.189,0.23,0.38,0.342,0.572
					c-2.492-2.255-4.896-4.63-7.201-7.115c-0.299-0.902-0.6-1.893-0.91-2.938c-1.051-3.608-2.195-7.769-3.742-11.359
					c-3.246-7.114-7.166-15.589-10.197-22.597c-0.266,0.548-0.684,1.793-1.037,3.597c-0.154,0.89-0.285,1.918-0.371,3.068
					c-0.041,0.574-0.072,1.178-0.084,1.809c0.002,0.623,0.023,1.271,0.059,1.944c0.076,1.347,0.215,2.796,0.527,4.272
					c0.074,0.394,0.162,0.792,0.254,1.191c-0.43-0.743-0.85-1.49-1.262-2.245c-1.238-2.27-2.389-4.585-3.469-6.926
					c-0.002-0.256-0.008-0.509-0.01-0.78c0-0.831,0.051-1.738,0.072-2.67c0.07-3.73,0.395-8.077-0.01-11.949
					c-0.396-3.889-0.867-8.153-1.355-12.391c-0.475-4.238-0.826-8.471-1.225-12.273c-0.453,0.44-1.201,1.488-2.09,3.09
					c-0.914,1.603-1.795,3.745-2.553,6.359c-0.336,1.3-0.617,2.713-0.836,4.222c-0.072,0.569-0.121,1.152-0.16,1.741
					c-0.729-3.469-1.291-6.944-1.682-10.398c0.35-1.085,0.797-2.299,1.24-3.584c0.648-1.757,1.377-3.653,2.023-5.575
					c0.715-1.925,1.26-3.879,1.727-5.793c0.791-3.793,1.67-8.001,2.553-12.211c0.846-4.183,1.834-8.313,2.623-12.048
					c-1.063,0.567-4.338,3.021-7.334,7.542c-0.729,1.133-1.424,2.39-2.096,3.758c-0.338,0.683-0.637,1.397-0.914,2.139
					c0.381-3.642,0.926-7.189,1.613-10.625c0.709-1.006,1.6-2.128,2.514-3.34c1.15-1.47,2.449-3.041,3.652-4.667
					c1.277-1.605,2.4-3.292,3.439-4.957c3.936-6.756,8.553-14.869,12.531-21.389c-0.611,0.095-1.887,0.459-3.52,1.243
					c-0.822,0.386-1.75,0.867-2.748,1.457c-0.963,0.606-1.994,1.324-3.064,2.154c-1.711,1.361-3.473,3.062-5.086,5.111
					c1.451-3.287,2.992-6.343,4.568-9.18l-2.332-0.953c-1.568,2.787-3.107,5.778-4.563,8.99c0.467-2.585,0.768-5.05,0.963-7.333
					c0.135-1.412,0.207-2.754,0.232-3.996c0.061-1.223,0.08-2.346,0.064-3.34c-0.045-1.994-0.156-3.426-0.285-4.068
					c-4.977,7.452-9.195,17.813-10.473,26.549c-0.381,2.168-0.361,4.471-0.279,6.662c0.154,2.214,0.434,4.342,0.785,6.265
					c0.311,1.581,0.59,2.992,0.842,4.223c-0.719,3.492-1.295,7.102-1.715,10.803c-0.355-2.379-0.816-4.615-1.309-6.676
					c-1.297-5.518-2.887-9.68-3.576-10.83c-1.107,4.336-2,9.266-2.26,14.229c-0.266,4.957-0.102,9.911,0.662,14.254
					c0.314,2.173,1.047,4.352,1.811,6.408c0.826,2.055,1.766,3.99,2.686,5.709c0.689,1.219,1.326,2.352,1.898,3.356
					c0.381,3.545,0.932,7.111,1.648,10.677c-0.99-1.948-2.021-3.765-3.033-5.421c-2.934-4.848-5.746-8.307-6.752-9.185
					c0.285,4.463,0.975,9.421,2.25,14.224c1.279,4.8,3.004,9.455,5.053,13.364c2.063,3.912,5.211,7.446,8.08,10.106
					c0.719,0.67,1.377,1.304,2.025,1.875c0.186,0.158,0.354,0.31,0.525,0.461c1.066,2.352,2.219,4.672,3.408,6.977
					c0.449,0.821,0.904,1.641,1.363,2.458c-0.256-0.252-0.516-0.517-0.771-0.761c-1.162-1.064-2.264-2.078-3.35-2.994
					c-0.545-0.459-1.082-0.896-1.611-1.309c-0.516-0.419-1.016-0.821-1.5-1.197c-0.975-0.752-1.896-1.409-2.727-1.968
					c-1.598-1.141-2.854-1.87-3.465-2.132c3.221,8.367,9.199,17.814,15.598,23.903c3.133,3.106,7.313,5.406,10.826,7.069
					c1.002,0.471,1.951,0.889,2.826,1.27c0.941,1.033,1.895,2.055,2.867,3.055c1.436,1.48,2.916,2.91,4.422,4.302
					c-0.148-0.071-0.303-0.144-0.455-0.213c-1.412-0.677-2.783-1.281-4.117-1.798c-5.25-2.141-9.57-3.25-10.898-3.36
					c2.873,3.433,6.414,6.976,10.273,10.099c3.875,3.108,8.064,5.777,12.014,7.725c3.979,1.935,8.637,2.854,12.51,3.316
					c0.939,0.121,1.84,0.203,2.68,0.279c3.008,1.699,6.063,3.251,9.131,4.664c-1.555-0.188-3.051-0.316-4.469-0.409
					c-1.41-0.103-2.758-0.138-3.994-0.147c-1.225-0.039-2.352-0.027-3.346,0.01c-1.998,0.089-3.414,0.206-4.061,0.364
					c3.795,2.374,8.264,4.651,12.936,6.36c4.652,1.737,9.492,2.982,13.822,3.55c4.344,0.594,8.979,0.028,12.783-0.646
					c0.805-0.14,1.572-0.281,2.295-0.418c3.303,0.805,6.533,1.525,9.686,2.191c-4.318,0.822-8.396,1.688-12.268,2.736
					c-2.439,0.691-4.807,1.39-7.078,2.289c-1.146,0.404-2.25,0.931-3.355,1.401c-0.545,0.253-1.078,0.542-1.615,0.809
					c-0.539,0.267-1.072,0.54-1.584,0.859c-0.523,0.308-1.037,0.614-1.547,0.919c-0.5,0.344-0.992,0.686-1.484,1.027l-0.732,0.514
					l-0.699,0.573c-0.467,0.388-0.924,0.771-1.383,1.153c-0.432,0.424-0.857,0.847-1.283,1.264
					c-0.211,0.215-0.424,0.422-0.631,0.639l-0.578,0.689c-0.383,0.461-0.764,0.921-1.143,1.379c-0.336,0.492-0.67,0.98-1,1.469
					c-1.111,1.672,2.125,1.766,5.406,1.73c0.803-0.021,1.699,0.006,2.492-0.008c0.816,0,1.529-0.049,2.238-0.063
					c0.693-0.031,1.287-0.1,1.742-0.247c0.479-0.133,0.855-0.324,1.051-0.65c0.143-0.211,0.273-0.462,0.465-0.704
					c0.191-0.244,0.402-0.504,0.623-0.785c0.428-0.584,1.047-1.162,1.721-1.847c1.42-1.301,3.359-2.794,5.98-4.249
					c2.613-1.459,5.889-2.881,9.799-4.172c1.951-0.648,4.059-1.263,6.324-1.85C268.824,350.599,268.363,348.93,268.33,347.155z"/>
			</g>
			<g>
				<path fill="#FFFFFF" d="M398.508,246.101c-1.031,1.688-2.076,3.534-3.084,5.521c0.719-3.561,1.264-7.122,1.639-10.665
					c0.58-1.032,1.244-2.208,1.961-3.469c0.92-1.72,1.859-3.655,2.686-5.709c0.764-2.056,1.494-4.235,1.809-6.408
					c0.766-4.344,0.928-9.298,0.664-14.254c-0.262-4.963-1.152-9.893-2.262-14.229c-0.689,1.15-2.277,5.313-3.574,10.83
					c-0.498,2.075-0.957,4.323-1.318,6.719c-0.418-3.695-1-7.293-1.723-10.779c0.256-1.245,0.541-2.681,0.859-4.291
					c0.352-1.923,0.631-4.051,0.783-6.265c0.082-2.191,0.104-4.494-0.279-6.662c-1.275-8.735-5.498-19.097-10.471-26.549
					c-0.133,0.643-0.24,2.075-0.283,4.068c-0.018,0.994,0.002,2.117,0.061,3.34c0.027,1.242,0.1,2.584,0.23,3.996
					c0.199,2.305,0.504,4.796,0.98,7.405l0.701,2.354l-3.088-1.348c-1.604-2.019-3.348-3.698-5.039-5.046
					c-1.068-0.83-2.102-1.548-3.066-2.154c-0.998-0.59-1.924-1.071-2.746-1.457c-1.633-0.783-2.91-1.147-3.523-1.243
					c3.98,6.52,8.598,14.633,12.535,21.389c1.039,1.666,2.16,3.352,3.439,4.957c1.203,1.626,2.502,3.197,3.65,4.667
					c0.896,1.187,1.768,2.286,2.473,3.278c0.672,3.396,1.205,6.908,1.582,10.506c-0.258-0.674-0.531-1.331-0.842-1.958
					c-0.67-1.368-1.369-2.625-2.094-3.758c-2.996-4.521-6.271-6.975-7.336-7.542c0.791,3.735,1.779,7.865,2.625,12.048
					c0.881,4.209,1.758,8.418,2.551,12.211c0.469,1.914,1.014,3.868,1.727,5.793c0.646,1.921,1.377,3.817,2.021,5.575
					c0.438,1.26,0.873,2.448,1.223,3.52c-0.4,3.407-0.957,6.833-1.676,10.253c-0.037-0.517-0.082-1.03-0.15-1.531
					c-0.213-1.509-0.494-2.922-0.832-4.222c-0.758-2.614-1.641-4.756-2.555-6.359c-0.887-1.602-1.633-2.649-2.088-3.09
					c-0.396,3.802-0.75,8.035-1.227,12.273c-0.484,4.237-0.957,8.501-1.352,12.391c-0.406,3.872-0.082,8.219-0.014,11.949
					c0.025,0.933,0.074,1.839,0.074,2.67c-0.002,0.231-0.008,0.451-0.008,0.672c-1.059,2.274-2.197,4.514-3.367,6.741
					c-0.436,0.777-0.873,1.553-1.318,2.327c0.074-0.329,0.145-0.656,0.205-0.98c0.316-1.477,0.457-2.926,0.529-4.272
					c0.037-0.673,0.055-1.321,0.061-1.944c-0.014-0.63-0.045-1.235-0.086-1.809c-0.088-1.149-0.213-2.178-0.369-3.068
					c-0.355-1.804-0.771-3.049-1.039-3.597c-3.029,7.008-6.953,15.483-10.199,22.597c-1.547,3.591-2.688,7.751-3.74,11.359
					c-0.295,0.99-0.58,1.931-0.863,2.796c-0.934,1.007-1.875,2-2.834,2.971c-1.404,1.425-2.848,2.799-4.322,4.132
					c0.088-0.139,0.172-0.279,0.254-0.418c0.732-1.336,1.33-2.654,1.836-3.895c1.949-5.061,2.059-9.15,1.898-10.35
					c-2.568,2.832-5.43,5.982-8.287,9.133c-2.9,3.129-5.854,6.234-8.469,9.15c-2.621,2.887-4.977,6.521-7.115,9.601
					c-0.512,0.749-1.016,1.451-1.496,2.105c-2.918,1.616-5.873,3.088-8.844,4.427c1.113-1.018,2.098-2.067,2.953-3.101
					c0.857-1.052,1.6-2.062,2.219-3.021c0.611-0.983,1.111-1.896,1.516-2.712c0.82-1.609,1.197-2.898,1.313-3.497
					c-6.602,3.863-14.777,8.255-21.654,12.082c-3.422,1.95-6.855,4.715-9.822,7.06c-0.611,0.486-1.193,0.948-1.756,1.389
					c-3.979,0.938-7.889,1.76-11.678,2.521c-0.221,0.043-0.439,0.086-0.662,0.129c0.406,1.126,0.637,2.334,0.637,3.6
					c0,0.276-0.02,0.545-0.041,0.816c-0.105,1.408-0.486,2.737-1.086,3.939c5.262,1.348,10.02,2.849,14.225,4.59
					c2.135,0.919,4.158,1.852,5.955,2.922c0.93,0.498,1.748,1.084,2.58,1.617c0.406,0.281,0.783,0.584,1.168,0.864
					c0.385,0.284,0.76,0.567,1.092,0.882c0.346,0.302,0.684,0.598,1.021,0.895c0.307,0.316,0.607,0.63,0.906,0.939l0.447,0.459
					l0.387,0.486c0.254,0.319,0.508,0.635,0.758,0.949c0.215,0.33,0.43,0.659,0.639,0.983l0.311,0.479l0.26,0.504
					c0.168,0.329,0.338,0.653,0.504,0.98c0.131,0.336,0.26,0.671,0.389,1.006c0.402,1.02,2.781-0.603,4.373-3.576
					c0.414-0.756,0.686-1.533,0.912-2.373c0.209-0.824,0.369-1.721,0.338-2.504c-0.018-0.802-0.141-1.567-0.371-2.227
					c-0.246-0.635-0.625-1.135-1.082-1.463c-0.313-0.215-0.637-0.471-1.016-0.697c-0.373-0.229-0.777-0.475-1.209-0.736
					c-0.854-0.553-1.861-1.037-2.961-1.626c-2.23-1.083-4.943-2.216-8.15-3.251c-4.941-1.625-11.033-2.982-18.328-4.473
					c0.979-0.203,1.959-0.412,2.955-0.628c2.484-0.538,5.021-1.111,7.596-1.739c0.76,0.143,1.564,0.295,2.41,0.439
					c3.805,0.674,8.443,1.239,12.785,0.646c4.33-0.567,9.168-1.813,13.818-3.55c4.674-1.709,9.143-3.986,12.939-6.36
					c-0.646-0.158-2.063-0.275-4.063-0.364c-0.994-0.037-2.119-0.049-3.344-0.01c-1.236,0.01-2.586,0.045-3.996,0.147
					c-1.49,0.097-3.068,0.239-4.711,0.439c2.135-0.968,4.258-1.997,6.359-3.103c0.963-0.51,1.924-1.039,2.879-1.58
					c0.877-0.078,1.826-0.166,2.816-0.291c3.869-0.462,8.531-1.382,12.506-3.316c3.953-1.947,8.145-4.616,12.018-7.725
					c3.857-3.123,7.4-6.666,10.273-10.099c-1.33,0.11-5.65,1.22-10.9,3.36c-1.334,0.517-2.705,1.121-4.117,1.798
					c-0.217,0.097-0.43,0.2-0.65,0.303c2.551-2.349,5.016-4.815,7.371-7.397c0.906-0.391,1.895-0.826,2.941-1.318
					c3.512-1.663,7.693-3.963,10.824-7.069c6.4-6.089,12.381-15.537,15.6-23.903c-0.611,0.262-1.867,0.991-3.469,2.132
					c-0.83,0.559-1.748,1.215-2.725,1.968c-0.484,0.376-0.982,0.778-1.498,1.197c-0.527,0.414-1.068,0.85-1.613,1.309
					c-1.084,0.916-2.186,1.929-3.35,2.994c-0.295,0.277-0.584,0.576-0.879,0.865c0.434-0.765,0.861-1.533,1.273-2.309
					c1.254-2.343,2.416-4.729,3.502-7.139c0.209-0.181,0.412-0.361,0.629-0.552c0.648-0.571,1.309-1.205,2.023-1.875
					c2.873-2.66,6.02-6.194,8.082-10.106c2.051-3.909,3.775-8.563,5.055-13.364c1.273-4.803,1.963-9.761,2.248-14.224
					C404.256,237.793,401.445,241.252,398.508,246.101z"/>
			</g>
		</g>
	</g>
	<path fill="#FFFFFF" d="M278.266,388.54c-81.674,0-148.117-66.443-148.117-148.115c0-81.67,66.443-148.115,148.117-148.115
		c81.668,0,148.111,66.445,148.111,148.115C426.377,322.096,359.934,388.54,278.266,388.54z M278.266,97.69
		c-78.707,0-142.738,64.03-142.738,142.734s64.031,142.736,142.738,142.736c78.701,0,142.732-64.031,142.732-142.736
		S356.967,97.69,278.266,97.69z"/>
	<path fill-rule="evenodd" clip-rule="evenodd" fill="#FFFFFF" d="M230.576,261.663l2.822-47.899c0,0,0.551-13.627-2.822-20.646
		c0,0-5.848-7.845-6.264-28.904c0,0-1.869-22.723,2.672-32.207c0,0-0.539-17.162,6.447-23.231c0,0,6.408-4.966,15.803-2.945
		c0,0,2.322-13.486,18.439-10.829c0,0,4.396-16.204,22.615-8.003c0,0,7.82-17.313,22.803-5.91c0,0,5.926,5.065,7.02,11.303
		c0,0,9.75,6.282,12.227,17.563l11.723,22.053c0,0,5.293,21.745-5.576,30.555l-23.998,27.254l-3.459,16.517l6.195,55.331H230.576z"
		/>
	<g>
		<path fill-rule="evenodd" clip-rule="evenodd" fill="#FFFFFF" d="M267.748,270.448c3.84,0,7.678,0,11.518,0
			c0.434-16.741-1.893-33.437-0.766-50.202c0.334,1.387,0.41,2.792,0.516,4.194c0.854,11.015,1.674,22.034,2.592,33.044
			c0.357,4.323,0.432,8.67,1.113,12.964c8.445,0,16.889,0,25.336,0c0-0.575,0.021-1.152-0.008-1.725
			c-0.543-9.448-1.055-18.899-1.658-28.34c-0.426-6.699-0.924-13.393-1.51-20.079c-0.584-6.649-1.869-13.281,0.076-19.974
			c-10.057,2.404-11.58,2.48-13.35,0.614c1.598,0,3.141,0.105,4.664-0.024c2.541-0.213,5.109-0.451,7.313-1.947
			c0.818-0.555,1.494-1.329,1.305-2.388c-0.166-0.918-0.99-1.298-1.836-1.46c-1.375-0.265-2.771-0.427-4.141-0.711
			c-1.463-0.307-3.143-0.092-4.293-1.525c0.615-0.486,1.211-0.349,1.75-0.349c4.459-0.021,8.006-1.12,11.264-4.899
			c6.84-7.929,14.33-15.294,20.799-23.582c2.789-3.571,5.947-6.853,8.068-10.92c1.871-3.591,2.447-7.314,1.604-11.311
			c-1.604-7.585-4.361-14.775-7.32-21.901c-2.32-5.596-4.697-11.178-8-16.286c-2.418-3.744-4.514-4.452-8.684-3.244
			c-0.49,0.142-0.982,0.267-1.475,0.4c-3.973,1.08-8.039,1.696-12.377,2.31c1.627,1.453,0.561,2.476-0.129,3.527
			c-0.65,0.989-1.436,2.008-2.75,1.68c-5.322-1.321-10.682-2.622-15.098-6.138c-0.805-0.639-1.148-0.441-1.654,0.197
			c-1.475,1.858-0.934,3.75-0.012,5.566c1.654,3.256,4.18,5.822,6.951,8.101c4.91,4.041,10.451,6.334,16.973,5.487
			c5.082-0.658,8.848-3.305,11.486-7.94c0.336,1.73-0.191,3.019-0.82,4.242c-1.684,3.283-4.477,5.372-7.756,6.828
			c-1.303,0.58-1.518,1.253-0.971,2.504c1.531,3.482,3.852,5.708,7.914,5.912c2.527,0.126,5.063,0.309,7.604,0.425
			c-2.385,0.958-4.914,0.883-7.674,1.202c1.711,1.772,3.195,3.408,5.307,3.827c2.061,0.406,4.223,0.287,6.395,0.402
			c-0.334,0.465-0.824,0.478-1.174,0.7c-0.789,0.506-2.254-0.211-2.463,0.907c-0.186,0.996,1,1.676,1.625,2.467
			c0.049,0.061,0.02,0.184,0.049,0.559c-3.094-1.951-6.029-3.819-8.982-5.657c-2.004-1.245-3.998-2.507-6.334-3.101
			c-3.555-0.905-5.967-0.03-7.996,2.983c-0.951,1.411-2.104,2.533-3.816,3.011c-3.244,0.905-6.064,2.635-8.76,4.603
			c-3.773,2.756-7.318,5.788-10.871,8.816c-6.293,5.366-6.295,5.363-8.299,13.295c-0.25,0.988-0.566,1.967-0.723,2.973
			c-0.771,4.885-3.402,9.728-0.199,14.686c-0.85,0.131-1.107-0.372-1.389-0.773c-1.441-2.039-1.73-4.299-1.473-6.75
			c0.578-5.462,1.527-10.887,1.734-16.382c0.135-3.611-1.711-5.895-5.199-6.757c-1.637-0.404-3.271-0.467-4.936-0.161
			c-5.721,1.049-11.207,0.881-15.949-3.129c-0.691-0.587-1.637-0.672-2.488-0.935c-2.064-0.643-4.217-0.395-6.594-0.496
			c0.492-0.553,0.75-0.908,1.072-1.196c0.916-0.816,2.014-1.328,3.104-1.869c1.072-0.537,1.93-1.34,1.736-2.699
			c-0.197-1.411-2.053-2.778-3.836-3.015c-1.432-0.193-2.367,0.396-2.852,1.687c-0.631,1.674-0.457,3.378-0.135,5.103
			c0.848,4.479,1.926,8.88,4.805,12.554c2.227,2.84,3.992,2.948,6.691,0.641c0.068-0.062,0.227-0.021,0.383-0.03
			c0.377,2.169-1.008,3.438-2.395,4.693c-4.557,4.128-5.615,9.569-2.879,15.041c0.887,1.771,1.877,3.496,3.15,5.022
			c2.568,3.074,5.879,4.222,9.848,3.901c3.043-0.243,6.002-1.548,9.098-0.909c4.209,0.869,8.182,2.494,12.408,4.083
			c-1.041,0.271-1.779,0.109-2.525-0.106c-6.301-1.833-12.48-2.393-18.441,1.276c-1.383,0.854-3.09,1.113-4.768,1.286
			c-1.424,0.147-2.281,1.5-1.916,2.792c0.482,1.703,1.637,0.931,2.625,0.615c0.725-0.232,1.443-0.508,2.146-0.803
			c2.629-1.111,5.201-1.156,8.002-0.342c6.969,2.026,14.098,3.024,21.391,2.343c0.795-0.073,1.637-0.294,2.844,0.176
			c-6.488,1.436-12.65,1.675-18.844,1.735c-6.234,0.061-11.059,2.738-14.115,8.285c-2.172,3.936-3.094,8.215-3.285,12.671
			c-0.418,9.841-1.611,19.615-2.504,29.412c-0.559,6.107-1.139,12.209-1.709,18.313c7.934,0,15.869,0,23.801,0
			c-0.02-7.023,0.4-14.08-0.51-21.052c-1.055-8.101-0.572-16.187-0.504-24.287c0.01-0.973,0.256-1.945,0.393-2.918
			c-0.104,0.776,0.166,1.528,0.174,2.354c0.131,13.291,2.104,26.452,2.887,39.699C267.242,266.305,267.029,268.436,267.748,270.448z
			"/>
		<path fill-rule="evenodd" clip-rule="evenodd" fill="#211915" d="M233.199,270.448c0.146-5.932,0.986-11.812,1.352-17.729
			c0.039-0.633,0.076-1.267,0.111-1.901c0.02-0.706,0.037-1.413,0.053-2.119c0.711-2.035,0.408-4.178,0.635-6.265
			c0.43-3.929,0.574-7.887,0.836-11.833c0.018-1.03,0.039-2.062,0.059-3.092c0.334-1.535,0.486-3.083,0.348-4.653
			c0.002-0.268,0.006-0.536,0.008-0.804c0.07-1.125,0.139-2.25,0.209-3.375c0.354-5.377,0.713-10.759,0.176-16.135
			c-0.135-1.348-1.104-2.567-1.32-3.975c-1.74-4.312-3.482-8.627-5.221-12.939c-1.998-5.653-2.813-11.502-2.861-17.474
			c0.15-0.457,0.057-0.896-0.1-1.329c-0.033-2.515,0.102-5.033-0.293-7.534c-0.043-0.445-0.086-0.891-0.127-1.335
			c-0.025-4.594-0.051-9.188-0.078-13.782c0.176-1.674,0.352-3.348,0.527-5.022c0.256-0.923,0.51-1.846,0.764-2.769
			c1.012-1.748,1.773-3.579,1.84-5.636l0.016-0.046c0.898-2.666,0.867-5.492,1.396-8.227c0.361-1.882,0.818-3.716,1.516-5.495
			c0.143-0.268,0.287-0.537,0.43-0.805c1.209-1.22,2.418-2.442,3.629-3.664c1.01-0.604,2.021-1.211,3.035-1.814
			c1.803-0.482,3.604-0.967,5.404-1.449c1.023-0.018,2.047-0.038,3.07-0.056c1.746,0.826,2.816,0.281,3.322-1.571
			c0.232-0.841,0.59-1.647,0.889-2.471c1.199-2.062,2.031-4.431,4.52-5.419c1.275-0.361,2.551-0.722,3.824-1.084
			c2.324-0.202,4.68-1.206,6.93,0.292c0.689,0.664,1.543,1.051,2.834,1.668c-1.168-3.889-0.137-6.93,2.598-9.406
			c1.203-0.624,2.404-1.245,3.607-1.866c0.963-0.175,1.928-0.351,2.891-0.525c0.916,0.14,1.777-0.146,2.654-0.327
			c1.568,0.108,3.107,0.382,4.625,0.799c1.076,0.852,2.322,1.481,3.389,2.831c0.58-2.44,1.088-4.586,1.6-6.734
			c3.701-3.528,8.131-4.773,13.146-4.208c1.307,0.15,2.305,0.962,3.402,1.559c0.217,0.161,0.428,0.321,0.643,0.484
			c0.141,0.118,0.281,0.237,0.422,0.354c0.131,0.127,0.266,0.25,0.398,0.377c1.555,1.756,3.172,3.468,4.652,5.287
			c1.541,1.894,1.797,4.372,2.74,6.543c-0.193,1.073,0.732,1.201,1.35,1.544c3.057,1.7,5.996,3.515,7.414,6.959
			c0.439,1.499,1.195,2.849,1.979,4.186c0.531,1.511,1.287,2.913,2.105,4.286c0.588,1.323,1.133,2.673,1.998,3.855
			c0.553,1.627,1.385,3.12,2.271,4.583c2.119,4.318,4.238,8.634,6.357,12.95c1.791,3.304,0.848,6.864,0.969,10.325l0.035,0.033
			c-0.387,0.322-0.318,0.75-0.268,1.171c-0.139,1.135-0.279,2.271-0.42,3.406c-0.508,1.68-1.016,3.36-1.525,5.04
			c-0.822,1.138-1.645,2.276-2.469,3.414c-0.764,0.759-1.412,1.606-1.908,2.565c-1.406,1.606-2.607,3.367-3.75,5.167
			c-1.555,1.921-3.012,3.909-4.223,6.067c-1.043,1.43-2.084,2.857-3.125,4.287c-2.836,2.931-5.674,5.859-8.512,8.787
			c-0.613,0.405-1.109,0.921-1.482,1.554c-1.709,1.602-3.451,3.182-3.436,5.802c-0.611,1.325-0.943,2.737-1.262,4.15
			c-0.771,3.363-2.256,6.552-2.461,10.056c-0.242,2.158,0.492,4.149,1.076,6.164c-0.039,1.222,0.369,2.369,0.605,3.544
			c0.313,1.646,0.621,3.29,0.936,4.936c0.436,14.508,1.445,28.969,3.777,43.314c0.357,2.189,0.607,4.395,1.236,6.529
			c-2.305,0-4.607,0-6.91,0c0-0.575,0.021-1.152-0.008-1.725c-0.543-9.448-1.055-18.899-1.658-28.34
			c-0.426-6.699-0.924-13.393-1.51-20.079c-0.584-6.649-1.869-13.281,0.076-19.974c-10.057,2.404-11.58,2.48-13.35,0.614
			c1.598,0,3.141,0.105,4.664-0.024c2.541-0.213,5.109-0.451,7.313-1.947c0.818-0.555,1.494-1.329,1.305-2.388
			c-0.166-0.918-0.99-1.298-1.836-1.46c-1.375-0.265-2.771-0.427-4.141-0.711c-1.463-0.307-3.143-0.092-4.293-1.525
			c0.615-0.486,1.211-0.349,1.75-0.349c4.459-0.021,8.006-1.12,11.264-4.899c6.84-7.929,14.33-15.294,20.799-23.582
			c2.789-3.571,5.947-6.853,8.068-10.92c1.871-3.591,2.447-7.314,1.604-11.311c-1.604-7.585-4.361-14.775-7.32-21.901
			c-2.32-5.596-4.697-11.178-8-16.286c-2.418-3.744-4.514-4.452-8.684-3.244c-0.49,0.142-0.982,0.267-1.475,0.4
			c-3.973,1.08-8.039,1.696-12.377,2.31c1.627,1.453,0.561,2.476-0.129,3.527c-0.65,0.989-1.436,2.008-2.75,1.68
			c-5.322-1.321-10.682-2.622-15.098-6.138c-0.805-0.639-1.148-0.441-1.654,0.197c-1.475,1.858-0.934,3.75-0.012,5.566
			c1.654,3.256,4.18,5.822,6.951,8.101c4.91,4.041,10.451,6.334,16.973,5.487c5.082-0.658,8.848-3.305,11.486-7.94
			c0.336,1.73-0.191,3.019-0.82,4.242c-1.684,3.283-4.477,5.372-7.756,6.828c-1.303,0.58-1.518,1.253-0.971,2.504
			c1.531,3.482,3.852,5.708,7.914,5.912c2.527,0.126,5.063,0.309,7.604,0.425c-2.385,0.958-4.914,0.883-7.674,1.202
			c1.711,1.772,3.195,3.408,5.307,3.827c2.061,0.406,4.223,0.287,6.395,0.402c-0.334,0.465-0.824,0.478-1.174,0.7
			c-0.789,0.506-2.254-0.211-2.463,0.907c-0.186,0.996,1,1.676,1.625,2.467c0.049,0.061,0.02,0.184,0.049,0.559
			c-3.094-1.951-6.029-3.819-8.982-5.657c-2.004-1.245-3.998-2.507-6.334-3.101c-3.555-0.905-5.967-0.03-7.996,2.983
			c-0.951,1.411-2.104,2.533-3.816,3.011c-3.244,0.905-6.064,2.635-8.76,4.603c-3.773,2.756-7.318,5.788-10.871,8.816
			c-6.293,5.366-6.295,5.363-8.299,13.295c-0.25,0.988-0.566,1.967-0.723,2.973c-0.771,4.885-3.402,9.728-0.199,14.686
			c-0.85,0.131-1.107-0.372-1.389-0.773c-1.441-2.039-1.73-4.299-1.473-6.75c0.578-5.462,1.527-10.887,1.734-16.382
			c0.135-3.611-1.711-5.895-5.199-6.757c-1.637-0.404-3.271-0.467-4.936-0.161c-5.721,1.049-11.207,0.881-15.949-3.129
			c-0.691-0.587-1.637-0.672-2.488-0.935c-2.064-0.643-4.217-0.395-6.594-0.496c0.492-0.553,0.75-0.908,1.072-1.196
			c0.916-0.816,2.014-1.328,3.104-1.869c1.072-0.537,1.93-1.34,1.736-2.699c-0.197-1.411-2.053-2.778-3.836-3.015
			c-1.432-0.193-2.367,0.396-2.852,1.687c-0.631,1.674-0.457,3.378-0.135,5.103c0.848,4.479,1.926,8.88,4.805,12.554
			c2.227,2.84,3.992,2.948,6.691,0.641c0.068-0.062,0.227-0.021,0.383-0.03c0.377,2.169-1.008,3.438-2.395,4.693
			c-4.557,4.128-5.615,9.569-2.879,15.041c0.887,1.771,1.877,3.496,3.15,5.022c2.568,3.074,5.879,4.222,9.848,3.901
			c3.043-0.243,6.002-1.548,9.098-0.909c4.209,0.869,8.182,2.494,12.408,4.083c-1.041,0.271-1.779,0.109-2.525-0.106
			c-6.301-1.833-12.48-2.393-18.441,1.276c-1.383,0.854-3.09,1.113-4.768,1.286c-1.424,0.147-2.281,1.5-1.916,2.792
			c0.482,1.703,1.637,0.931,2.625,0.615c0.725-0.232,1.443-0.508,2.146-0.803c2.629-1.111,5.201-1.156,8.002-0.342
			c6.969,2.026,14.098,3.024,21.391,2.343c0.795-0.073,1.637-0.294,2.844,0.176c-6.488,1.436-12.65,1.675-18.844,1.735
			c-6.234,0.061-11.059,2.738-14.115,8.285c-2.172,3.936-3.094,8.215-3.285,12.671c-0.418,9.841-1.611,19.615-2.504,29.412
			c-0.559,6.107-1.139,12.209-1.709,18.313C238.318,270.448,235.758,270.448,233.199,270.448z M261.73,102.479
			c-3.133,0.929-5.611,2.596-6.758,6.036c1.279-0.008,2.168-1.062,3.66-0.711c-3.521,1.561-3.816,4.071-3.037,7.283
			c1.807,7.433,3.521,14.885,5.535,22.267c0.643,2.351,0.98,4.758,0.857,7.201c-0.07,1.446,0.592,2.128,1.979,2.243
			c3.404,0.283,6.75,0.151,10.008-1.054c1.074-0.396,1.605-0.962,1.893-2.098c0.92-3.621,0.01-7.139-0.533-10.641
			c-1.436-9.265-3.057-18.505-4.629-27.751c-0.578-3.396-2.969-5.224-6.668-5.081c-2.148,0.082-4.102,0.78-6.07,2.511
			C259.441,102.571,260.521,101.857,261.73,102.479z M241.273,113.574c-0.303,0.149-0.449,0.219-0.592,0.295
			c-4.027,2.147-4.654,5.849-4.324,9.855c0.643,7.724,2.803,15.009,6.539,21.833c0.963,1.761,2.121,2.567,4.219,2.517
			c4.133-0.096,8.033-0.53,11.012-3.853c0.615-0.688,0.904-1.337,0.705-2.24c-1.902-8.523-3.789-17.051-5.686-25.574
			c-0.068-0.312-0.195-0.608-0.295-0.909c-0.699-2.108-1.109-4.608-3.781-5.028c-3.367-0.528-6.635-0.169-9.309,2.829
			C240.377,113.411,240.738,113.477,241.273,113.574z M284.404,90.297c-2.396-1.438-6.518-0.223-8.26,2.01
			c-3.391,4.346-2.951,9.059-2.191,13.889c1.229,7.811,2.533,15.612,3.895,23.401c0.605,3.459,3.771,5.256,7.289,4.398
			c1.531-0.372,3.012-1.065,5-0.941c-2.789,1.887-5.648,2.445-8.607,2.657c-1.002,0.071-2.188-0.176-2.17,1.389
			c0.012,1.492,1.016,1.674,2.232,1.674c2.693,0.001,5.357-0.264,7.99-0.805c1.119-0.229,2.213-0.576,3.148-1.307
			c3.123-2.436,3.508-3.896,2.43-7.797c-0.922-3.331-2.566-5.728-6.023-7.03c-3.668-1.381-6.828-3.716-9.156-7.003
			c-2.49-3.517-3.295-7.419-2.609-11.634c0.484-2.976,1.941-4.128,4.998-3.945c2.678,0.161,5.352,0.401,8.021,0.677
			c1.123,0.117,1.441-0.267,1.412-1.372c-0.129-4.567-3.611-7.34-8.313-6.667c-0.932,0.134-2.027,0.422-3.117-0.532
			C281.686,90.559,283.018,90.458,284.404,90.297z M304.701,84.011c-9.041,0.15-11.764,5.037-9.912,12.183
			c0.191,0.735,0.504,1.44,0.783,2.149c0.691,1.756,1.852,2.502,3.857,2.302c4.381-0.438,8.709-1.081,12.967-2.218
			c1.707-0.456,2.375-1.272,1.98-3.152c-0.43-2.059-1.396-3.742-2.504-5.484c-2.355-3.71-5.57-4.933-9.756-4.027
			c-0.363,0.08-0.76,0.011-1.502,0.011C301.85,84.581,303.238,84.555,304.701,84.011z M294.676,105.757
			c0.504,0.04,1.037,0.047,1.523-0.073c0.793-0.195,1.881-0.391,1.91-1.307c0.035-1.041-1.172-1.176-1.9-1.197
			c-3.805-0.114-7.564-0.62-11.348-1.152C287.877,103.988,291.047,105.478,294.676,105.757z M264.172,150.07
			c2.895,2.719,9.385,1.132,10.895-2.939C271.273,148.206,267.844,149.554,264.172,150.07z M257.701,146.902
			c-1.318,0.812-2.582,1.62-3.996,2.119c-1.428,0.502-2.867,0.979-4.471,1.521C253.646,152.879,257.713,151.104,257.701,146.902z"/>
		<path fill-rule="evenodd" clip-rule="evenodd" fill="#191310" d="M282.721,270.448c-0.682-4.294-0.756-8.641-1.113-12.964
			c-0.918-11.01-1.738-22.029-2.592-33.044c-0.105-1.402-0.182-2.808-0.516-4.194c-1.127,16.765,1.199,33.461,0.766,50.202
			C280.418,270.448,281.568,270.448,282.721,270.448z"/>
		<path fill-rule="evenodd" clip-rule="evenodd" fill="#191310" d="M267.748,270.448c-0.719-2.012-0.506-4.143-0.631-6.203
			c-0.783-13.247-2.756-26.409-2.887-39.699c-0.008-0.826-0.277-1.578-0.174-2.354c-0.137,0.973-0.383,1.945-0.393,2.918
			c-0.068,8.1-0.551,16.186,0.504,24.287c0.91,6.972,0.49,14.028,0.51,21.052C265.703,270.448,266.727,270.448,267.748,270.448z"/>
		<path fill-rule="evenodd" clip-rule="evenodd" fill="#FFFFFF" d="M257.967,102.685c1.475-0.114,2.555-0.827,3.764-0.206
			c-3.133,0.929-5.611,2.596-6.758,6.036c1.279-0.008,2.168-1.062,3.66-0.711c-3.521,1.561-3.816,4.071-3.037,7.283
			c1.807,7.433,3.521,14.885,5.535,22.267c0.643,2.351,0.98,4.758,0.857,7.201c-0.07,1.446,0.592,2.128,1.979,2.243
			c3.404,0.283,6.75,0.151,10.008-1.054c1.074-0.396,1.605-0.962,1.893-2.098c0.92-3.621,0.01-7.139-0.533-10.641
			c-1.436-9.265-3.057-18.505-4.629-27.751c-0.578-3.396-2.969-5.224-6.668-5.081C261.889,100.255,259.936,100.954,257.967,102.685z
			"/>
		<path fill-rule="evenodd" clip-rule="evenodd" fill="#FFFFFF" d="M239.762,113.299c0.615,0.112,0.977,0.178,1.512,0.275
			c-0.303,0.149-0.449,0.219-0.592,0.295c-4.027,2.147-4.654,5.849-4.324,9.855c0.643,7.724,2.803,15.009,6.539,21.833
			c0.963,1.761,2.121,2.567,4.219,2.517c4.133-0.096,8.033-0.53,11.012-3.853c0.615-0.688,0.904-1.337,0.705-2.24
			c-1.902-8.523-3.789-17.051-5.686-25.574c-0.068-0.312-0.195-0.608-0.295-0.909c-0.699-2.108-1.109-4.608-3.781-5.028
			C245.703,109.942,242.436,110.301,239.762,113.299z"/>
		<path fill-rule="evenodd" clip-rule="evenodd" fill="#FFFFFF" d="M280.373,91.358c1.313-0.799,2.645-0.9,4.031-1.061
			c-2.396-1.438-6.518-0.223-8.26,2.01c-3.391,4.346-2.951,9.059-2.191,13.889c1.229,7.811,2.533,15.612,3.895,23.401
			c0.605,3.459,3.771,5.256,7.289,4.398c1.531-0.372,3.012-1.065,5-0.941c-2.789,1.887-5.648,2.445-8.607,2.657
			c-1.002,0.071-2.188-0.176-2.17,1.389c0.012,1.492,1.016,1.674,2.232,1.674c2.693,0.001,5.357-0.264,7.99-0.805
			c1.119-0.229,2.213-0.576,3.148-1.307c3.123-2.436,3.508-3.896,2.43-7.797c-0.922-3.331-2.566-5.728-6.023-7.03
			c-3.668-1.381-6.828-3.716-9.156-7.003c-2.49-3.517-3.295-7.419-2.609-11.634c0.484-2.976,1.941-4.128,4.998-3.945
			c2.678,0.161,5.352,0.401,8.021,0.677c1.123,0.117,1.441-0.267,1.412-1.372c-0.129-4.567-3.611-7.34-8.313-6.667
			C282.559,92.024,281.463,92.312,280.373,91.358z"/>
		<path fill-rule="evenodd" clip-rule="evenodd" fill="#FFFFFF" d="M300.615,85.775c1.234-1.194,2.623-1.22,4.086-1.764
			c-9.041,0.15-11.764,5.037-9.912,12.183c0.191,0.735,0.504,1.44,0.783,2.149c0.691,1.756,1.852,2.502,3.857,2.302
			c4.381-0.438,8.709-1.081,12.967-2.218c1.707-0.456,2.375-1.272,1.98-3.152c-0.43-2.059-1.396-3.742-2.504-5.484
			c-2.355-3.71-5.57-4.933-9.756-4.027C301.754,85.845,301.357,85.775,300.615,85.775z"/>
		<path fill-rule="evenodd" clip-rule="evenodd" fill="#FFFFFF" d="M284.861,102.027c3.016,1.961,6.186,3.451,9.814,3.73
			c0.504,0.04,1.037,0.047,1.523-0.073c0.793-0.195,1.881-0.391,1.91-1.307c0.035-1.041-1.172-1.176-1.9-1.197
			C292.404,103.065,288.645,102.56,284.861,102.027z"/>
		<path fill-rule="evenodd" clip-rule="evenodd" fill="#FFFFFF" d="M275.066,147.131c-3.793,1.074-7.223,2.422-10.895,2.939
			C267.066,152.789,273.557,151.202,275.066,147.131z"/>
		<path fill-rule="evenodd" clip-rule="evenodd" fill="#FFFFFF" d="M249.234,150.542c4.412,2.337,8.479,0.561,8.467-3.641
			c-1.318,0.812-2.582,1.62-3.996,2.119C252.277,149.523,250.838,150,249.234,150.542z"/>
	</g>
	<g>
		<g>
			<path fill="#FFFFFF" d="M466.748,353.788c-122.219-36.854-252.02-36.854-374.238,0c-6.695-23.925-13.393-47.85-20.09-71.774
				c135.342-40.812,279.078-40.812,414.418,0C480.143,305.938,473.447,329.863,466.748,353.788z"/>
			<path fill="#211915" d="M90.658,357.156L69.119,280.2l2.525-0.761c67.606-20.388,137.583-30.725,207.987-30.725
				c70.4,0,140.377,10.337,207.982,30.725l2.525,0.761L468.6,357.156l-2.627-0.792c-60.572-18.266-123.268-27.527-186.344-27.527
				s-125.771,9.262-186.342,27.527L90.658,357.156z M279.629,323.458c62.691,0,125.008,9.072,185.268,26.968l18.641-66.593
				c-66.32-19.735-134.904-29.738-203.906-29.738c-69.004,0-137.588,10.003-203.908,29.738l18.638,66.593
				C154.623,332.53,216.939,323.458,279.629,323.458z"/>
		</g>
		<path fill="#211915" d="M90.658,357.156L69.119,280.2l2.525-0.761c67.606-20.388,137.583-30.725,207.987-30.725
			c70.4,0,140.377,10.337,207.982,30.725l2.525,0.761L468.6,357.156l-2.627-0.792c-60.572-18.266-123.268-27.527-186.344-27.527
			s-125.771,9.262-186.342,27.527L90.658,357.156z M279.629,323.458c62.691,0,125.008,9.072,185.268,26.968l18.641-66.593
			c-66.32-19.735-134.904-29.738-203.906-29.738c-69.004,0-137.588,10.003-203.908,29.738l18.638,66.593
			C154.623,332.53,216.939,323.458,279.629,323.458z"/>
	</g>
	<g>
		<path fill="#FFFFFF" d="M117.543,253.947c0.352,0.525,0.809,1.75,1.012,3.393c0.58,4.668-2.027,7.432-5.873,7.909
			c-4.607,0.572-7.578-2.395-8.086-6.481c-0.199-1.583-0.025-2.825,0.188-3.4l2.5,0.321c-0.184,0.652-0.314,1.543-0.184,2.625
			c0.303,2.424,2,4.126,5.004,3.753c2.705-0.337,4.207-2.149,3.869-4.875c-0.113-0.92-0.441-1.918-0.756-2.49L117.543,253.947z"/>
		<path fill="#FFFFFF" d="M110.277,240.603c4.457-0.211,7.287,2.361,7.475,6.335c0.193,4.032-2.74,6.536-6.611,6.721
			c-4.074,0.192-7.24-2.265-7.434-6.278C103.51,243.207,106.527,240.781,110.277,240.603z M110.924,250.414
			c2.664-0.125,4.479-1.465,4.381-3.522c-0.098-2.077-2.131-3.173-4.773-3.047c-2.439,0.115-4.479,1.384-4.379,3.502
			C106.25,249.423,108.283,250.54,110.924,250.414z"/>
		<path fill="#FFFFFF" d="M112.516,226.826c-1.637-0.017-3.613-0.047-5.59-0.141l-0.004,0.062c1.713,0.503,3.623,1.159,5.191,1.758
			l5.227,1.901l-0.111,2.399l-5.332,1.206c-1.613,0.369-3.57,0.742-5.361,0.982l-0.002,0.04c1.832,0.167,3.926,0.326,5.615,0.506
			l5.152,0.482l-0.135,2.844l-13.551-1.502l0.193-4.094l4.598-1.118c1.592-0.351,3.309-0.695,4.914-0.922l0.002-0.062
			c-1.555-0.456-3.328-1.004-4.818-1.519l-4.449-1.663l0.188-4.012l13.625-0.112l-0.141,3.005L112.516,226.826z"/>
		<path fill="#FFFFFF" d="M105.088,217.113l13.514,1.566l-0.355,3.068l-13.514-1.566L105.088,217.113z"/>
		<path fill="#FFFFFF" d="M115.779,215.57c0.555-0.746,1.184-1.93,1.402-3.225c0.232-1.395-0.221-2.229-1.098-2.375
			c-0.834-0.139-1.42,0.417-2.268,1.933c-1.152,2.1-2.631,3.347-4.582,3.02c-2.289-0.386-3.721-2.591-3.189-5.757
			c0.254-1.513,0.758-2.575,1.252-3.311l2.336,1.089c-0.35,0.494-0.889,1.387-1.109,2.701c-0.221,1.314,0.27,2.05,0.967,2.168
			c0.855,0.144,1.361-0.55,2.311-2.172c1.273-2.223,2.695-3.13,4.586-2.812c2.252,0.377,3.871,2.43,3.254,6.113
			c-0.258,1.534-0.908,2.979-1.455,3.667L115.779,215.57z"/>
		<path fill="#FFFFFF" d="M108.172,199.683l13.289,2.929l-0.666,3.017l-13.291-2.931L108.172,199.683z"/>
		<path fill="#FFFFFF" d="M108.334,186.493l1.711,3.052l-0.678,2.369l-1.922-2.314L108.334,186.493z M118.682,186.301
			c4.289,1.228,6.146,4.572,5.053,8.398c-1.109,3.883-4.691,5.316-8.418,4.25c-3.924-1.122-6.139-4.465-5.033-8.329
			C111.432,186.601,115.068,185.268,118.682,186.301z M116.15,195.808c2.564,0.732,4.713,0.044,5.279-1.936
			c0.572-2-1.002-3.689-3.547-4.417c-2.35-0.672-4.689-0.123-5.273,1.916C112.037,193.371,113.607,195.079,116.15,195.808z"/>
		<path fill="#FFFFFF" d="M125.949,186.583l-12.711-4.863l1.283-3.357l5.67-0.858c1.627-0.242,3.5-0.391,5.15-0.407l0.021-0.057
			c-1.752-0.453-3.49-1.054-5.393-1.783l-3.717-1.421l1.01-2.642l12.713,4.864l-1.154,3.018l-5.943,0.839
			c-1.646,0.236-3.605,0.437-5.332,0.49l-0.004,0.065c1.709,0.565,3.514,1.213,5.588,2.007l3.828,1.464L125.949,186.583z"/>
		<path fill="#FFFFFF" d="M120.637,164.099c0.357-1.089,0.943-2.445,1.654-3.828c1.184-2.298,2.363-3.575,3.842-4.29
			c1.582-0.775,3.477-0.799,5.613,0.301c2.316,1.191,3.48,2.858,3.865,4.533c0.404,1.82-0.092,4.018-1.313,6.387
			c-0.729,1.418-1.336,2.376-1.775,3.013L120.637,164.099z M131.926,166.434c0.174-0.206,0.369-0.583,0.545-0.924
			c1.291-2.468,0.76-4.785-2.131-6.273c-2.504-1.312-4.59-0.524-5.801,1.828c-0.313,0.61-0.463,1.033-0.529,1.294L131.926,166.434z"
			/>
		<path fill="#FFFFFF" d="M138.359,148.135l-2.617,4.266l2.75,1.689l2.924-4.765l2.152,1.319l-4.541,7.397l-11.594-7.115
			l4.391-7.156l2.152,1.32l-2.777,4.524l2.408,1.479l2.619-4.267L138.359,148.135z"/>
		<path fill="#FFFFFF" d="M145.98,141.148l2.197,2.881l-1.924,2.543l-8.34-11.526l2.436-3.22l13.396,4.846l-1.998,2.64l-3.418-1.271
			L145.98,141.148z M146.229,137.007l-2.814-1.066c-0.789-0.294-1.742-0.711-2.506-1.037l-0.025,0.032
			c0.521,0.648,1.221,1.43,1.717,2.083l1.814,2.385L146.229,137.007z"/>
		<path fill="#FFFFFF" d="M144.732,126.58c0.537-0.849,1.422-2.034,2.506-3.26c1.338-1.513,2.5-2.372,3.719-2.589
			c1.02-0.178,2.025,0.118,2.965,0.947c1.299,1.15,1.377,2.865,0.918,4.022l0.045,0.04c0.916-0.457,1.945-0.249,3.111,0.324
			c1.432,0.698,3.043,1.558,3.613,1.71l-2.088,2.36c-0.436-0.088-1.48-0.582-3.004-1.389c-1.514-0.851-2.248-0.72-3.094,0.205
			l-0.617,0.697l4.012,3.545l-2.021,2.286L144.732,126.58z M151.143,128.175l0.805-0.909c1.016-1.15,1.043-2.34,0.148-3.129
			c-0.938-0.829-1.969-0.609-2.92,0.438c-0.496,0.559-0.73,0.918-0.848,1.111L151.143,128.175z"/>
		<path fill="#FFFFFF" d="M156.781,117.052l-2.605,2.563l-1.813-1.841l7.455-7.338l1.813,1.842l-2.648,2.607l7.734,7.858
			l-2.203,2.167L156.781,117.052z"/>
		<path fill="#FFFFFF" d="M172.809,109.55l-3.791,3.272l2.109,2.447l4.236-3.654l1.65,1.911l-6.578,5.673l-8.893-10.308l6.361-5.489
			l1.65,1.911l-4.023,3.472l1.85,2.14l3.793-3.271L172.809,109.55z"/>
		<path fill="#FFFFFF" d="M176.662,109.765c0.916-0.161,2.186-0.589,3.232-1.379c1.127-0.852,1.373-1.769,0.838-2.479
			c-0.514-0.677-1.32-0.674-2.977-0.155c-2.279,0.732-4.209,0.622-5.402-0.956c-1.398-1.854-0.92-4.44,1.641-6.374
			c1.225-0.925,2.322-1.349,3.186-1.544l0.947,2.396c-0.592,0.119-1.598,0.396-2.66,1.199c-1.064,0.803-1.215,1.675-0.791,2.24
			c0.523,0.692,1.369,0.537,3.17,0.011c2.453-0.739,4.109-0.421,5.266,1.109c1.375,1.821,1.141,4.426-1.842,6.676
			c-1.238,0.938-2.707,1.539-3.574,1.664L176.662,109.765z"/>
		<path fill="#FFFFFF" d="M197.494,93.331c-0.889-1.375-1.953-3.044-2.965-4.745l-0.051,0.03c0.523,1.71,1.029,3.665,1.393,5.303
			l1.295,5.41l-2.064,1.229l-3.945-3.784c-1.199-1.144-2.59-2.572-3.775-3.934l-0.035,0.021c0.871,1.62,1.895,3.456,2.676,4.964
			l2.436,4.565l-2.447,1.457l-6.215-12.138l3.521-2.096l3.469,3.221c1.17,1.136,2.402,2.377,3.48,3.593l0.051-0.031
			c-0.479-1.55-0.996-3.332-1.389-4.86l-1.064-4.631l3.451-2.055l7.604,11.313l-2.584,1.538L197.494,93.331z"/>
		<path fill="#FFFFFF" d="M206.092,90.79l0.629,3.571l-2.879,1.374l-2.105-14.077l3.645-1.739l9.672,10.469l-2.992,1.426
			l-2.451-2.703L206.092,90.79z M208.219,87.225l-2.01-2.24c-0.566-0.626-1.219-1.433-1.75-2.076l-0.035,0.019
			c0.164,0.815,0.428,1.833,0.564,2.639l0.514,2.955L208.219,87.225z"/>
		<path fill="#FFFFFF" d="M211.693,77.29c0.865-0.505,2.195-1.149,3.723-1.737c1.883-0.728,3.311-0.953,4.49-0.585
			c0.986,0.311,1.74,1.037,2.193,2.205c0.623,1.62-0.098,3.174-1.037,3.991l0.021,0.056c1.023,0.016,1.84,0.675,2.609,1.72
			c0.949,1.279,1.982,2.783,2.418,3.179l-2.939,1.132c-0.344-0.277-1.045-1.198-2.025-2.616c-0.949-1.451-1.662-1.674-2.836-1.242
			l-0.867,0.334l1.924,4.991l-2.844,1.097L211.693,77.29z M216.645,81.656l1.129-0.436c1.432-0.552,2.004-1.594,1.574-2.706
			c-0.449-1.167-1.465-1.447-2.791-0.957c-0.695,0.269-1.07,0.479-1.264,0.595L216.645,81.656z"/>
		<path fill="#FFFFFF" d="M236.859,82.426c-0.459,0.436-1.588,1.097-3.17,1.579c-4.5,1.371-7.672-0.724-8.801-4.432
			c-1.354-4.441,1.059-7.879,5-9.079c1.525-0.465,2.779-0.509,3.383-0.397l0.113,2.519c-0.676-0.069-1.576-0.048-2.619,0.27
			c-2.336,0.712-3.723,2.675-2.84,5.572c0.795,2.607,2.84,3.779,5.465,2.978c0.889-0.27,1.814-0.763,2.324-1.172L236.859,82.426z"/>
		<path fill="#FFFFFF" d="M238.527,68.45l3.254,13.218l-3.002,0.738l-3.252-13.218L238.527,68.45z"/>
		<path fill="#FFFFFF" d="M246.664,77.027l-0.316,3.612l-3.137,0.581l1.611-14.142l3.971-0.735l6.631,12.615l-3.258,0.604
			l-1.67-3.244L246.664,77.027z M249.641,74.135l-1.359-2.685c-0.387-0.749-0.807-1.699-1.152-2.456l-0.041,0.007
			c-0.053,0.832-0.063,1.88-0.137,2.695l-0.27,2.987L249.641,74.135z"/>
		<path fill="#FFFFFF" d="M255.455,65.281l3.072-0.347l1.236,10.957l5.375-0.604l0.291,2.568l-8.449,0.954L255.455,65.281z"/>
		<path fill="#FFFFFF" d="M274.852,71.603l-5.002,0.244l0.158,3.227l5.584-0.273l0.125,2.52l-8.67,0.424l-0.664-13.589l8.387-0.411
			l0.123,2.521l-5.303,0.259l0.137,2.822l5.002-0.244L274.852,71.603z"/>
		<path fill="#FFFFFF" d="M277.746,74.135c0.82,0.437,2.088,0.879,3.398,0.9c1.414,0.021,2.17-0.552,2.184-1.44
			c0.012-0.848-0.627-1.343-2.252-1.953c-2.25-0.821-3.703-2.096-3.674-4.074c0.035-2.322,2.002-4.069,5.211-4.019
			c1.535,0.023,2.658,0.363,3.461,0.739l-0.723,2.473c-0.543-0.271-1.504-0.67-2.836-0.69c-1.334-0.021-1.99,0.576-2,1.282
			c-0.014,0.868,0.748,1.264,2.494,1.956c2.389,0.926,3.5,2.195,3.471,4.112c-0.035,2.281-1.82,4.192-5.557,4.135
			c-1.553-0.024-3.08-0.451-3.842-0.887L277.746,74.135z"/>
		<path fill="#FFFFFF" d="M322.088,83.117l1.533-5.358l-1.926-8.911l3.377,0.966l0.441,3.53c0.135,1.067,0.207,1.844,0.293,2.793
			l0.039,0.011c0.523-0.731,1.053-1.4,1.707-2.222l2.219-2.767l3.32,0.948l-6.492,6.398l-1.561,5.456L322.088,83.117z"/>
		<path fill="#FFFFFF" d="M339.289,74.444c1.115,0.254,2.521,0.712,3.963,1.294c2.398,0.967,3.779,2.025,4.627,3.433
			c0.918,1.503,1.115,3.391,0.217,5.621c-0.975,2.416-2.529,3.728-4.162,4.267c-1.775,0.568-4.01,0.276-6.482-0.722
			c-1.48-0.596-2.49-1.114-3.166-1.494L339.289,74.444z M337.998,85.901c0.223,0.155,0.615,0.313,0.971,0.458
			c2.576,1.062,4.838,0.319,6.053-2.697c1.078-2.615,0.102-4.621-2.354-5.611c-0.637-0.256-1.07-0.366-1.336-0.409L337.998,85.901z"
			/>
		<path fill="#FFFFFF" d="M356.816,90.641l-4.488-2.221l-1.432,2.896l5.014,2.481l-1.121,2.261l-7.779-3.851l6.035-12.198
			l7.527,3.726l-1.119,2.262l-4.76-2.354l-1.254,2.533l4.488,2.222L356.816,90.641z"/>
		<path fill="#FFFFFF" d="M363.223,85.355c0.9,0.339,2.113,0.906,3.736,1.852c1.639,0.956,2.625,1.95,3.045,3.036
			c0.402,1.032,0.34,2.302-0.33,3.454c-0.674,1.151-1.627,1.903-2.711,2.161c-1.406,0.326-2.973-0.074-4.543-0.989
			c-0.348-0.204-0.652-0.404-0.875-0.581l-2.451,4.204l-2.635-1.537L363.223,85.355z M362.744,92.229
			c0.197,0.185,0.465,0.366,0.848,0.589c1.414,0.824,2.703,0.617,3.406-0.586c0.629-1.082,0.256-2.165-1.07-2.937
			c-0.539-0.315-0.938-0.477-1.16-0.537L362.744,92.229z"/>
		<path fill="#FFFFFF" d="M380.543,104.168c-2.545,3.665-6.313,4.343-9.578,2.075c-3.316-2.305-3.518-6.156-1.307-9.34
			c2.326-3.351,6.205-4.369,9.508-2.076C382.596,97.211,382.686,101.083,380.543,104.168z M372.363,98.708
			c-1.52,2.189-1.563,4.446,0.129,5.621c1.707,1.186,3.814,0.24,5.322-1.932c1.395-2.006,1.633-4.399-0.111-5.609
			C375.996,95.601,373.873,96.536,372.363,98.708z"/>
		<path fill="#FFFFFF" d="M386.455,100.601c0.867,0.501,2.086,1.342,3.352,2.379c1.561,1.28,2.463,2.411,2.727,3.618
			c0.215,1.013-0.043,2.029-0.836,2.998c-1.102,1.343-2.809,1.484-3.984,1.069l-0.039,0.047c0.49,0.899,0.322,1.935-0.205,3.121
			c-0.646,1.457-1.443,3.099-1.572,3.673l-2.439-1.997c0.07-0.438,0.527-1.502,1.275-3.055c0.795-1.542,0.635-2.273-0.32-3.082
			l-0.719-0.591l-3.391,4.141l-2.359-1.933L386.455,100.601z M385.102,107.064l0.938,0.767c1.188,0.974,2.377,0.956,3.133,0.034
			c0.793-0.969,0.533-1.991-0.547-2.902c-0.578-0.474-0.945-0.695-1.141-0.805L385.102,107.064z"/>
		<path fill="#FFFFFF" d="M396.424,112.278l-2.66-2.506l1.771-1.88l7.613,7.169l-1.771,1.881l-2.705-2.547l-7.557,8.026
			l-2.248-2.117L396.424,112.278z"/>
		<path fill="#FFFFFF" d="M404.52,128.014l-3.41-3.667l-2.365,2.2l3.811,4.096l-1.85,1.719l-5.916-6.357l9.967-9.271l5.721,6.151
			l-1.848,1.72l-3.617-3.889l-2.07,1.926l3.41,3.666L404.52,128.014z"/>
		<path fill="#FFFFFF" d="M404.445,131.867c0.195,0.909,0.67,2.163,1.5,3.18c0.893,1.094,1.818,1.304,2.506,0.744
			c0.658-0.537,0.625-1.343,0.045-2.98c-0.818-2.25-0.779-4.183,0.754-5.432c1.801-1.467,4.4-1.088,6.428,1.399
			c0.971,1.189,1.434,2.27,1.662,3.125l-2.357,1.036c-0.141-0.588-0.455-1.582-1.299-2.614c-0.84-1.032-1.717-1.15-2.266-0.704
			c-0.672,0.548-0.484,1.385,0.109,3.167c0.828,2.422,0.572,4.089-0.914,5.3c-1.768,1.442-4.381,1.305-6.738-1.59
			c-0.982-1.204-1.639-2.648-1.795-3.51L404.445,131.867z"/>
		<path fill="#FFFFFF" d="M422.209,137.913c0.775,0.843,1.672,2.017,2.529,3.315c1.424,2.156,1.959,3.811,1.857,5.452
			c-0.096,1.759-1.006,3.423-3.01,4.747c-2.174,1.436-4.195,1.634-5.846,1.152c-1.785-0.54-3.459-2.048-4.926-4.272
			c-0.881-1.331-1.42-2.33-1.756-3.026L422.209,137.913z M414.646,146.612c0.094,0.252,0.328,0.605,0.537,0.926
			c1.521,2.336,3.805,3.007,6.516,1.214c2.371-1.541,2.703-3.746,1.246-5.954c-0.379-0.572-0.676-0.91-0.871-1.096L414.646,146.612z
			"/>
		<path fill="#FFFFFF" d="M427.445,161.171l-2.439-4.373l-2.818,1.574l2.721,4.884l-2.203,1.229l-4.227-7.582l11.883-6.625
			l4.09,7.334l-2.203,1.229l-2.586-4.637l-2.469,1.375l2.438,4.373L427.445,161.171z"/>
		<path fill="#FFFFFF" d="M429.697,178.741c-0.488-0.403-1.277-1.445-1.945-2.961c-1.893-4.308-0.186-7.704,3.361-9.265
			c4.254-1.869,7.951,0.125,9.609,3.895c0.641,1.46,0.834,2.699,0.793,3.312l-2.488,0.411c-0.012-0.678-0.139-1.572-0.576-2.569
			c-0.982-2.238-3.098-3.38-5.869-2.163c-2.496,1.098-3.418,3.267-2.313,5.781c0.373,0.851,0.973,1.711,1.439,2.168L429.697,178.741
			z"/>
		<path fill="#FFFFFF" d="M440.469,189.43c-4.211,1.477-7.658-0.182-8.975-3.936c-1.336-3.81,0.762-7.046,4.418-8.328
			c3.848-1.349,7.584,0.1,8.914,3.891C446.209,184.999,444.012,188.187,440.469,189.43z M437.045,180.211
			c-2.516,0.883-3.873,2.685-3.191,4.627c0.688,1.962,2.949,2.433,5.445,1.558c2.303-0.808,3.896-2.608,3.195-4.608
			C441.807,179.827,439.541,179.336,437.045,180.211z"/>
		<path fill="#FFFFFF" d="M434.379,193.399l13.186-3.374l0.891,3.482l-4.133,3.975c-1.188,1.138-2.631,2.341-3.969,3.309
			l0.018,0.059c1.689-0.642,3.455-1.155,5.43-1.661l3.855-0.987l0.699,2.738l-13.184,3.375l-0.803-3.13l4.367-4.119
			c1.207-1.144,2.688-2.439,4.068-3.479l-0.033-0.055c-1.721,0.524-3.57,1.04-5.721,1.59l-3.973,1.015L434.379,193.399z"/>
		<path fill="#FFFFFF" d="M448.941,207.373l-0.633-3.6l2.545-0.447l1.811,10.303l-2.545,0.447l-0.645-3.659l-10.859,1.908
			l-0.535-3.043L448.941,207.373z"/>
		<path fill="#FFFFFF" d="M443.076,218.719l-3.578-0.582l-0.348-3.17l13.982,2.646l0.441,4.014l-13.068,5.682l-0.359-3.291
			l3.357-1.426L443.076,218.719z M445.742,221.901l2.779-1.159c0.775-0.33,1.752-0.682,2.533-0.97l-0.006-0.04
			c-0.824-0.113-1.871-0.201-2.678-0.336l-2.959-0.486L445.742,221.901z"/>
		<path fill="#FFFFFF" d="M441.336,238.359c-0.311-0.551-0.668-1.808-0.746-3.462c-0.217-4.697,2.596-7.253,6.469-7.431
			c4.637-0.213,7.371,2.975,7.561,7.089c0.072,1.593-0.195,2.817-0.451,3.375l-2.469-0.513c0.232-0.639,0.436-1.516,0.385-2.605
			c-0.113-2.441-1.672-4.267-4.695-4.128c-2.723,0.125-4.363,1.818-4.236,4.56c0.043,0.928,0.293,1.947,0.563,2.541L441.336,238.359
			z"/>
		<path fill="#FFFFFF" d="M451.805,243.429l0.123-3.654l2.582,0.086l-0.35,10.455l-2.584-0.084l0.125-3.716l-11.02-0.369
			l0.102-3.088L451.805,243.429z"/>
		<path fill="#FFFFFF" d="M446.102,263.803c-4.436-0.477-6.836-3.455-6.412-7.41c0.432-4.014,3.715-6.039,7.568-5.624
			c4.055,0.435,6.809,3.351,6.379,7.345C453.191,262.27,449.836,264.205,446.102,263.803z M446.971,254.007
			c-2.648-0.284-4.65,0.759-4.869,2.807c-0.223,2.067,1.617,3.464,4.246,3.746c2.43,0.261,4.643-0.678,4.869-2.786
			C451.438,255.706,449.6,254.291,446.971,254.007z"/>
	</g>
	<g>
		<g>
			<path fill="#FFFFFF" d="M206.711,380.096c1.484,0.42,4.326,1.545,6.947,2.684c3.203,1.396,5.057,2.463,6.416,4.084
				c1.328,1.459,2.002,3.42,1.277,5.444c-0.711,1.985-2.676,3.397-5.857,3.214c-0.008,0.021-0.016,0.044-0.025,0.066
				c2.582,1.809,4.061,4.492,3.055,7.391c-0.709,2.029-2.373,3.236-4.451,3.736c-2.41,0.556-5.986,0.045-11.273-2.299
				c-2.949-1.316-5.059-2.535-6.299-3.34C199.887,394.076,203.291,387.082,206.711,380.096z M208.168,390.832
				c0.604,0.272,1.209,0.541,1.818,0.806c2.92,1.27,4.938,0.808,5.584-0.827c0.666-1.676-0.373-3.104-2.803-4.151
				c-1.166-0.504-1.857-0.739-2.344-0.88C209.67,387.462,208.918,389.147,208.168,390.832z M203.889,400.463
				c0.551,0.324,1.242,0.634,2.248,1.069c2.674,1.162,5.396,1.251,6.301-1.081c0.865-2.234-1.08-4.023-3.898-5.254
				c-0.646-0.281-1.289-0.566-1.932-0.855C205.699,396.381,204.793,398.422,203.889,400.463z"/>
			<path fill="#FFFFFF" d="M242.131,406.485c-3.23-0.694-6.447-1.479-9.645-2.355c-0.49,1.815-0.979,3.631-1.469,5.447
				c3.688,1.009,7.396,1.9,11.121,2.676c-0.293,1.438-0.584,2.878-0.877,4.317c-5.92-1.23-11.799-2.749-17.617-4.56
				c2.311-7.574,4.635-15.145,6.98-22.708c4.918,1.532,9.891,2.827,14.895,3.886c-0.303,1.438-0.605,2.875-0.906,4.313
				c-3.246-0.688-6.48-1.473-9.697-2.354c-0.43,1.588-0.861,3.175-1.291,4.764c3.121,0.855,6.258,1.621,9.41,2.299
				C242.734,403.634,242.432,405.059,242.131,406.485z"/>
			<path fill="#FFFFFF" d="M252.629,394.852c1.828,0.019,4.508,0.213,7.455,0.563c3.641,0.431,6.141,1.152,7.818,2.618
				c1.398,1.227,2.139,2.924,2.021,5.105c-0.156,3.03-2.639,4.974-4.994,5.518c-0.004,0.036-0.004,0.071-0.008,0.106
				c1.791,0.819,2.725,2.466,3.279,4.691c0.684,2.728,1.41,5.872,1.914,6.815c-2.176-0.109-4.354-0.257-6.525-0.441
				c-0.406-0.707-0.914-2.698-1.461-5.689c-0.459-3.021-1.523-3.932-3.977-4.258c-0.607-0.074-1.215-0.15-1.82-0.23
				c-0.393,3.09-0.783,6.179-1.17,9.269c-2.098-0.274-4.191-0.584-6.281-0.929C250.113,410.275,251.363,402.562,252.629,394.852z
				 M256.822,405.806c0.775,0.101,1.551,0.197,2.324,0.288c2.957,0.345,4.822-0.85,4.994-2.919c0.186-2.18-1.295-3.396-3.889-3.729
				c-1.377-0.16-2.174-0.16-2.594-0.145C257.379,401.469,257.1,403.637,256.822,405.806z"/>
			<path fill="#FFFFFF" d="M282.824,396.717c0.166,7.918,0.35,15.834,0.553,23.75c-2.135,0.044-4.27,0.051-6.404,0.021
				c0.068-7.918,0.154-15.837,0.256-23.755C279.094,396.76,280.959,396.754,282.824,396.717z"/>
			<path fill="#FFFFFF" d="M292.037,414.545c1.705,0.628,4.348,1.158,6.996,0.874c2.859-0.309,4.219-1.532,4.006-3.064
				c-0.195-1.474-1.596-2.122-4.893-2.796c-4.57-0.906-7.551-2.943-7.766-6.385c-0.232-4.06,3.068-7.311,8.791-7.99
				c2.746-0.332,4.848-0.084,6.402,0.313c-0.182,1.492-0.373,2.984-0.576,4.477c-1.082-0.299-2.951-0.696-5.404-0.401
				c-2.449,0.29-3.535,1.444-3.42,2.677c0.145,1.5,1.66,2.053,5.143,2.793c4.762,0.953,7.324,2.696,7.887,6.008
				c0.699,3.893-2.301,7.947-10.057,8.789c-3.217,0.342-6.451-0.135-8.074-0.779C291.402,417.555,291.725,416.051,292.037,414.545z"
				/>
			<path fill="#FFFFFF" d="M316.963,411.097c1.785,0.386,4.477,0.546,7.07-0.104c2.795-0.701,3.984-2.104,3.561-3.594
				c-0.402-1.431-1.875-1.88-5.25-2.089c-4.66-0.265-7.912-1.87-8.59-5.248c-0.793-3.99,2.043-7.665,7.631-9.133
				c2.686-0.712,4.809-0.757,6.41-0.582c0.025,1.504,0.039,3.009,0.043,4.516c-1.117-0.146-3.031-0.279-5.43,0.354
				c-2.395,0.629-3.318,1.923-3.029,3.126c0.359,1.466,1.928,1.806,5.494,2.052c4.875,0.281,7.654,1.65,8.676,4.851
				c1.232,3.758-1.207,8.197-8.797,10.11c-3.146,0.783-6.432,0.759-8.123,0.345C316.75,414.166,316.861,412.631,316.963,411.097z"/>
			<path fill="#FFFFFF" d="M361.252,388.219c3.723,6.818,0.91,13.771-6.855,17.152c-7.891,3.395-14.387-0.109-16.568-6.486
				c-2.309-6.758,0.436-13.252,7.102-16.15C351.859,379.691,358.104,382.436,361.252,388.219z M343.766,396.567
				c1.688,4.328,5.307,6.467,9.219,4.768c3.947-1.729,4.639-5.933,2.605-10.07c-1.885-3.834-5.463-6.146-9.084-4.564
				C342.949,388.244,342.082,392.258,343.766,396.567z"/>
		</g>
	</g>
	<path fill="#FFFFFF" d="M184.998,379.438c0,2.827-2.289,5.119-5.119,5.119c-2.826,0-5.119-2.292-5.119-5.119
		c0-2.828,2.293-5.119,5.119-5.119C182.709,374.319,184.998,376.61,184.998,379.438z"/>
	<circle fill="#FFFFFF" cx="382.03" cy="375.677" r="5.12"/>
	<g>
		<path fill="#211915" d="M165.213,321.872c-1.822,1.402-6.125,3.387-11.992,4.709c-16.576,3.773-27.848-3.816-31.602-17.223
			c-4.504-15.991,5.725-28.487,21.721-32.052c6.16-1.375,11.084-1.193,13.385-0.624c-0.23,3.021-0.449,6.04-0.656,9.059
			c-2.568-0.431-6.057-0.588-10.203,0.335c-9.324,2.072-15.225,9.035-12.537,19.535c2.42,9.468,9.703,13.911,19.563,11.71
			c3.346-0.747,6.912-2.238,8.936-3.538C162.963,316.477,164.092,319.174,165.213,321.872z"/>
		<path fill="#211915" d="M167.162,316.913c-0.762-3.827,1.416-7.137,5.33-7.861c3.912-0.724,7.041,1.53,7.713,5.447
			c0.646,3.777-1.471,6.998-5.352,7.715C171.115,322.907,167.91,320.67,167.162,316.913z"/>
		<path fill="#211915" d="M194.52,305.479c-0.582,4.299-1.139,8.596-1.67,12.893c-3.813,0.581-7.623,1.201-11.428,1.857
			c2.193-16.859,4.814-33.729,7.869-50.587c5.242-0.765,10.492-1.462,15.746-2.092c7.426,15.466,14.428,31.059,21.004,46.759
			c-3.98,0.369-7.959,0.782-11.934,1.234c-1.732-3.998-3.49-7.989-5.277-11.973C204.055,304.149,199.285,304.784,194.52,305.479z
			 M206.186,295.592c-1.477-3.289-2.971-6.574-4.484-9.853c-1.285-2.749-2.686-6.211-3.844-8.974
			c-0.053,0.007-0.104,0.013-0.156,0.021c-0.393,2.969-0.668,6.728-1.125,9.636c-0.547,3.556-1.08,7.107-1.594,10.663
			C198.713,296.551,202.447,296.054,206.186,295.592z"/>
		<path fill="#211915" d="M227.631,308.284c-0.352-3.887,2.15-6.947,6.105-7.255c3.953-0.306,6.818,2.266,7.076,6.231
			c0.246,3.825-2.191,6.805-6.113,7.108C230.922,314.662,227.98,312.101,227.631,308.284z"/>
		<path fill="#211915" d="M286.855,293.251c-0.145-5.858-0.289-12.945-0.203-20.028c-0.076,0-0.156-0.002-0.232-0.002
			c-1.717,6.196-3.92,13.117-5.895,18.825c-2.082,6.332-4.098,12.675-6.045,19.029c-2.902,0.023-5.803,0.068-8.705,0.135
			c-1.9-6.246-3.857-12.484-5.873-18.711c-1.846-5.656-3.863-12.525-5.367-18.831c-0.055,0.002-0.105,0.004-0.158,0.007
			c-0.045,6.585,0.033,14.107-0.09,20.189c-0.043,6.176-0.078,12.352-0.1,18.527c-3.432,0.148-6.861,0.328-10.291,0.539
			c0.049-16.274,0.188-32.552,0.414-48.831c5.359-0.299,10.717-0.53,16.078-0.692c1.906,5.369,3.766,10.744,5.58,16.128
			c1.744,5.601,3.443,11.646,4.65,17.341c0.074-0.002,0.148-0.002,0.225-0.004c1.346-5.657,3.027-12.109,4.697-17.541
			c1.82-5.408,3.691-10.81,5.611-16.2c5.258,0.019,10.514,0.102,15.77,0.254c0.51,16.262,0.943,32.524,1.301,48.786
			c-3.629-0.12-7.252-0.207-10.883-0.259C287.188,305.692,287.027,299.471,286.855,293.251z"/>
		<path fill="#211915" d="M302.553,306.473c0.15-3.9,3.025-6.613,6.984-6.406c3.961,0.206,6.471,3.127,6.211,7.092
			c-0.25,3.824-3.051,6.465-6.979,6.26C304.988,313.223,302.404,310.302,302.553,306.473z"/>
		<path fill="#211915" d="M322.535,265.301c4.469-0.339,10.277-0.239,16.361,0.351c10.119,0.987,16.484,3.478,21.098,7.652
			c4.984,4.454,7.488,10.905,6.223,19.41c-1.369,9.226-5.799,15.066-11.076,18.377c-5.77,3.539-13.818,4.582-23.416,3.695
			c-5.742-0.528-9.793-1.188-12.543-1.745C320.301,297.127,321.418,281.215,322.535,265.301z M331.061,305.868
			c0.939,0.303,2.492,0.445,3.893,0.582c10.143,1.059,17.443-3.502,18.947-15.055c1.377-10.016-4.326-16.184-14.568-17.203
			c-2.652-0.262-4.387-0.2-5.42-0.076C332.961,284.701,332.01,295.285,331.061,305.868z"/>
		<path fill="#211915" d="M363.285,312.157c0.561-3.863,3.713-6.256,7.639-5.633c3.928,0.625,6.123,3.795,5.445,7.71
			c-0.65,3.777-3.721,6.105-7.615,5.487C365.004,319.125,362.734,315.95,363.285,312.157z"/>
		<path fill="#211915" d="M415.035,326.806c-2.25,0.495-6.998,0.46-12.871-0.834c-16.6-3.618-23.514-15.265-21.223-28.995
			c2.717-16.391,17.203-23.375,33.199-19.811c6.16,1.371,10.551,3.629,12.398,5.123c-1.494,2.636-2.975,5.277-4.445,7.922
			c-2.146-1.482-5.242-3.105-9.391-4.033c-9.322-2.083-17.594,1.722-19.621,12.368c-1.83,9.6,2.855,16.709,12.715,18.902
			c3.348,0.746,7.213,0.911,9.602,0.596C415.285,320.965,415.164,323.886,415.035,326.806z"/>
		<path fill="#211915" d="M418.91,323.143c0.938-3.787,4.32-5.856,8.188-4.848c3.863,1.012,5.752,4.384,4.697,8.217
			c-1.018,3.695-4.316,5.706-8.15,4.705C419.951,330.252,417.992,326.866,418.91,323.143z"/>
	</g>
	<g>
		<polygon fill="#717175" points="75.83,289.127 108.42,282.584 77.705,295.1 		"/>
		<polygon fill="#717175" points="78.766,299.279 111.355,292.736 80.641,305.251 		"/>
		<polygon fill="#717175" points="81.703,309.431 114.291,302.889 83.578,315.403 		"/>
		<polygon fill="#717175" points="84.639,319.581 117.229,313.04 86.516,325.555 		"/>
		<polygon fill="#717175" points="87.576,329.733 120.166,323.192 89.451,335.707 		"/>
		<polygon fill="#717175" points="90.064,338.545 123.594,332.002 91.941,344.516 		"/>
	</g>
	<g>
		<polygon fill="#717175" points="482.896,289.788 449.869,283.22 481.193,295.819 		"/>
		<polygon fill="#717175" points="479.584,300.64 446.557,294.071 477.881,306.667 		"/>
		<polygon fill="#717175" points="477.113,311.002 444.088,304.433 475.41,317.029 		"/>
		<polygon fill="#717175" points="474.168,320.531 441.141,313.962 472.465,326.561 		"/>
		<polygon fill="#717175" points="471.527,330.779 438.5,324.211 469.824,336.807 		"/>
		<polygon fill="#717175" points="468.904,340.566 435.879,333.998 467.201,346.595 		"/>
	</g>
	<path fill-rule="evenodd" clip-rule="evenodd" fill="#FFFFFF" d="M293.119,80.262"/>
</g>
</svg>
