<?xml version="1.0" encoding="utf-8"?>
<!-- Generator: Adobe Illustrator 16.0.0, SVG Export Plug-In . SVG Version: 6.00 Build 0)  -->
<!DOCTYPE svg PUBLIC "-//W3C//DTD SVG 1.1//EN" "http://www.w3.org/Graphics/SVG/1.1/DTD/svg11.dtd">
<svg version="1.1" id="Capa_1" xmlns="http://www.w3.org/2000/svg" xmlns:xlink="http://www.w3.org/1999/xlink" x="0px" y="0px"
	 width="566.615px" height="495.15px" viewBox="0 0 566.615 495.15" enable-background="new 0 0 566.615 495.15"
	 xml:space="preserve">
<g>
	<path fill="#211915" d="M402.32,300.493c-27.421,3.136-79.943,18.523-93.674,22.553c-81.608,23.949-134.888,4.873-154.297-4.58
		c-3.266-1.59-5.933-3.162-8.107-4.604c-4.804-3.575-12.152-10.087-13.188-14.159c6.15-2.544,11.524-6.081,16.126-10.609
		c4.598-4.524,7.771-9.672,9.518-15.444c1.744-5.768,1.822-11.875,0.23-18.313l-0.703-2.51c-2.709-7.461-7.48-12.066-14.313-13.822
		c-6.828-1.754-14.179-1.659-22.047,0.284c-9.348,2.311-17.859,6.148-25.531,11.515c-7.199,5.088-11.982,10.186-14.352,15.295
		c-2.371,5.113-3.086,9.559-2.154,13.343c0.584,2.35,1.704,4.7,3.369,7.052c1.884,2.57,4.381,4.557,7.49,5.956
		c-0.196-7.379,1.653-13.708,5.555-18.979c3.902-5.272,8.594-9.426,14.079-12.461c5.481-3.037,10.705-5.167,15.658-6.392l1.38-0.342
		c7.037-1.359,11.906-0.843,14.615,1.554c2.704,2.394,4.379,4.893,5.021,7.498c0.418,1.686,0.54,3.5,0.373,5.438
		c-0.422,5.093-2.724,10.174-6.89,15.243c-4.166,5.066-10.236,9.021-18.209,11.857c0.627-5.574,1.723-11.675,3.281-18.296
		c1.566-6.616,3.21-12.581,4.934-17.885c-1.928-0.555-3.928-0.656-6.014-0.305c-2.076,0.352-3.528,0.629-4.348,0.832
		c-2.348,0.58-4.559,1.397-6.629,2.452c-2.836,1.462-4.533,3.263-5.088,5.405c-0.581,3.127-1.201,7.751-1.857,13.878
		c-0.652,6.123-0.965,12.544-0.932,19.255c0.033,6.715,0.712,12.753,2.039,18.118l0.244,0.996c1.429,5.555,3.578,9.158,6.455,10.806
		c2.871,1.646,5.869,2.085,8.982,1.315c2.195-0.544,4.623-1.576,7.285-3.102c-4.184-1.785-6.705-3.819-7.564-6.099
		c-0.863-2.28-1.375-3.75-1.541-4.416c-0.958-3.882-0.855-9.167,0.313-15.851l0.075-0.019c0.135,0.55,1.669,9.664,21.652,21.193
		c0.314,0.184,0.635,0.365,0.96,0.548c0.05,0.029,0.101,0.062,0.153,0.089v-0.002c26.148,14.691,89.725,35.543,192.79,7.861
		c108.106-29.036,154.266,5.793,154.266,5.793C492.713,330.89,502.75,289.006,402.32,300.493z"/>
	<g>
		<path fill="#211915" d="M115.746,232.742c0.061-0.024-12.75-15.715-11.906-32.207c0.451-20.636,24.808-44.181,100.174-16.137
			c0.737,0.544-26.843-74.53,55.384-90.593c-0.036-0.1,27.12-5.757,28.376-17.259c-0.057,0.028,0.924,16.935,16.999,33.743
			c16.023,16.958,36.167,20.959,68.978,26.739c46.079,7.456,114.66,31.441,110.087,87.098c-0.022,0.067-1.245,29.897-28.292,17.46
			c-0.013,0.019-0.028,0.04-0.044,0.063c-4.182-2.425-9.927-4.646-16.616-3.518c-5.269,0.892-9.262,2.886-12.047,5.669
			c-2.309,2.306-3.802,4.698-4.518,7.163c-0.031,0.019-9.48,17.696-18.463,24.942c-1.463,1.132-2.84,1.919-4.128,2.339
			c-2.382,0.781-4.306,1.112-5.774,0.98c-0.652-0.056-1.248-0.187-1.778-0.392c-3.241-1.276-4.954-3.104-5.13-5.494
			c-0.173-2.387-0.215-4.16-0.127-5.316c0.205-2.676,0.867-5.525,2-8.551c1.674-4.246,3.782-7.914,6.334-10.996
			c2.549-3.083,4.984-4.674,7.275-4.775c1.52,0.246,2.275,0.864,2.272,1.837c-0.007,0.979-0.02,1.601-0.046,1.862
			c-0.133,1.468-0.643,2.979-1.523,4.532c-1.135,1.903-2.639,3.24-4.51,4.02c1.36,0.548,2.679,0.883,3.961,1.003
			c1.451,0.139,2.846-0.017,4.188-0.468c3.25-0.994,5.118-3.761,5.58-8.317c0.186-1.885,0.033-3.778-0.463-5.683
			c-0.635-2.816-2.073-5.294-4.323-7.416c-2.249-2.125-5.39-3.375-9.398-3.728c-4.579-0.403-8.726,0.413-12.401,2.431
			c-3.675,2.022-6.803,4.774-9.378,8.24c-2.577,3.469-4.407,7.021-5.519,10.643c-0.924,3.022-1.501,5.833-1.775,8.458
			c-0.539,0.856-1.132,1.804-1.807,2.862c-5.297,8.465-9.434,12.722-12.599,12.725c-0.983,0-1.481-0.837-1.496-2.521
			c-0.008-0.896,0.117-2.054,0.379-3.477c0.738-3.634,2.049-7.951,3.967-12.95c1.91-5,3.992-9.726,6.245-14.185
			c2.249-4.455,4.244-7.753,5.964-9.886c-2.111-1.344-4.403-2.279-6.868-2.797c-2.466-0.517-4.504-0.771-6.107-0.772
			c-1.486,0-2.947,0.133-4.373,0.401c-2.968,0.593-5.055,2.086-6.254,4.466c-0.543,1.191-1.084,2.381-1.625,3.573
			c-1.217-6.302-5.604-9.42-13.102-9.235c-4.865,0.124-9.1,1.569-12.667,4.311c-3.573,2.746-6.39,6.206-8.464,10.36
			c-2.074,4.16-3.301,7.951-3.708,11.374c-0.382,3.191-0.519,5.758-0.437,7.752c-2.398,5.209-4.547,9.221-6.48,12.005
			c-1.811,2.504-3.516,3.86-5.127,4.067c-1.023,0.131-1.656-0.661-1.895-2.383c-0.147-1.043-0.143-2.396,0.008-4.06
			c0.365-4.086,1.225-8.912,2.6-14.471c1.378-5.558,2.939-10.701,4.68-15.415c0.295-1.149,0.38-2.221,0.242-3.214
			c-0.262-1.878-1.341-3.504-3.254-4.867c-2.537-1.709-5.255-2.382-8.134-2.013c-0.448,0.086-0.894,0.169-1.343,0.255
			c-3.434,1.24-6.768,3.941-9.96,8.089c-3.187,4.154-6.065,8.838-8.628,14.051c-2.563,5.214-4.649,9.947-6.274,14.184
			c-1.634,4.238-2.644,7.037-3.067,8.39c-0.059,0.141-0.116,0.285-0.17,0.428c-0.106-8.416,0.861-16.133,2.965-23.138
			c2.106-7.003,4.041-11.859,5.752-14.571c-3.822-1.925-7.35-2.625-10.531-2.108c-1.344,0.214-2.621,0.641-3.826,1.267
			c-4.025,2.165-7.435,5.74-10.196,10.701c-2.762,4.963-4.968,10.276-6.637,15.925c-1.669,5.646-2.945,10.573-3.856,14.778
			c-0.168,0.677-0.332,1.353-0.496,2.029c-0.291-8.419,0.485-16.168,2.408-23.235c1.921-7.069,3.697-11.975,5.27-14.722
			c-2.307-0.92-4.768-1.405-7.368-1.45c-2.603-0.045-4.768,0.106-6.479,0.442c-1.328,0.256-2.606,0.618-3.834,1.08
			c-2.264,0.895-3.814,2.315-4.676,4.233c-0.013-0.004-6.38,8.624-11.225,12.658c-1.7-3.213-3.956-5.822-6.793-7.785
			c-4.023-2.654-9.101-3.138-15.144-1.41c-4.585,1.516-8.198,4.08-10.821,7.652c-2.631,3.574-4.341,7.684-5.157,12.318
			c-0.816,4.633-0.923,8.682-0.347,12.151c0.572,3.475,1.201,6.232,1.893,8.279c2.299,6.841,5.74,11.531,10.307,14.109
			c3.135,1.762,6.705,2.016,10.759,0.772c5.706-1.801,10.083-5.017,13.159-9.709c3.077-4.697,4.934-9.816,5.527-15.393
			c0.588-5.576,0.205-10.77-1.2-15.576c-0.005-0.015-0.008-0.028-0.015-0.04c1.971-2.233,4.497-5.743,7.658-11.256
			c0.003-0.003,0.007-0.004,0.008-0.007c-0.355,2.634-0.639,5.552-0.848,8.779c-0.369,5.651-0.248,9.965,0.338,12.932
			c0.582,2.974,0.91,4.642,0.99,4.997c1.168,5.245,3.425,9.687,6.726,13.353c1.05,1.069,2.386,1.728,4.024,1.983
			c1.631,0.253,2.916,0.288,3.858,0.1c1.198-0.241,2.351-0.741,3.45-1.495c0.463-1.218,1.107-3.434,1.943-6.656
			c2.873-10.853,6.007-20.035,9.35-27.529c0.008,0.911-0.021,1.796-0.076,2.663c-0.426,6.551-0.223,11.949,0.582,16.188
			c0.68,3.57,2.173,6.699,4.469,9.391c0.912,1.117,2.055,1.852,3.424,2.2c1.363,0.348,2.493,0.446,3.391,0.294
			c1.056-0.181,2.142-0.633,3.27-1.353c0.428-0.981,1.088-2.69,1.98-5.133c4.518-12.906,9.128-23.545,13.707-31.921
			c-0.852,5.606-1.166,9.989-0.97,13.155c0.196,3.167,0.382,5.294,0.555,6.388c0.565,3.587,1.638,6.596,3.21,9.026
			c2.131,3.203,5.42,4.721,9.906,4.592c0.107-0.014,0.214-0.028,0.32-0.042c3.143-0.424,6.246-2.287,9.359-5.594
			c3.109-3.301,5.684-7.287,7.719-11.972c0.039-0.081,0.064-0.161,0.101-0.242c1.065,3.902,2.862,7.053,5.417,9.431
			c2.627,2.512,6.112,3.674,10.489,3.52c2.487-0.089,4.995-1.037,7.544-2.844c2.55-1.806,4.844-4.336,6.898-7.584
			c0.909,7.512,4.621,11.535,11.165,12.159c0.104,0,0.216,0,0.323,0c3.191-0.023,6.525-1.48,10.056-4.366
			c3.53-2.883,6.618-6.511,9.261-10.902c0.252-0.415,0.484-0.832,0.717-1.25c0.337,2.923,1.097,5.563,2.268,7.915
			c2.126,3.722,4.732,6.124,7.84,7.219c3.111,1.096,5.82,1.742,8.148,1.931c1.893,0.155,3.83,0.11,5.814-0.142
			c3.25-0.457,6.193-1.411,8.85-2.867h0.002c0.952-0.524,1.867-1.104,2.745-1.756c2.726-2.056,5.159-4.579,7.309-7.581
			c0.722-0.949,1.383-1.904,1.979-2.864c2.664-3.47,5.44-7.712,7.961-12.777c0.776,3.359,3.016,6.672,6.725,9.967
			c4.523,4.024,6.915,6.794,7.25,8.268c0.328,1.473,0.444,2.494,0.341,3.064c-0.208,1.192-0.97,2.021-2.28,2.488
			c-1.721,0.612-3.741,0.721-6.07,0.337c-2.869-0.475-5.203-1.516-7.002-3.129c-1.549-1.472-2.186-3.111-1.898-4.934
			c0.119-0.779,0.434-1.718,0.943-2.81c0.41-0.843,0.668-1.574,0.766-2.195c0.092-0.574-0.242-0.944-1.008-1.117
			c-0.941-0.092-1.863,0.247-2.768,1.013c-2.127,1.754-3.41,4.172-3.871,7.241c-0.625,4.166,0.625,7.676,3.705,10.545
			c2.165,2.04,5.25,3.375,9.272,4.038c7.562,1.25,13.646,0.68,18.335-1.801c4.684-2.475,7.523-6.095,8.457-10.899
			c0.033-0.181,0.066-0.362,0.104-0.545c0.453-4.089-0.377-7.557-2.521-10.396c-2.141-2.836-4.49-5.257-7.049-7.265
			c-1.756-1.382-3.258-2.498-4.029-3.674c-2.397-3.664,0.822-6.173,1.869-6.775c1.919-1.111,5.448-0.285,9.008,0.995
			c3.027,1.354,42.064,9.23,51.569-26.551c-0.206,0.07,9.669-32.788-17.114-62.979c-23.105-26.048-51.406-37.417-105.936-40.644
			c-49.004-2.4-71.459-17.545-87.502-58.891c-0.027,0.014-10.024,16.064-25.322,19.458c0,0.004-5.79,2.048-14.855,3.358
			c-55.15,8.324-80.453,41.168-62.987,85.118c0.11,0.067-28.487-19.608-65.539-14.652
			C64.809,162.796,69.281,225.579,115.746,232.742z M201.488,284.638c-0.473,3.917-1.354,7.365-2.637,10.35
			c-1.289,2.981-2.973,4.786-5.07,5.416c-1.584,0.475-2.693,0.004-3.333-1.425c-0.642-1.427-1.072-2.491-1.292-3.196
			c-0.568-1.811-0.998-3.993-1.293-6.546c-0.439-3.555-0.529-7.201-0.249-10.945c0.28-3.743,0.897-7.02,1.865-9.835
			c0.819-2.37,1.874-3.974,3.148-4.822c-0.204,5.042,1.007,11.105,8.73,8.525C201.982,275.788,202.02,279.947,201.488,284.638z
			 M338.301,258.869c-1.43,4.766-3.146,8.949-5.147,12.552c-2.002,3.601-3.911,5.513-5.755,5.726
			c-1.69,0.055-2.641-0.676-2.864-2.199c-0.222-1.517-0.351-2.646-0.378-3.38c-0.078-1.946,0.078-4.192,0.477-6.733
			c0.572-3.495,1.498-7.029,2.783-10.595c1.289-3.567,2.773-6.572,4.461-9.014c1.691-2.435,3.473-3.804,5.332-4.106
			c2.038,0.066,3.099,1.629,3.178,4.683C340.484,249.433,339.775,253.788,338.301,258.869z"/>
	</g>
	<path fill="#211915" d="M369.908,420.899c-2.306-1.244-4.771-2.295-7.363-3.184c-7.467-2.561-15.996-3.727-24.954-3.92
		c-39.547-0.856-87.274,17.171-87.274,17.171l-23.998-68.363c-10.942-0.431-19.767-1.534-25.868-2.533l41.581,85.494
		c92.15-37.254,135.641,2.517,135.641,2.517C384.92,426.438,369.908,420.899,369.908,420.899z"/>
	<path fill="#211915" d="M276.697,359.343c-8.113,1.363-15.857,2.254-23.141,2.782l16.877,51.897
		c4.263-1.105,9.402-2.341,15.15-3.52L276.697,359.343z"/>
	<path fill="#211915" d="M323.258,351.304c-7.266,1.897-17.711,2.897-25.365,4.69l8.26,51.065
		c5.152-0.652,10.491-1.165,15.885-1.451L323.258,351.304z"/>
	<path fill="#211915" d="M348.277,347.134l-6.568,58.563c5.334,0.375,10.572,1.064,15.602,2.152l21.012-63.648
		C366.936,344.011,356.505,346.087,348.277,347.134z"/>
</g>
</svg>
