<?xml version="1.0" encoding="utf-8"?>
<!-- Generator: Adobe Illustrator 16.0.0, SVG Export Plug-In . SVG Version: 6.00 Build 0)  -->
<!DOCTYPE svg PUBLIC "-//W3C//DTD SVG 1.1//EN" "http://www.w3.org/Graphics/SVG/1.1/DTD/svg11.dtd">
<svg version="1.1" id="Capa_1" xmlns="http://www.w3.org/2000/svg" xmlns:xlink="http://www.w3.org/1999/xlink" x="0px" y="0px"
	 width="597.244px" height="459.418px" viewBox="0 0 597.244 459.418" enable-background="new 0 0 597.244 459.418"
	 xml:space="preserve">
<g>
	<g>
		<path fill="#211915" d="M289.288,303.214c0,3.226-2.618,5.817-5.836,5.817c-3.234,0-5.844-2.591-5.844-5.817
			c0-3.225,2.609-5.834,5.844-5.834C286.67,297.379,289.288,299.989,289.288,303.214z"/>
		<path fill="#211915" d="M444.808,318.473c0,3.225-2.609,5.853-5.835,5.853c-3.208,0-5.817-2.628-5.817-5.853
			c0-3.226,2.609-5.836,5.817-5.836C442.199,312.637,444.808,315.247,444.808,318.473z"/>
		<path fill="#211915" d="M503.865,231.673c-5.78,87.669-87.236,151.872-166.115,164.195
			c-87.032,13.59-143.098-12.088-174.812-36.008c-28.467-21.491-42.993-45.428-47.223-53.221l1.732-0.905
			c-0.01-0.019-0.01-0.019-0.019-0.037c0.851-0.435,1.695-0.87,2.546-1.305l4.947-2.628c0.543-0.308,1.086-0.616,1.61-0.941
			c1.977-1.234,3.77-2.81,5.383-4.494c1.349-1.397,1.631-3.208,0.816-5.167c-1.658-3.931-3.218-7.899-4.794-11.869
			c-5.409-13.5-10.8-27-16.218-40.5c-1.06-2.645-3.197-4.168-6.052-3.878c-1.974,0.182-4.033,0.672-5.772,1.577
			c-13.174,6.813-26.284,13.737-39.339,20.748c-1.731,0.925-3.3,2.375-4.568,3.879c-1.839,2.21-1.776,4.819-0.208,7.212
			c1.903,2.844,3.814,5.689,5.717,8.535c8.274,12.359,16.553,24.717,24.801,37.093c2.272,3.407,3.94,4.312,7.918,3.152
			c2.762-0.796,5.382-2.174,8.01-3.405c1.911-0.888,3.74-1.958,5.446-2.864c0,0.017,0.007,0.017,0.007,0.017l1.813-0.941
			c4.476,8.335,19.252,32.853,48.918,55.305c20.92,15.857,44.903,27.328,71.295,34.104c19.036,4.911,39.35,7.357,60.752,7.357
			c15.562,0,31.725-1.305,48.359-3.896c81.818-12.775,166.298-79.696,172.078-171.116H503.865z M94.278,302.344
			c-1.432,0.799-2.829,0.236-3.859-1.521c-3.218-5.473-6.434-10.946-9.66-16.4c-0.008,0-0.008,0-0.019,0.019
			c-3.089-5.293-6.204-10.566-9.286-15.839c-0.943-1.65-0.698-3.026,0.58-3.842c1.369-0.888,2.844-0.453,3.814,1.177
			c3.189,5.347,6.371,10.71,9.53,16.074c3.171,5.364,6.316,10.745,9.487,16.109C95.962,299.971,95.772,301.511,94.278,302.344z
			 M106.202,296.057c-1.404,0.743-2.944,0.145-3.88-1.612c-2.926-5.509-5.825-11.018-8.743-16.526
			c-2.799-5.328-5.609-10.62-8.398-15.946c-0.308-0.599-0.754-1.323-0.625-1.868c0.235-0.942,0.651-2.139,1.384-2.574
			c0.646-0.361,1.903,0,2.739,0.363c0.569,0.272,0.94,1.086,1.268,1.722c5.599,10.564,11.171,21.147,16.761,31.711
			c0.108,0.219,0.219,0.399,0.319,0.599C107.905,293.737,107.597,295.296,106.202,296.057z M114.354,288.066
			c-2.654-5.637-5.29-11.291-7.944-16.926c0,0-0.01,0-0.018,0c-2.647-5.689-5.309-11.38-7.955-17.089
			c-0.77-1.666-0.382-3.062,0.978-3.769c1.413-0.725,2.855-0.145,3.669,1.578c4.766,10.112,9.516,20.223,14.252,30.334
			c0.572,1.215,1.151,2.429,1.732,3.661c0.843,1.793,0.409,3.315-1.115,3.987C116.503,290.475,115.172,289.822,114.354,288.066z"/>
		<g>
			<path fill="#211915" d="M288.347,60.277c-0.047,0.011-0.1,0.019-0.137,0.027c0.137-0.027,0.271-0.044,0.408-0.063
				C288.519,60.251,288.437,60.27,288.347,60.277z"/>
			<path fill="#211915" d="M181.876,130.29c0.243-0.028,0.498-0.082,0.743-0.126c-0.345,0.063-0.691,0.116-1.033,0.153
				C181.684,130.308,181.784,130.308,181.876,130.29z"/>
			<path fill="#211915" d="M285.482,60.73c0.545-0.089,1.033-0.164,1.513-0.245C286.515,60.567,286.027,60.641,285.482,60.73z"/>
			<path fill="#211915" d="M198.456,64.872c-0.325,0.045-0.614,0.118-0.922,0.164c0.387-0.063,0.777-0.136,1.159-0.182
				C198.619,64.853,198.529,64.864,198.456,64.872z"/>
			<path fill="#211915" d="M226.018,46.643c-0.342,0.044-0.706,0.135-1.042,0.208c0.435-0.09,0.878-0.189,1.313-0.235
				C226.189,46.624,226.11,46.624,226.018,46.643z"/>
			<path fill="#211915" d="M259.688,35.452c-0.562,0.073-1.105,0.181-1.64,0.299c0.58-0.126,1.16-0.236,1.748-0.309
				C259.759,35.442,259.725,35.442,259.688,35.452z"/>
			<path fill="#211915" d="M259.405,128.423c0.754-0.119,1.506-0.237,2.249-0.345c-0.208,0.026-0.417,0.055-0.625,0.082
				c-0.29,0.045-0.58,0.09-0.87,0.136C259.903,128.331,259.651,128.377,259.405,128.423z"/>
			<path fill="#211915" d="M199.979,158.93c-1.367,0.715-2.33,1.187-3.118,1.305c-1.84,0.271-2.301-1.242-2.517-3.253
				c-0.988,0.951-1.966,1.93-2.937,2.944c-2.609,2.736-4.766,5.517-6.479,8.353c-1.168,1.803-2.011,3.479-2.528,5.038
				c-0.506,1.549-0.843,2.972-0.978,4.25c-0.126,1.956,0.135,3.614,0.833,4.964c0.68,1.368,1.695,2.411,3.025,3.154
				c1.35,0.76,2.937,1.205,4.795,1.368c1.855,0.153,3.867-0.037,6.06-0.563c3.842-1.042,7.784-2.727,11.787-5.074
				c4.015-2.32,7.75-4.801,11.174-7.429c-0.617,2.093-1.205,4.666-1.751,7.71c-0.55,3.054-1.077,6.441-1.594,10.157
				c-0.514,3.715-1.03,7.719-1.539,12.032c-0.506,4.304-1.052,8.798-1.595,13.486c-0.617,5.654-1.305,11.49-2.048,17.506
				c-0.751,6.035-1.558,11.979-2.419,17.85c-0.852,5.89-1.785,11.525-2.781,16.943s-2.111,10.402-3.334,14.967l0.1-0.145
				c-0.553,1.414-1.052,2.702-1.494,3.843c-0.445,1.141-0.907,2.029-1.386,2.699c-0.48,0.798-0.725,1.576-0.725,2.319
				c-0.617,1.431-0.48,2.429,0.406,3.026c0.899,0.58,1.996,1.052,3.3,1.379c3.089,0.035,5.754-0.491,7.973-1.524
				c2.238-1.05,4.141-2.446,5.717-4.186c1.576-1.74,2.899-3.732,3.958-5.962c1.06-2.227,1.975-4.494,2.729-6.83
				c0.551-2.827,1.25-6.85,2.1-12.051c0.862-5.219,1.814-11.108,2.836-17.687c1.026-6.578,2.13-13.573,3.29-21.02
				c1.159-7.466,2.293-14.865,3.39-22.222c1.094-7.365,2.146-14.441,3.142-21.237c0.997-6.786,1.866-12.767,2.62-17.922
				c0.053-2.019,0.027-3.851-0.108-5.517c-0.129-1.641-0.464-3.055-0.98-4.204c-0.506-1.16-1.231-2.003-2.165-2.546
				c-0.925-0.544-2.14-0.717-3.642-0.509c-0.97,0.119-2.103,0.453-3.398,0.962c-1.305,0.517-2.646,1.16-4.014,1.948
				c-1.168,0.679-2.781,1.766-4.84,3.279c-2.063,1.495-4.193,3.126-6.379,4.829c-1.584,1.189-3.215,2.412-4.892,3.689
				c-1.685,1.259-3.36,2.464-5.047,3.588c-1.684,1.114-3.287,2.156-4.836,3.116c-1.532,0.944-2.955,1.74-4.26,2.356
				c-2.201,0.896-3.833,1.123-4.902,0.669c-1.05-0.443-1.529-1.305-1.384-2.591c0.071-0.978,0.417-2.101,1.031-3.379
				c0.616-1.278,1.479-2.654,2.575-4.141c1.993-2.654,5.074-5.698,9.26-9.133c2.391-1.966,5.063-3.923,8.026-5.871
				c-1.357,0.708-2.718,1.422-4.059,2.128C203.964,156.845,201.972,157.887,199.979,158.93z"/>
			<path fill="#211915" d="M196.861,158.993c0.018-0.01,0.044-0.01,0.063-0.018c-0.034,0.008-0.082,0.008-0.116,0.018
				C196.826,158.983,196.842,158.993,196.861,158.993z"/>
			<path fill="#211915" d="M236.72,323.401c6.107-3.516,11.987-7.612,17.649-12.287c5.665-4.675,10.72-9.804,15.167-15.348
				c4.479-5.563,8.118-11.488,10.965-17.777c2.844-6.305,4.539-12.847,5.093-19.606c0.134-1.504,0.189-3.063,0.152-4.658
				c-0.026-1.594-0.118-3.117-0.263-4.603c-0.688-6.07-2.997-11.488-6.948-16.272c-3.941-4.766-9.75-8.281-17.441-10.511
				c6.044-2.446,11.405-5.73,16.099-9.834c4.703-4.088,8.68-8.708,11.943-13.846c3.261-5.128,5.833-10.591,7.71-16.39
				c1.89-5.791,3.031-11.589,3.447-17.379c0.074-0.597,0.127-1.24,0.146-1.958c0.036-0.715,0.055-1.331,0.055-1.848
				c0.072-7.449-0.943-13.664-3.025-18.666c-1.466-3.479-3.313-6.414-5.532-8.871c-0.09,0.517-0.264,0.962-0.554,1.323
				c-0.234,0.308-0.662,0.706-1.341,0.807c-0.606,0.082-1.23-0.073-2.108-0.309c-0.861-0.216-1.933-0.489-3.282-0.58
				c-7.918-0.506-16.162-0.153-24.489,1.078c-5.691,0.844-11.597,2.112-17.523,3.77c1.015-0.198,2.019-0.372,3.008-0.506
				c4.257-0.58,8.126-0.553,11.624,0.082c2.683,0.452,5.148,1.268,7.412,2.446c2.265,1.178,4.205,2.809,5.817,4.892
				c1.603,2.085,2.863,4.658,3.751,7.739c0.907,3.08,1.313,6.704,1.241,10.873c0,0.606-0.019,1.223-0.045,1.857
				c-0.048,0.634-0.092,1.286-0.155,1.965c-0.406,5.039-1.432,10.112-3.044,15.196c-1.603,5.1-3.903,9.984-6.884,14.668
				c-2.981,4.676-6.706,9.007-11.163,12.949c-4.457,3.96-9.705,7.315-15.749,10.07c-0.397,0.364-0.751,0.834-1.03,1.433
				c-0.274,0.597-0.454,1.213-0.564,1.866c-0.09,0.653-0.134,1.251-0.09,1.794c0.019,0.562,0.183,0.961,0.454,1.215
				c4.937-0.073,9.141,0.435,12.602,1.577c3.463,1.123,6.281,2.699,8.445,4.747c2.167,2.048,3.725,4.531,4.684,7.467
				c0.962,2.899,1.405,6.125,1.342,9.621c-0.071,5.509-1.097,11.127-3.082,16.872c-1.993,5.744-4.673,11.362-8.026,16.889
				c-3.363,5.509-7.259,10.745-11.679,15.692c-4.423,4.966-9.125,9.387-14.099,13.248c-4.974,3.877-10.084,7.103-15.34,9.639
				c-5.235,2.52-10.338,4.15-15.274,4.821c-0.754,0.089-1.505,0.182-2.268,0.234c-0.751,0.074-1.539,0.092-2.364,0.056
				c-5.082,0.018-9.55-0.926-13.438-2.846c-3.877-1.92-7.085-4.656-9.613-8.172c-2.546-3.516-4.386-7.72-5.517-12.631
				c-1.134-4.91-1.486-10.274-1.078-16.146c0.135-2.319,0.461-4.801,0.978-7.429c0.506-2.646,1.152-5.255,1.903-7.902
				c1.16-3.805,2.755-7.501,4.773-11.088c2.029-3.589,4.223-6.778,6.579-9.587c2.375-2.827,4.811-5.146,7.322-6.977
				c2.499-1.829,4.847-2.899,7.037-3.189c1.442-0.199,2.747,0,3.914,0.58c1.171,0.58,2.167,1.613,2.992,3.1
				c0.825,1.485,1.423,3.479,1.792,5.943c0.382,2.481,0.464,5.526,0.263,9.115c0.491,0.598,1.107,0.851,1.858,0.743
				c0.751-0.092,1.603-0.944,2.564-2.574c0.145-0.834,0.261-1.723,0.361-2.609c0.108-0.905,0.19-1.74,0.253-2.483
				c0.29-4.059,0.091-7.466-0.562-10.202c-0.651-2.736-1.702-4.91-3.134-6.542c-1.45-1.613-3.182-2.699-5.211-3.243
				c-2.019-0.544-4.23-0.653-6.64-0.326c-3.489,0.488-7.214,1.848-11.154,4.095c-3.941,2.266-7.739,5.128-11.371,8.626
				c-3.643,3.516-6.922,7.575-9.884,12.177c-2.937,4.602-5.174,9.495-6.679,14.696c-0.696,2.411-1.212,4.73-1.595,6.977
				c-0.38,2.229-0.67,4.476-0.878,6.741c-0.542,7.23,0.108,13.716,1.967,19.534c1.848,5.817,4.61,10.8,8.281,14.987
				c3.677,4.186,8.145,7.52,13.435,9.984c5.285,2.483,11.11,3.985,17.497,4.529c3.635,0.326,7.438,0.218,11.418-0.325
				c5.562-0.78,11.442-2.284,17.649-4.531C224.45,329.799,230.612,326.917,236.72,323.401z"/>
			<path fill="#211915" d="M290.068,134.431c-0.044,0.008-0.1,0.008-0.145,0.008c0.045,0,0.082,0.009,0.108,0
				C290.05,134.438,290.058,134.431,290.068,134.431z"/>
			<path fill="#211915" d="M212.365,108.063c-0.316-0.236-0.635-0.462-0.952-0.679C211.729,107.611,212.048,107.827,212.365,108.063
				z"/>
			<path fill="#211915" d="M207.499,105.472c-0.045-0.019-0.09-0.036-0.145-0.054C207.409,105.437,207.454,105.454,207.499,105.472z
				"/>
			<path fill="#211915" d="M213.316,108.715c-0.319-0.217-0.635-0.435-0.952-0.652C212.681,108.28,212.997,108.507,213.316,108.715z
				"/>
			<path fill="#211915" d="M222.033,112.24c-0.126-0.018-0.263-0.036-0.401-0.063C221.77,112.204,221.906,112.222,222.033,112.24z"
				/>
			<path fill="#211915" d="M219.513,111.66c-0.126-0.045-0.271-0.099-0.435-0.145C219.241,111.561,219.368,111.615,219.513,111.66z"
				/>
			<path fill="#211915" d="M215.58,110.048c-0.126-0.065-0.245-0.128-0.361-0.191C215.335,109.92,215.454,109.983,215.58,110.048z"
				/>
			<path fill="#211915" d="M230.702,112.113c-0.227,0.045-0.443,0.082-0.662,0.119C230.259,112.194,230.475,112.168,230.702,112.113
				z"/>
			<path fill="#211915" d="M205.153,105.146L205.153,105.146L205.153,105.146z"/>
			<path fill="#211915" d="M232.95,111.615c0.39-0.1,0.762-0.198,1.149-0.308c-0.38,0.1-0.759,0.208-1.131,0.308
				C232.969,111.615,232.958,111.615,232.95,111.615z"/>
			<path fill="#211915" d="M234.1,111.307c-0.38,0.11-0.759,0.208-1.131,0.308C233.34,111.515,233.72,111.407,234.1,111.307z"/>
			<path fill="#211915" d="M229.263,112.349c-0.253,0.027-0.517,0.054-0.762,0.09C228.746,112.412,229.01,112.376,229.263,112.349z"
				/>
			<path fill="#211915" d="M226.237,112.576c-0.119,0-0.238,0-0.354,0C226,112.576,226.118,112.576,226.237,112.576z"/>
			<path fill="#211915" d="M217.138,149.27c-2.535,1.46-4.892,2.917-7.103,4.395c10.475-5.473,21.248-10.827,32.257-13.934
				c0.119-0.029,0.227-0.065,0.345-0.092c-3.624,0.698-7.367,1.795-11.244,3.271C226.416,144.831,221.669,146.933,217.138,149.27z"
				/>
			<path fill="#211915" d="M207.662,145.936c0.28-0.19,0.535-0.37,0.796-0.551c-1.049,0.515-2.111,1.041-3.153,1.584
				c1.042-0.543,2.104-1.069,3.153-1.584c0.018-0.011,0.037-0.029,0.044-0.046c-3.07,1.532-6.16,3.126-9.23,4.793
				c1.576-0.852,3.134-1.676,4.71-2.501c-1.576,0.825-3.134,1.65-4.71,2.501c-1.416-3.227-0.743-5.264,2.246-6.968
				c3.679-2.093,7.23-4.558,10.828-6.868c-0.073-0.2-0.145-0.39-0.208-0.572c-4.404,1.885-8.806,3.78-13.363,5.736
				c-1.688-7.792-0.129-11.471,6.45-15.575c0.896-0.562,1.848-1.06,2.791-1.513c1.342-0.643,2.69-1.277,4.033-1.893
				c0.034-0.019,0.079-0.029,0.108-0.046c-0.029,0.017-0.074,0.027-0.108,0.046c0.759-0.345,1.529-0.699,2.283-1.025
				c-0.011,0-0.019,0.011-0.019,0.011s0.008-0.011,0.019-0.011c0.343-0.153,0.68-0.298,1.022-0.443
				c0.045-0.019,0.082-0.046,0.126-0.063c-0.044,0.017-0.082,0.044-0.126,0.063c2.167-0.951,4.331-1.849,6.498-2.7
				c0.008,0,0.018-0.009,0.026-0.009c-0.008,0-0.019,0.009-0.026,0.009c3.178-1.25,6.386-2.401,9.594-3.434h-0.026h0.026
				c2.156-0.698,4.322-1.35,6.479-1.948l-0.019,0.009l0.019-0.009c0.379-0.109,0.762-0.208,1.142-0.307l0.026-0.01l-0.026,0.01
				c0.78-0.219,1.558-0.417,2.355-0.609c-0.044,0.011-0.089,0.029-0.145,0.037c0.056-0.007,0.101-0.026,0.145-0.037
				c3.543-0.887,7.104-1.63,10.673-2.227c-0.019,0-0.019,0-0.035,0.008c0.016-0.008,0.016-0.008,0.035-0.008
				c0.345-0.056,0.699-0.109,1.043-0.164c0.026-0.009,0.063-0.009,0.09-0.019c-0.026,0.009-0.063,0.009-0.09,0.019
				c0.662-0.109,1.313-0.208,1.966-0.299c0,0.009,0,0.009,0,0.009s0,0,0-0.009c0.885-0.117,1.774-0.236,2.663-0.344
				c0,0,0.01,0,0.018,0c-0.008,0-0.008,0-0.008,0c0.417-0.046,0.852-0.1,1.276-0.156l0,0l0,0c0.353-0.036,0.717-0.071,1.078-0.108
				c0.952-0.1,1.903-0.19,2.855-0.262c5.728-0.444,11.452-0.336,17.106-0.109c2.754,0.109,5.163,1.269,5.4,5.102
				c-5.119,0.036-9.995,0.054-14.868,0.091c4.375,1.214,8.832,1.967,13.247,2.799c0.804,0.154,2.109,0.479,2.19,1.042
				c0.435,3.009,0.564,6.125,0.817,9.586c-1.531-0.082-3.056-0.117-4.576-0.153c2.345,0.978,4.512,2.238,6.505,3.795
				c0.725,0.58,1.431,1.197,2.092,1.858c0-0.046,0-0.109,0-0.163c0,0.054,0,0.117,0,0.163c0.353,0.354,0.699,0.714,1.034,1.086
				c0.126-0.688,0.135-1.521,0.082-2.563c-0.108-2.41-0.562-6.651-0.997-10.763c-0.282-2.592-0.546-5.057-0.698-6.859
				c0.208-0.136,0.416-0.271,0.624-0.399c0.889-0.552,1.722-1.067,2.557-1.621c12.009-7.884,18.424-21.917,16.376-35.771
				C308.194,64.273,299.459,57.46,288.618,59l-0.271,0.036c-0.572,0.092-1.142,0.182-1.758,0.282l-0.093,0.008
				c-1.268-10.473-4.609-22.378-17.965-24.906c-2.955-0.563-5.944-0.635-8.843-0.209c-7.412,1.097-14.571,5.301-21.865,12.867
				c-4.274-1.695-8.054-2.23-11.813-1.676c-1.297,0.199-2.602,0.524-3.888,0.978c-6.932,2.483-12.631,7.602-17.404,15.63
				c-0.372,0.616-1.233,1.296-1.523,1.331c-1.614-0.026-3.217,0.074-4.74,0.299c-8.952,1.323-16.308,6.977-21.891,16.816
				c-5.888,10.429-7.267,20.958-4.093,31.296c0.416,1.34,0.306,1.929-0.564,3.107c-5.29,7.121-7.084,14.271-5.327,21.237
				c1.822,7.23,7.413,11.063,14.605,10.003c0.256-0.036,0.517-0.082,0.789-0.135c2.81-0.553,5.574-1.486,8.49-2.475
				c0.962-0.335,1.958-0.67,2.973-0.997c0.09,1.405,0.189,3.271,0.309,5.219c0.163,3,0.334,6.107,0.471,7.847
				c0.035,0.489,0.071,0.97,0.127,1.423c1.685-1.641,3.397-3.2,5.137-4.685C202.262,149.95,204.979,147.831,207.662,145.936z
				 M290.901,132.055c0-0.253,0-0.524-0.018-0.833C290.901,131.531,290.901,131.802,290.901,132.055z M245.254,111.098
				c0.108-0.008,0.208-0.036,0.298-0.063C245.462,111.063,245.362,111.09,245.254,111.098z M266.557,104.801
				c0.361-0.037,0.74-0.063,1.078-0.117C267.297,104.738,266.918,104.764,266.557,104.801z M283.935,104.938
				c0.179,0.044,0.371,0.108,0.551,0.152C284.306,105.046,284.113,104.983,283.935,104.938z M288.347,60.277
				c0.089-0.008,0.171-0.026,0.271-0.036c-0.137,0.019-0.271,0.036-0.408,0.063C288.247,60.296,288.3,60.288,288.347,60.277z
				 M286.995,60.485c-0.48,0.082-0.968,0.156-1.513,0.245C286.027,60.641,286.515,60.567,286.995,60.485z M266.048,35.325
				c-0.245-0.018-0.472-0.018-0.706-0.054C265.576,35.307,265.803,35.307,266.048,35.325z M263.929,35.189
				c-0.29,0-0.562,0.008-0.843,0.019C263.367,35.198,263.639,35.189,263.929,35.189z M261.844,35.225
				c-0.298,0.019-0.588,0.065-0.888,0.091C261.256,35.29,261.546,35.244,261.844,35.225z M259.688,35.452
				c0.037-0.01,0.071-0.01,0.108-0.01c-0.588,0.073-1.167,0.182-1.748,0.309C258.583,35.633,259.126,35.525,259.688,35.452z
				 M257.632,35.852c-0.464,0.099-0.917,0.227-1.368,0.353C256.715,36.078,257.168,35.95,257.632,35.852z M255.719,36.368
				c-0.47,0.134-0.941,0.297-1.395,0.479C254.777,36.666,255.249,36.502,255.719,36.368z M253.979,36.956
				c-0.569,0.227-1.131,0.472-1.694,0.717C252.848,37.427,253.409,37.182,253.979,36.956z M251.849,37.889
				c-0.424,0.191-0.852,0.409-1.268,0.626C250.998,38.297,251.425,38.08,251.849,37.889z M250.064,38.795
				c-0.469,0.264-0.934,0.525-1.394,0.807C249.131,39.32,249.595,39.059,250.064,38.795z M248.406,39.755
				c-0.543,0.336-1.078,0.699-1.613,1.061C247.329,40.454,247.863,40.091,248.406,39.755z M246.351,41.142
				c-0.409,0.282-0.807,0.571-1.205,0.88C245.544,41.713,245.942,41.423,246.351,41.142z M244.667,42.383
				c-0.491,0.371-0.962,0.761-1.434,1.151C243.704,43.145,244.176,42.754,244.667,42.383z M243.08,43.661
				c-0.517,0.454-1.042,0.907-1.55,1.377C242.038,44.568,242.563,44.115,243.08,43.661z M241.087,45.446
				c-0.382,0.353-0.77,0.725-1.151,1.096C240.317,46.17,240.705,45.799,241.087,45.446z M237.979,48.535
				c0.506-0.524,1.004-1.05,1.502-1.548C238.983,47.484,238.485,48.01,237.979,48.535c-0.554-0.227-1.107-0.443-1.658-0.643
				C236.872,48.092,237.426,48.308,237.979,48.535z M235.805,47.72c-0.4-0.137-0.807-0.264-1.197-0.381
				C234.998,47.457,235.404,47.583,235.805,47.72z M234.028,47.177c-0.435-0.109-0.87-0.219-1.305-0.3
				C233.158,46.958,233.593,47.068,234.028,47.177z M232.288,46.778c-0.579-0.091-1.159-0.181-1.739-0.236
				C231.129,46.597,231.709,46.687,232.288,46.778z M230.132,46.505c-0.453-0.027-0.925-0.045-1.386-0.045
				C229.208,46.46,229.679,46.479,230.132,46.505z M228.148,46.47c-0.427,0.009-0.852,0.036-1.279,0.091
				C227.296,46.505,227.721,46.479,228.148,46.47z M226.018,46.643c0.092-0.019,0.171-0.019,0.271-0.028
				c-0.435,0.046-0.877,0.145-1.313,0.235C225.312,46.778,225.676,46.687,226.018,46.643z M224.315,46.977
				c-0.654,0.154-1.315,0.345-1.985,0.589C223,47.322,223.662,47.131,224.315,46.977z M205.425,62.914
				c-0.029,0.054-0.074,0.091-0.1,0.128C205.351,63.005,205.396,62.968,205.425,62.914z M205.143,63.269
				c-0.037,0.036-0.09,0.08-0.126,0.134C205.053,63.349,205.106,63.305,205.143,63.269z M204.816,63.585
				c-0.045,0.044-0.09,0.1-0.145,0.135C204.726,63.685,204.771,63.63,204.816,63.585z M204.48,63.894
				c-0.044,0.044-0.107,0.082-0.152,0.117C204.373,63.975,204.436,63.938,204.48,63.894z M204.127,64.156
				c-0.052,0.036-0.108,0.072-0.163,0.109C204.02,64.228,204.075,64.191,204.127,64.156z M203.767,64.373
				c-0.047,0.026-0.11,0.045-0.155,0.073C203.656,64.418,203.719,64.399,203.767,64.373z M203.421,64.518
				c-0.044,0.019-0.1,0.026-0.137,0.037C203.321,64.544,203.376,64.537,203.421,64.518z M200.83,64.637
				c-0.234,0.007-0.461,0.044-0.68,0.063C200.369,64.682,200.596,64.645,200.83,64.637z M198.456,64.872
				c0.074-0.008,0.163-0.019,0.237-0.019c-0.382,0.046-0.772,0.119-1.159,0.182C197.841,64.99,198.131,64.917,198.456,64.872z
				 M196.942,65.143c-0.58,0.126-1.16,0.264-1.729,0.427C195.783,65.407,196.363,65.27,196.942,65.143z M196.326,70.771
				L196.326,70.771L196.326,70.771z M195.087,65.605c-0.527,0.154-1.044,0.326-1.55,0.517
				C194.043,65.931,194.56,65.76,195.087,65.605z M194.47,71.495c-0.055,0.026-0.108,0.045-0.156,0.063
				C194.362,71.54,194.415,71.521,194.47,71.495z M192.983,66.34c-0.371,0.136-0.732,0.29-1.078,0.444
				C192.251,66.629,192.612,66.476,192.983,66.34z M191.281,67.074c-0.335,0.173-0.654,0.334-0.962,0.498
				C190.627,67.408,190.946,67.247,191.281,67.074z M189.687,67.916c-0.309,0.19-0.617,0.381-0.934,0.572
				C189.069,68.297,189.378,68.105,189.687,67.916z M188.181,68.868c-0.343,0.227-0.662,0.453-0.978,0.688
				C187.52,69.321,187.838,69.094,188.181,68.868z M186.713,69.919c-0.469,0.361-0.934,0.751-1.386,1.141
				C185.779,70.67,186.244,70.28,186.713,69.919z M186.895,76.85c-0.082,0.082-0.152,0.162-0.227,0.244
				C186.742,77.012,186.813,76.932,186.895,76.85z M185.255,71.133c-0.435,0.38-0.861,0.778-1.278,1.204
				C184.394,71.912,184.82,71.514,185.255,71.133z M185.055,78.861c-0.063,0.064-0.107,0.127-0.152,0.172
				C184.947,78.989,184.992,78.925,185.055,78.861z M183.534,72.8c-0.29,0.298-0.58,0.606-0.862,0.924
				C182.954,73.406,183.244,73.098,183.534,72.8z M182.193,74.276c-0.272,0.318-0.525,0.617-0.781,0.944
				C181.668,74.893,181.921,74.594,182.193,74.276z M180.933,75.835c-0.253,0.326-0.506,0.671-0.743,1.006
				C180.427,76.506,180.68,76.161,180.933,75.835z M179.736,77.458c-0.253,0.389-0.517,0.779-0.77,1.178
				C179.22,78.236,179.483,77.846,179.736,77.458z M178.613,79.197c-0.372,0.587-0.743,1.195-1.086,1.811
				C177.87,80.393,178.241,79.785,178.613,79.197z M167.688,135.626c0.108,0.425,0.215,0.834,0.361,1.232
				C167.903,136.46,167.796,136.051,167.688,135.626z M168.202,137.248c0.092,0.253,0.192,0.517,0.29,0.77
				C168.394,137.765,168.294,137.501,168.202,137.248z M168.703,138.434c0.098,0.217,0.198,0.444,0.324,0.652
				C168.9,138.878,168.8,138.651,168.703,138.434z M169.271,139.504c0.108,0.197,0.227,0.389,0.335,0.58
				C169.498,139.893,169.38,139.702,169.271,139.504z M169.915,140.473c0.126,0.172,0.237,0.353,0.372,0.525
				C170.152,140.826,170.042,140.646,169.915,140.473z M170.622,141.352c0.126,0.163,0.271,0.327,0.416,0.461
				C170.893,141.679,170.748,141.515,170.622,141.352z M171.391,142.149c0.145,0.126,0.29,0.271,0.445,0.399
				C171.681,142.42,171.536,142.275,171.391,142.149z M172.235,142.846c0.155,0.119,0.308,0.227,0.471,0.346
				C172.543,143.073,172.39,142.965,172.235,142.846z M173.131,143.445c0.174,0.108,0.337,0.208,0.509,0.299
				C173.468,143.653,173.305,143.553,173.131,143.445z M174.093,143.961c0.182,0.072,0.353,0.163,0.543,0.227
				C174.445,144.125,174.275,144.034,174.093,143.961z M175.107,144.359c0.182,0.074,0.38,0.145,0.562,0.191
				C175.487,144.504,175.29,144.433,175.107,144.359z M176.167,144.677c0.201,0.046,0.391,0.09,0.598,0.135
				C176.558,144.768,176.368,144.723,176.167,144.677z M177.29,144.885c0.2,0.036,0.408,0.065,0.617,0.082
				C177.698,144.95,177.49,144.92,177.29,144.885z M178.45,144.995c0.208,0.019,0.417,0.019,0.643,0.019
				C178.866,145.013,178.658,145.013,178.45,144.995z M179.654,145.002c0.211-0.017,0.435-0.026,0.662-0.053
				C180.089,144.976,179.865,144.985,179.654,145.002z M181.186,144.857c-0.097,0.019-0.197,0.019-0.29,0.027
				c0.345-0.035,0.69-0.09,1.033-0.154C181.676,144.775,181.423,144.831,181.186,144.857z M194.478,131.078
				c-0.896,3.099-2.346,4.583-4.802,5.464c-2.718,0.959-5.454,2.093-8.2,2.563c-0.29,0.036-0.562,0.054-0.841,0.091
				c0.019,0,0.026,0,0.035-0.009c-0.008,0.009-0.016,0.009-0.035,0.009c-0.189,0.019-0.4,0.036-0.58,0.063h-0.01h0.01
				c-0.843,0.037-1.639,0-2.375-0.127c0-0.01-0.007-0.01-0.007-0.01s0.007,0,0.007,0.01c-0.371-0.074-0.732-0.163-1.078-0.271l0,0
				l0,0c-0.182-0.046-0.345-0.128-0.517-0.191l0.026,0.009l-0.026-0.009c-0.153-0.063-0.297-0.109-0.443-0.191h-0.019h0.019
				c-0.182-0.071-0.353-0.171-0.517-0.271c0.019,0,0.045,0.009,0.063,0.028c-0.019-0.019-0.045-0.028-0.063-0.028
				c-0.137-0.071-0.271-0.153-0.39-0.227l0,0l0,0c-0.291-0.199-0.562-0.398-0.799-0.625h-0.008h0.008
				c-0.134-0.108-0.252-0.245-0.379-0.372c0.008,0.009,0.019,0.009,0.019,0.019c0-0.009-0.011-0.009-0.019-0.019
				c-0.345-0.372-0.67-0.743-0.941-1.197l0,0l0,0c-0.1-0.162-0.192-0.334-0.29-0.506c0,0.019,0.026,0.036,0.034,0.054
				c-0.008-0.019-0.034-0.036-0.034-0.054c-0.527-0.988-0.889-2.148-1.052-3.435c0.008,0.063,0.018,0.145,0.037,0.208
				c-0.019-0.063-0.029-0.145-0.037-0.208c-0.019-0.119-0.037-0.227-0.056-0.344c0,0,0,0,0-0.01c0,0.01,0,0.01,0,0.01
				c-0.019-0.246-0.037-0.507-0.037-0.779c0,0.008,0,0.019,0,0.026c0-0.008,0-0.018,0-0.026c-0.016-0.163-0.016-0.336-0.034-0.509
				c0,0,0,0,0-0.008c0,0.008,0,0.008,0,0.008c0-0.887,0.071-1.821,0.227-2.817c0.822-5.227,3.506-9.604,6.677-13.708
				c1.713-2.21,3.535-4.303,5.319-6.45c-0.082-0.126-0.172-0.227-0.264-0.336c-1.521,0.853-3.053,1.704-4.803,2.682
				c-3.16-10.002-1.513-19.66,4.929-28.44c1.415-1.913,2.865-3.561,4.35-4.966c0.382-0.362,0.77-0.707,1.17-1.041l0.008-0.011
				l-0.008,0.011c0.58-0.491,1.16-0.952,1.748-1.36c-0.026,0.019-0.071,0.045-0.108,0.063c0.037-0.018,0.082-0.044,0.108-0.063
				c2.52-1.803,5.119-2.953,7.802-3.524c0.026-0.009,0.053-0.019,0.071-0.019c-0.018,0-0.044,0.009-0.071,0.019
				c5.363-1.16,11.007-0.019,16.771,2.844c0.019-0.099,0.045-0.171,0.063-0.253c-1.721-1.993-3.725-4.113-5.899-6.107
				c0,0,2.327-6.832,8.542-11.297c0.029-0.019,0.055-0.037,0.082-0.055c0.011-0.019,0.011-0.019,0.029-0.026l0,0
				c1.331-0.952,2.725-1.74,4.167-2.32l-0.008,0.008l0.008-0.008c2.457-0.979,5.047-1.386,7.583-1.078
				c6.579,0.777,11.145,4.738,14.552,10.356c0.852,1.413,1.584,2.935,2.365,4.402c0.163-0.108,0.334-0.198,0.498-0.298
				l-4.241-12.151c0,0-1.985-2.563,0.364-5.1c0,0,2.256-3.605,8.669-6.469c1.36-0.807,2.764-1.485,4.204-1.994l0.018-0.018
				l-0.018,0.018c4.088-1.467,8.5-1.647,12.984,0.182c11.861,4.821,16.191,20.585,9.694,34.837
				c-0.424,0.952-0.833,1.913-1.239,2.864c0.243,0.127,0.498,0.244,0.733,0.372c1.486-2.754,3.832-7.068,5.137-8.843
				c0,0,2.022-6.37,10.501-4.929c0.056,0.009,0.108,0.018,0.164,0.036c0,0,0.008,0,0.018,0c-0.01,0-0.018,0-0.018,0
				c0.026,0,0.07,0.019,0.108,0.019c0.108,0.026,0.252,0.045,0.382,0.072c0.089,0.019,0.189,0.036,0.29,0.063c0,0,0,0-0.019,0
				c0.019,0,0.019,0,0.019,0c0.108,0.019,0.227,0.054,0.343,0.082c0.019,0,0.045,0.009,0.074,0.009v0.009
				c0.58,0.162,1.123,0.362,1.663,0.625l-0.023-0.009l0.023,0.009c0.306,0.145,0.596,0.309,0.886,0.481c0,0-0.016-0.01-0.016-0.018
				c0,0.008,0.016,0.018,0.016,0.018c0.382,0.235,0.743,0.489,1.106,0.751v0.009v-0.009c0.272,0.217,0.525,0.435,0.778,0.671
				c-0.016,0-0.016,0-0.016,0s0,0,0.016,0c0.037,0.036,0.073,0.063,0.092,0.109c0.018,0.017,0.037,0.026,0.053,0.045
				c-0.016-0.019-0.035-0.028-0.053-0.045c0.29,0.279,0.58,0.588,0.851,0.915c0,0.008,0.019,0.008,0.019,0.019
				c0-0.011-0.019-0.011-0.019-0.019c0.163,0.199,0.327,0.398,0.472,0.617c0-0.018,0-0.018,0-0.037c0,0.019,0,0.019,0,0.037
				c0.235,0.298,0.454,0.615,0.651,0.941l0,0l0,0c0.073,0.1,0.126,0.201,0.182,0.29c0.019,0.009,0.019,0.009,0.019,0.019
				c0-0.009,0-0.009-0.019-0.019c0.216,0.345,0.398,0.68,0.58,1.033c0.271,0.58,0.524,1.187,0.762,1.795
				c2.773,7.457,1.413,17.567-4.078,24.281c-2.641,3.234-6.257,5.917-9.782,7.755c-1.159,0.599-2.627,0.082-4.148-0.407
				c-0.129-0.045-0.256-0.082-0.383-0.127c0.127,0.045,0.254,0.082,0.383,0.127c-0.799-0.272-1.624-0.526-2.412-0.625
				c0.272,0.044,0.535,0.089,0.817,0.145c-0.282-0.055-0.545-0.1-0.817-0.145c-2.491-0.29-2.672-1.641-2.011-4.178
				c1.305-4.874,1.015-9.586-0.316-14.081c-0.335,0.717-0.445,1.414-0.49,2.104c-0.063,0.878-0.153,1.703-0.271,2.509
				c0,0.008,0,0.008,0,0.019c0-0.011,0-0.011,0-0.019c-0.171,1.268-0.417,2.437-0.717,3.516c0,0.017,0,0.036,0,0.036
				s0-0.019,0-0.036c-0.153,0.534-0.324,1.06-0.506,1.54c0,0.009,0,0.009,0,0.009s0,0,0-0.009c-0.717,1.929-1.668,3.524-2.891,4.793
				l0,0l0,0c-0.098,0.099-0.19,0.18-0.298,0.28c0,0.009,0,0.009,0,0.009s0,0,0-0.009c-0.346,0.327-0.688,0.634-1.07,0.915l0,0l0,0
				c-0.216,0.163-0.443,0.317-0.669,0.479l0,0l0,0c-0.39,0.245-0.799,0.472-1.205,0.672l0.019-0.011l-0.019,0.011
				c-0.164,0.082-0.319,0.153-0.48,0.227l0,0l0,0c-0.263,0.116-0.535,0.216-0.817,0.325c0,0,0,0,0-0.009c0,0.009,0,0.009,0,0.009
				c-0.163,0.063-0.327,0.126-0.488,0.181c0,0,0,0-0.018,0c0.018,0,0.018,0,0.018,0c-0.327,0.1-0.654,0.2-0.988,0.282h0.008h-0.008
				c-0.153,0.036-0.29,0.082-0.435,0.117h-0.008l0,0c-1.542,0.362-3.255,0.534-5.166,0.544c0.653,0,1.286-0.019,1.885-0.065
				c-0.599,0.046-1.231,0.065-1.885,0.065c-6.885,0.044-8.914-2.13-9.341-9.805c-0.208-3.896-0.57-7.764-0.859-11.661
				c-0.263,0.046-0.527,0.082-0.78,0.119c-0.127,1.268-0.227,2.537-0.316,3.795c-0.825,12.033-7.72,20.686-18.604,23.92
				c-0.388,0.11-0.759,0.208-1.149,0.308c-0.751,0.2-1.505,0.362-2.248,0.498c-0.227,0.056-0.443,0.082-0.662,0.119
				c-0.126,0.019-0.271,0.054-0.398,0.071l0,0l0,0c-0.145,0.019-0.253,0.029-0.379,0.046c-0.253,0.027-0.517,0.063-0.762,0.09
				c-0.327,0.027-0.636,0.055-0.933,0.073h-0.026h0.026c-0.153,0.009-0.297,0.017-0.454,0.028h0.011h-0.011
				c-0.29,0.008-0.587,0.017-0.877,0.036c-0.119,0-0.238,0-0.354,0c-0.246,0-0.498,0-0.754-0.019c0,0-0.008,0-0.019,0
				c0.011,0,0.011,0,0.011,0c-0.108,0-0.227-0.009-0.335-0.017c0,0,0,0,0.019,0c-0.019,0-0.019,0-0.019,0
				c-0.617-0.028-1.223-0.074-1.813-0.155c-0.008,0-0.008,0-0.008,0s0,0,0.008,0c-0.1-0.008-0.208-0.018-0.298-0.027h0.026h-0.026
				c-0.219-0.037-0.427-0.072-0.643-0.118c-0.126-0.018-0.263-0.036-0.401-0.063c-0.271-0.063-0.569-0.117-0.851-0.181l0,0l0,0
				c-0.417-0.099-0.833-0.208-1.268-0.336c-0.145-0.045-0.271-0.099-0.435-0.145c-0.182-0.053-0.372-0.118-0.562-0.171
				c0-0.009,0-0.009,0-0.009s0,0,0,0.009c-0.074-0.026-0.145-0.056-0.219-0.091h0.011h-0.011c-0.923-0.334-1.829-0.734-2.718-1.204
				c-0.126-0.065-0.245-0.128-0.361-0.191c-0.227-0.118-0.454-0.244-0.69-0.38c0,0-0.016-0.009-0.035-0.018
				c0.019,0.009,0.035,0.018,0.035,0.018c-0.127-0.082-0.261-0.163-0.398-0.245h0.01h-0.01c-0.272-0.171-0.543-0.335-0.814-0.517
				c-0.319-0.208-0.635-0.435-0.952-0.652c-0.316-0.236-0.635-0.452-0.952-0.679c-0.327-0.208-0.653-0.427-0.988-0.617
				c0.219,0.136,0.445,0.271,0.653,0.409c-0.208-0.137-0.435-0.273-0.653-0.409c-0.316-0.19-0.651-0.39-0.986-0.543
				c0.19,0.089,0.38,0.19,0.562,0.298c-0.182-0.108-0.372-0.208-0.562-0.298c-0.326-0.173-0.672-0.317-1.015-0.454
				c0.172,0.054,0.335,0.136,0.499,0.199c-0.164-0.063-0.327-0.145-0.499-0.199c-0.309-0.118-0.616-0.227-0.925-0.299
				c-0.045-0.019-0.09-0.036-0.145-0.054c-0.707-0.182-1.442-0.271-2.201-0.271l0,0c-0.401,0-0.799,0.045-1.207,0.108
				c0.036,0.271,0.036,0.535-0.008,0.797c2.762,1.966,5.591,3.742,8.018,6.043c2.628,2.501,1.94,4.322-1.595,6.198
				c-3.643,1.938-7.412,3.697-10.765,6.18C197.478,126.039,195.195,128.631,194.478,131.078z"/>
			<path fill="#211915" d="M260.13,108.715c0.952-0.1,1.903-0.19,2.855-0.262C262.034,108.525,261.082,108.615,260.13,108.715z"/>
			<path fill="#211915" d="M282.266,126.8c0.018,0,0.026,0.01,0.026,0.01c1.531,0.036,3.056,0.071,4.587,0.153
				C285.337,126.881,283.806,126.836,282.266,126.8z"/>
			<path fill="#211915" d="M261.654,128.078c0.824-0.126,1.658-0.227,2.491-0.335C263.312,127.852,262.479,127.952,261.654,128.078z
				"/>
			<path fill="#211915" d="M284.648,134.792c1.35,0.091,2.421,0.364,3.282,0.58c0.878,0.236,1.502,0.39,2.108,0.309
				c0.68-0.101,1.107-0.499,1.341-0.807c0.29-0.361,0.464-0.807,0.554-1.323c-0.335-0.372-0.681-0.732-1.034-1.086
				c0,0.108,0,0.208,0,0.298c0-0.089,0-0.19,0-0.298c-0.662-0.662-1.368-1.278-2.092-1.858c-1.993-1.558-4.16-2.817-6.505-3.795
				c-0.219,0-0.417-0.01-0.617-0.01c0.2,0,0.398,0.01,0.617,0.01c0,0-0.019-0.01-0.037-0.01c-7.159-0.127-14.244,0.345-21.237,1.36
				c0.208-0.026,0.417-0.055,0.625-0.082c0.824-0.126,1.658-0.227,2.491-0.335c-0.833,0.108-1.667,0.208-2.491,0.335
				c-0.743,0.108-1.495,0.227-2.249,0.345c0.246-0.046,0.498-0.092,0.754-0.128c-17.641,2.673-34.792,8.733-51.657,17.043
				c-0.008,0.018-0.026,0.036-0.044,0.046c0.219-0.109,0.445-0.227,0.672-0.345c-0.227,0.119-0.453,0.236-0.672,0.345
				c-0.261,0.181-0.517,0.361-0.796,0.551c-2.684,1.896-5.4,4.014-8.182,6.361c-1.739,1.485-3.452,3.044-5.137,4.685
				c0.216,2.011,0.677,3.524,2.517,3.253c0.788-0.119,1.75-0.59,3.118-1.305c1.993-1.042,3.986-2.084,5.997-3.136
				c1.341-0.707,2.702-1.421,4.059-2.128c2.211-1.478,4.568-2.935,7.103-4.395c4.531-2.337,9.278-4.439,14.255-6.36
				c3.877-1.476,7.62-2.573,11.244-3.271c5.926-1.658,11.832-2.926,17.523-3.77C268.486,134.638,276.73,134.286,284.648,134.792z
				 M290.875,132.988c-0.01,0.119-0.01,0.219-0.029,0.327C290.864,133.208,290.864,133.107,290.875,132.988z M290.801,133.505
				c-0.019,0.082-0.037,0.164-0.053,0.236C290.764,133.668,290.782,133.587,290.801,133.505z M290.693,133.886
				c-0.019,0.072-0.056,0.126-0.082,0.172C290.637,134.013,290.674,133.958,290.693,133.886z M290.529,134.167
				c-0.037,0.037-0.071,0.082-0.108,0.108C290.458,134.249,290.492,134.204,290.529,134.167z M290.321,134.338
				c-0.037,0.019-0.101,0.037-0.153,0.065C290.221,134.375,290.284,134.356,290.321,134.338z M290.068,134.431
				c-0.01,0-0.018,0.008-0.037,0.008c-0.026,0.009-0.063,0-0.108,0C289.968,134.438,290.023,134.438,290.068,134.431z
				 M289.723,134.447c-0.063-0.009-0.127-0.017-0.189-0.017C289.596,134.431,289.66,134.438,289.723,134.447z M289.298,134.394
				c-0.074-0.026-0.145-0.037-0.227-0.056C289.153,134.356,289.225,134.367,289.298,134.394z M288.809,134.286
				c-0.108-0.028-0.208-0.063-0.316-0.082C288.6,134.222,288.7,134.258,288.809,134.286z M288.075,134.104
				c-0.137-0.045-0.263-0.072-0.419-0.108C287.812,134.031,287.938,134.059,288.075,134.104z M287.358,133.922
				c-0.137-0.036-0.289-0.063-0.443-0.09C287.069,133.858,287.222,133.886,287.358,133.922z M286.615,133.769
				c-0.171-0.037-0.361-0.055-0.554-0.082C286.254,133.713,286.444,133.731,286.615,133.769z M285.782,133.632
				c-0.29-0.036-0.59-0.063-0.907-0.082C285.192,133.568,285.492,133.596,285.782,133.632z M268.476,133.695
				c0.2-0.026,0.409-0.045,0.617-0.053C268.884,133.65,268.676,133.668,268.476,133.695z M273.75,133.397
				c0.298-0.018,0.606-0.028,0.896-0.037C274.356,133.369,274.048,133.379,273.75,133.397z M279.277,133.333
				c0.245,0,0.506,0.008,0.759,0.019C279.783,133.342,279.522,133.333,279.277,133.333z M280.872,126.782
				c-1.658-0.009-3.3,0.01-4.939,0.073C277.571,126.792,279.214,126.773,280.872,126.782z M274.999,126.881
				c-1.647,0.063-3.297,0.155-4.937,0.282C271.702,127.037,273.352,126.945,274.999,126.881z M269.438,127.208
				c-1.613,0.136-3.226,0.299-4.831,0.491C266.211,127.507,267.825,127.344,269.438,127.208z M263.892,134.148
				c-0.163,0.018-0.29,0.028-0.453,0.044C263.602,134.176,263.729,134.167,263.892,134.148z M195.43,156.148
				c0.01,0.099,0.018,0.172,0.018,0.254C195.447,156.32,195.44,156.247,195.43,156.148z M195.503,156.936
				c0.018,0.072,0.026,0.154,0.034,0.227C195.529,157.09,195.521,157.008,195.503,156.936z M195.619,157.661
				c0,0.036,0.011,0.073,0.011,0.109C195.63,157.733,195.619,157.696,195.619,157.661z M195.756,158.231
				c0.019,0.037,0.026,0.063,0.037,0.101C195.783,158.295,195.775,158.269,195.756,158.231z M195.92,158.577
				c0.019,0.044,0.036,0.071,0.053,0.099C195.956,158.648,195.938,158.622,195.92,158.577z M196.136,158.838
				c0.029,0.018,0.037,0.037,0.063,0.046C196.173,158.875,196.165,158.856,196.136,158.838z M196.463,158.993
				c0.026,0,0.055,0,0.074,0C196.518,158.993,196.489,158.993,196.463,158.993z M196.861,158.993c-0.019,0-0.035-0.01-0.053,0
				c0.034-0.01,0.082-0.01,0.116-0.018C196.905,158.983,196.879,158.983,196.861,158.993z M197.296,158.875
				c0.029-0.008,0.055-0.008,0.082-0.019C197.351,158.867,197.325,158.867,197.296,158.875z M197.931,158.64
				c0.056-0.019,0.108-0.055,0.153-0.074C198.039,158.585,197.986,158.622,197.931,158.64z M198.629,158.313
				c0.063-0.037,0.127-0.063,0.19-0.1C198.756,158.25,198.692,158.276,198.629,158.313z M210.153,144.541
				c1.568-0.762,3.134-1.494,4.702-2.211C213.287,143.047,211.722,143.779,210.153,144.541z M215.989,141.832
				c1.242-0.571,2.501-1.123,3.759-1.658C218.49,140.709,217.23,141.261,215.989,141.832z M221.089,139.603
				c1.587-0.662,3.171-1.314,4.758-1.931C224.26,138.289,222.676,138.941,221.089,139.603z M226.289,137.501
				c1.45-0.554,2.918-1.097,4.378-1.621C229.208,136.404,227.739,136.947,226.289,137.501z M257.993,128.64
				c-1.431,0.245-2.863,0.509-4.275,0.788C255.13,129.148,256.562,128.884,257.993,128.64z M253.02,129.554
				c-1.632,0.336-3.263,0.708-4.874,1.088C249.756,130.262,251.388,129.89,253.02,129.554z M232.054,135.39
				c1.321-0.472,2.644-0.915,3.959-1.342C234.697,134.475,233.375,134.918,232.054,135.39z M236.964,133.741
				c1.595-0.508,3.198-0.979,4.803-1.433C240.162,132.762,238.559,133.233,236.964,133.741z M243.006,131.974
				c1.271-0.361,2.546-0.688,3.817-0.996C245.552,131.286,244.276,131.613,243.006,131.974z M247.12,137.211
				c0.543-0.136,1.078-0.245,1.621-0.372C248.198,136.966,247.663,137.075,247.12,137.211z M252.123,136.07
				c0.625-0.119,1.241-0.236,1.855-0.362C253.364,135.833,252.748,135.951,252.123,136.07z M257.149,135.127
				c0.644-0.109,1.271-0.217,1.903-0.318C258.42,134.91,257.793,135.018,257.149,135.127z"/>
			<path fill="#211915" d="M278.552,125.55c-0.852-0.227-1.706-0.435-2.609-0.606c-4.895-0.888-10.103-1.033-15.585-0.427
				c-3.706,0.427-7.564,1.16-11.579,2.193c-4.022,1.033-8.011,2.301-11.996,3.823c-3.969,1.504-7.865,3.189-11.671,5.046
				c-3.379,1.641-6.54,3.362-9.513,5.13c15.684-7.077,30.562-11.607,45.094-13.746C266.654,126.085,272.635,125.623,278.552,125.55z
				"/>
			<path fill="#211915" d="M260.16,128.295c0.29-0.046,0.58-0.091,0.87-0.136c-0.118,0.019-0.227,0.026-0.337,0.045
				C260.513,128.232,260.331,128.268,260.16,128.295z"/>
			<path fill="#211915" d="M252.094,109.786c0.345-0.056,0.699-0.109,1.043-0.164C252.793,109.676,252.439,109.73,252.094,109.786z"
				/>
			<path fill="#211915" d="M286.062,117.377c-0.082-0.562-1.386-0.887-2.19-1.042c-4.415-0.833-8.872-1.585-13.247-2.799
				c4.874-0.037,9.75-0.055,14.868-0.091c-0.237-3.833-2.646-4.992-5.4-5.102c-5.654-0.227-11.379-0.335-17.106,0.109
				c-0.952,0.072-1.903,0.162-2.855,0.262c-0.361,0.037-0.725,0.072-1.078,0.108c-0.424,0.056-0.859,0.109-1.286,0.156
				c-0.889,0.108-1.777,0.227-2.663,0.344c-0.654,0.091-1.305,0.19-1.966,0.299c-0.345,0.054-0.698,0.108-1.043,0.164
				c-3.569,0.597-7.13,1.34-10.673,2.227c0.291-0.081,0.599-0.162,0.908-0.226c-0.309,0.063-0.617,0.145-0.908,0.226
				c-0.798,0.191-1.575,0.39-2.355,0.609c-0.38,0.099-0.762,0.198-1.142,0.307c-2.156,0.598-4.322,1.25-6.479,1.948
				c0.364-0.118,0.717-0.236,1.078-0.354c-0.361,0.117-0.714,0.236-1.078,0.354c-3.208,1.033-6.416,2.184-9.594,3.434
				c-0.38,0.145-0.743,0.299-1.123,0.452c0.38-0.153,0.743-0.307,1.123-0.452c-2.167,0.852-4.331,1.749-6.498,2.7
				c-0.343,0.145-0.68,0.29-1.022,0.443c-0.754,0.327-1.523,0.68-2.283,1.025c-0.3,0.134-0.599,0.271-0.898,0.417
				c0.3-0.145,0.598-0.282,0.898-0.417c-1.342,0.615-2.691,1.25-4.033,1.893c-0.943,0.453-1.896,0.952-2.791,1.513
				c-6.579,4.104-8.138,7.783-6.45,15.575c4.557-1.956,8.959-3.851,13.363-5.736c0.063,0.182,0.135,0.372,0.208,0.572
				c-3.598,2.31-7.148,4.775-10.828,6.868c-2.989,1.704-3.662,3.741-2.246,6.968c3.071-1.667,6.16-3.262,9.23-4.793
				c2.312-1.604,4.305-2.935,5.955-3.95c0.379-0.237,0.762-0.462,1.141-0.68c-5.129,2.301-10.348,4.892-15.664,7.755
				c-0.274-0.879-0.301-1.604-0.101-2.174c0.253-0.708,0.941-1.37,2.101-2.03c2.609-1.485,5.185-3.18,7.665-4.812
				c1.07-0.697,2.14-1.405,3.208-2.102c0.553-0.344,0.817-1.068,0.609-1.639l-0.219-0.58c-0.163-0.462-0.598-0.708-1.06-0.645
				c-0.1,0.01-0.2,0.037-0.29,0.082l-9.17,3.933l-3.033,1.324c-1.16-6.388,0.279-9.288,6.041-12.858
				c0.762-0.489,1.624-0.941,2.665-1.458c16.146-7.802,31.213-12.659,46.1-14.85c2.818-0.427,5.672-0.743,8.464-0.962
				c5.751-0.452,11.568-0.316,16.996-0.099c2.275,0.082,3.643,0.923,4.177,2.609l-4.349,0.027l-8.961,0.054
				c-0.053,0-0.108,0.009-0.153,0.017c-0.517,0.064-0.978,0.509-1.104,1.079c-0.145,0.634,0.153,1.214,0.688,1.368
				c3.725,1.032,7.539,1.74,11.207,2.429c0.707,0.127,1.413,0.262,2.12,0.38c0.869,0.182,1.271,0.345,1.449,0.444
				c0.271,2.093,0.417,4.276,0.562,6.569c0.037,0.354,0.066,0.714,0.082,1.067c-2.335-0.089-4.702-0.126-7.075-0.089
				c1.287,0.335,2.528,0.762,3.714,1.25c1.54,0.037,3.071,0.082,4.613,0.163C286.626,123.502,286.496,120.386,286.062,117.377z
				 M217.476,120.096c0.405-0.173,0.814-0.344,1.223-0.507C218.29,119.751,217.881,119.923,217.476,120.096z M224.242,117.395
				c0.274-0.099,0.545-0.208,0.806-0.308C224.787,117.187,224.516,117.296,224.242,117.395z M228.237,115.945
				c0.219-0.071,0.445-0.145,0.68-0.216C228.683,115.8,228.456,115.874,228.237,115.945z M234.645,113.88
				c0.387-0.128,0.788-0.244,1.194-0.363C235.433,113.636,235.032,113.752,234.645,113.88z M248.805,110.373
				c0.308-0.054,0.616-0.117,0.936-0.163C249.421,110.256,249.113,110.319,248.805,110.373z"/>
			<path fill="#211915" d="M259.053,108.823c0.353-0.036,0.717-0.071,1.078-0.108C259.77,108.752,259.405,108.788,259.053,108.823z"
				/>
			<path fill="#211915" d="M255.104,109.323c0.885-0.117,1.774-0.236,2.663-0.344C256.878,109.087,255.989,109.206,255.104,109.323z
				"/>
			<path fill="#211915" d="M237.924,112.929c0.379-0.109,0.762-0.208,1.142-0.307C238.686,112.721,238.303,112.819,237.924,112.929z
				"/>
			<path fill="#211915" d="M214.331,121.454c0.343-0.153,0.68-0.298,1.022-0.443C215.011,121.156,214.674,121.301,214.331,121.454z"
				/>
			<path fill="#211915" d="M260.692,126.963c-14.532,2.139-29.41,6.669-45.094,13.746c-0.379,0.217-0.762,0.442-1.141,0.68
				c-1.65,1.015-3.643,2.346-5.955,3.95c16.864-8.31,34.016-14.37,51.657-17.043c0.171-0.028,0.353-0.063,0.533-0.091
				c0.11-0.019,0.219-0.026,0.337-0.045c6.993-1.015,14.078-1.487,21.237-1.36c-1.186-0.488-2.427-0.915-3.714-1.25
				C272.635,125.623,266.654,126.085,260.692,126.963z"/>
			<path fill="#211915" d="M203.566,105.318c-0.163,0.026-0.345,0.055-0.517,0.1C203.221,105.373,203.403,105.354,203.566,105.318z"
				/>
			<path fill="#211915" d="M203.05,105.418c0.29,0.227,0.59,0.417,0.888,0.634c0.044-0.262,0.044-0.526,0.008-0.797
				c-0.127,0.018-0.253,0.037-0.38,0.063C203.403,105.354,203.221,105.373,203.05,105.418z"/>
			<path fill="#211915" d="M203.946,105.236L203.946,105.236c-0.045,0-0.082,0.019-0.127,0.019
				C203.864,105.255,203.901,105.245,203.946,105.236z"/>
			<path fill="#211915" d="M301.724,70.588c0.055,0.1,0.126,0.201,0.182,0.29C301.85,70.789,301.797,70.688,301.724,70.588z"/>
			<path fill="#211915" d="M203.566,105.318c0.082-0.026,0.182-0.045,0.253-0.063c-0.253,0.037-0.506,0.1-0.77,0.163
				C203.221,105.373,203.403,105.344,203.566,105.318z"/>
			<path fill="#211915" d="M229.642,51.961c-0.58-0.074-1.178-0.092-1.747-0.092C228.464,51.869,229.063,51.888,229.642,51.961z"/>
			<path fill="#211915" d="M294.135,65.243c-0.038,0-0.082-0.019-0.108-0.019c-0.019,0-0.026,0-0.045-0.018
				C294.027,65.225,294.071,65.243,294.135,65.243z"/>
			<path fill="#211915" d="M294.807,65.379c0.063,0.019,0.145,0.028,0.216,0.046C294.952,65.407,294.87,65.397,294.807,65.379
				c-0.1-0.028-0.201-0.045-0.29-0.063c0.197,0.054,0.416,0.091,0.632,0.145C295.034,65.433,294.915,65.397,294.807,65.379z"/>
			<path fill="#211915" d="M294.027,65.225c-0.056-0.018-0.108-0.026-0.164-0.036c0.037,0.009,0.074,0.018,0.119,0.018
				C294.001,65.225,294.009,65.225,294.027,65.225z"/>
			<path fill="#211915" d="M299.657,68.007c0.037,0.036,0.073,0.063,0.092,0.109C299.73,68.07,299.694,68.042,299.657,68.007z"/>
			<path fill="#211915" d="M203.819,105.255c-0.071,0.018-0.171,0.037-0.253,0.063c0.126-0.026,0.253-0.045,0.38-0.063
				c0-0.01,0-0.01,0-0.01C203.901,105.245,203.864,105.255,203.819,105.255z"/>
			<path fill="#211915" d="M217.781,55.44c0.029-0.019,0.055-0.037,0.082-0.055C217.836,55.404,217.81,55.422,217.781,55.44z"/>
			<g>
				<path fill="#211915" d="M307.106,286.888l-7.194,1.05c-0.906,0.128-1.431,0.779-1.431,1.758v24.662
					c0,0.979,0.525,1.468,1.431,1.342l7.194-1.052c3.39-0.506,6.163-2.03,8.226-4.53c2.066-2.519,3.119-6.215,3.119-10.999
					c0-4.819-1.052-8.209-3.119-10.131C313.269,287.087,310.496,286.379,307.106,286.888z M312.38,307.727
					c-1.397,1.812-3.244,2.899-5.527,3.243l-4.512,0.671v-20.35l4.512-0.671c2.265-0.327,4.13,0.217,5.527,1.631
					c1.395,1.431,2.101,3.915,2.101,7.429S313.774,305.896,312.38,307.727z"/>
				<path fill="#211915" d="M339.615,282.013l-0.29,0.036c-1.487,0.236-1.794,0.944-1.794,1.505l0.018,17.705
					c0,1.577-0.58,2.917-1.74,4.13c-1.16,1.197-2.681,1.921-4.494,2.211c-1.795,0.253-3.297-0.037-4.476-0.906
					c-1.16-0.852-1.721-2.03-1.721-3.606l-0.019-17.705c0-0.562-0.309-1.195-1.776-0.978l-0.29,0.054
					c-1.468,0.199-1.777,0.942-1.777,1.485v17.579c0,2.917,0.889,5.074,2.629,6.451c1.739,1.34,4.241,1.793,7.411,1.34
					c3.208-0.47,5.709-1.666,7.449-3.533c1.758-1.885,2.644-4.313,2.644-7.212v-17.577
					C341.39,282.429,341.084,281.795,339.615,282.013z"/>
				<path fill="#211915" d="M358.896,303.305l-9.423,1.377v-22.887c0-0.562-0.308-1.197-1.776-0.961l-0.29,0.036
					c-1.468,0.201-1.776,0.925-1.776,1.486v25.062c0,0.978,0.509,1.468,1.431,1.323l11.834-1.74
					c0.398-0.056,1.068-0.345,1.068-1.703v-0.617C359.964,303.288,359.221,303.25,358.896,303.305z"/>
				<path fill="#211915" d="M380.951,300.84c0-0.344-0.164-0.779-0.509-1.377c-0.398-0.652-0.743-0.924-1.105-0.87
					c-0.11,0-0.2,0.019-1.069,0.688c-0.49,0.382-1.215,0.799-2.12,1.252c-0.925,0.435-1.884,0.742-2.917,0.887
					c-2.665,0.399-4.676-0.145-5.926-1.595c-1.286-1.45-1.939-4.041-1.939-7.665s0.653-6.397,1.958-8.228
					c1.268-1.811,3.298-2.935,6.033-3.334c0.96-0.145,1.866-0.145,2.681,0.019c0.817,0.145,1.45,0.327,1.903,0.526
					c0.78,0.362,0.835,0.344,0.943,0.344c0.361-0.054,0.688-0.435,1.068-1.213c0.327-0.671,0.49-1.214,0.49-1.649
					c0-0.743-0.743-1.269-2.356-1.613c-1.45-0.346-3.063-0.381-4.784-0.108c-7.899,1.16-11.888,6.487-11.888,15.854
					c0,4.784,0.962,8.228,2.881,10.24c1.921,1.993,4.929,2.717,8.936,2.138c1.974-0.29,3.769-0.888,5.271-1.758
					C380.17,302.418,380.951,301.619,380.951,300.84z"/>
				<path fill="#211915" d="M397.239,277.301c0.327-0.037,1.07-0.29,1.07-1.703V275c0-1.396-0.743-1.449-1.07-1.396l-12.412,1.831
					c-0.907,0.126-1.431,0.76-1.431,1.758l0.019,24.662c0,0.979,0.506,1.468,1.413,1.323l12.449-1.831
					c0.398-0.054,1.086-0.362,1.086-1.684l-0.015-0.635c0-1.395-0.744-1.432-1.071-1.395l-10.021,1.485v-8.625l8.917-1.305
					c0.324-0.056,1.067-0.309,1.067-1.703v-0.617c0-1.36-0.669-1.45-1.067-1.396l-8.917,1.305v-7.991L397.239,277.301z"/>
				<path fill="#211915" d="M425.509,275.398c0-0.562-0.472-0.779-1.45-0.634c-0.907,0.145-1.431,0.399-1.666,0.834l-4.568,7.918
					l-4.457-6.578c-0.253-0.362-0.725-0.489-1.468-0.381l-0.309,0.055c-0.398,0.053-1.613,0.234-1.613,1.067
					c0,0.219,0.11,0.454,0.29,0.689l5.926,8.607v10.402c0,0.452,0.237,0.961,1.434,0.779l0.216-0.019
					c1.196-0.18,1.45-0.76,1.45-1.213v-10.329l5.962-10.456C425.472,275.688,425.509,275.524,425.509,275.398z"/>
				<path fill="#211915" d="M311.618,337.263c-0.706-0.47-1.468-0.888-2.301-1.195c-0.817-0.29-1.669-0.544-2.501-0.744
					c-0.814-0.217-1.558-0.416-2.211-0.652c-1.413-0.524-2.101-1.394-2.101-2.646c0-1.305,0.361-2.32,1.104-3.08
					c0.762-0.797,1.813-1.286,3.118-1.466c1.323-0.201,2.591-0.038,3.732,0.47c0.562,0.271,0.781,0.326,0.925,0.307
					c0.324-0.053,0.614-0.38,1.015-1.16c0.324-0.669,0.488-1.141,0.488-1.485c0-0.851-0.744-1.414-2.246-1.704
					c-1.36-0.29-2.646-0.343-3.843-0.145c-2.446,0.345-4.458,1.323-5.944,2.899c-1.54,1.595-2.301,3.535-2.301,5.782
					c0,1.756,0.435,3.17,1.25,4.185c0.835,1.015,1.869,1.704,3.063,2.048c1.125,0.362,2.267,0.671,3.408,0.96
					c1.068,0.272,2.012,0.725,2.755,1.34c0.725,0.58,1.067,1.468,1.067,2.682c0,1.215-0.379,2.23-1.176,3.117
					c-0.798,0.905-1.739,1.432-2.883,1.595c-1.175,0.163-2.246,0.163-3.134-0.018c-0.925-0.182-1.65-0.399-2.138-0.635
					c-0.816-0.38-0.961-0.38-1.069-0.38c-0.343,0.053-0.651,0.398-1.068,1.16c-0.364,0.651-0.545,1.16-0.545,1.558
					c0,0.779,0.78,1.377,2.464,1.848c1.505,0.435,3.39,0.491,5.62,0.164c2.264-0.327,4.148-1.323,5.635-2.953
					c1.502-1.649,2.264-3.715,2.264-6.198c0-1.323-0.234-2.5-0.669-3.461C312.923,338.497,312.343,337.753,311.618,337.263z"/>
				<path fill="#211915" d="M328.089,321.662c-0.163-0.562-0.777-0.781-1.773-0.636l-1.033,0.164
					c-0.996,0.145-1.595,0.526-1.758,1.142l-8.427,26.548c-0.089,0.29-0.127,0.507-0.127,0.688c0,1.033,1.432,0.834,1.903,0.762
					l0.164-0.019c0.379-0.054,1.521-0.216,1.774-1.142l1.94-6.341l9.929-1.45l2.014,5.743c0.271,0.834,1.395,0.671,1.755,0.617
					l0.29-0.037c0.472-0.071,1.903-0.271,1.903-1.323c0-0.198-0.053-0.417-0.126-0.615L328.089,321.662z M322.001,338.932
					l3.571-11.508l0.179-0.762l0.164,0.725l3.553,10.438L322.001,338.932z"/>
				<path fill="#211915" d="M351.63,341.432l-9.423,1.377V319.94c0-0.58-0.309-1.215-1.795-0.979l-0.29,0.036
					c-1.469,0.219-1.774,0.943-1.774,1.505v25.043c0,0.978,0.524,1.468,1.432,1.342l11.851-1.74
					c0.398-0.074,1.052-0.364,1.052-1.704v-0.634C352.682,341.413,351.938,341.378,351.63,341.432z"/>
				<path fill="#211915" d="M368.536,315.7c-0.182-0.562-0.762-0.78-1.776-0.617l-1.015,0.145c-1.015,0.145-1.595,0.526-1.774,1.142
					l-8.427,26.548c-0.073,0.308-0.126,0.526-0.126,0.689c0,1.05,1.431,0.851,1.903,0.779l0.18-0.037
					c0.363-0.053,1.505-0.216,1.758-1.123l1.94-6.36l9.947-1.468l2.011,5.762c0.256,0.853,1.397,0.672,1.758,0.635l0.29-0.055
					c0.454-0.071,1.885-0.271,1.885-1.322c0-0.199-0.053-0.418-0.145-0.616L368.536,315.7z M362.447,332.969l3.571-11.508l0.18-0.76
					l0.163,0.725l3.572,10.438L362.447,332.969z"/>
				<path fill="#211915" d="M388.85,311.894l-7.193,1.07c-0.906,0.126-1.431,0.76-1.431,1.74l0.016,24.68
					c0,0.979,0.527,1.468,1.415,1.341l7.193-1.068c3.408-0.49,6.163-2.029,8.245-4.531c2.048-2.501,3.101-6.197,3.101-10.999
					c0-4.803-1.052-8.209-3.119-10.129C395.013,312.112,392.258,311.405,388.85,311.894z M394.143,332.75
					c-1.397,1.813-3.263,2.899-5.546,3.226l-4.494,0.671l-0.019-20.332l4.512-0.672c2.283-0.343,4.13,0.2,5.546,1.631
					c1.394,1.413,2.101,3.914,2.101,7.43C396.244,328.221,395.537,330.921,394.143,332.75z"/>
				<path fill="#211915" d="M413.405,308.035c-3.68,0.543-6.524,2.174-8.427,4.838c-1.921,2.645-2.899,6.306-2.899,10.873
					c0,4.585,0.996,7.955,2.918,10.094c1.918,2.156,4.747,2.97,8.427,2.427c3.658-0.543,6.486-2.193,8.424-4.91
					c1.94-2.701,2.899-6.379,2.899-10.945s-0.978-7.956-2.899-10.021C419.91,308.288,417.063,307.509,413.405,308.035z
					 M418.877,329.126c-1.249,1.94-3.1,3.081-5.472,3.427c-2.43,0.361-4.204-0.238-5.456-1.832
					c-1.268-1.576-1.919-4.112-1.919-7.539c0-3.424,0.651-6.124,1.9-8.063c1.271-1.903,3.044-3.007,5.475-3.371
					c2.372-0.344,4.223,0.254,5.472,1.776c1.268,1.54,1.922,4.059,1.922,7.483C420.799,324.435,420.145,327.171,418.877,329.126z"/>
			</g>
			<g>
				<path fill="#211915" d="M473.712,190.017c-0.364-0.364-0.851-0.509-1.45-0.427c-0.546,0.074-1.052,0.236-1.523,0.526
					c-0.506,1.105-1.16,2.51-1.903,4.195c-0.777,1.694-1.521,3.46-2.227,5.337c-1.324,2.918-2.792,6.115-4.405,9.631
					c-1.613,3.498-3.297,6.977-5.037,10.414c-1.758,3.462-3.534,6.724-5.311,9.806c-1.792,3.08-3.479,5.617-5.074,7.591
					c-0.852,0.925-1.503,1.27-1.956,1.033c-0.435-0.234-0.744-0.833-0.925-1.775c-0.163-0.942-0.216-2.139-0.163-3.589
					c0.036-1.45,0.129-2.881,0.273-4.312c0.108-1.432,0.235-2.736,0.417-3.933c0.145-1.213,0.253-2.083,0.324-2.609
					c0.308-2.409,0.78-5.023,1.397-7.851c0.598-2.809,0.795-5.399,0.58-7.737c-0.219-2.275-1.123-4.133-2.701-5.6
					c-1.595-1.45-4.365-2.121-8.335-1.983c-0.996,0.197-1.939,0.533-2.81,0.978c-0.852,0.442-1.23,1.167-1.086,2.193
					c0.145,1.305,0,2.554-0.417,3.714c-0.435,1.16-0.743,2.167-0.925,3.009c-1.268,2.908-2.81,6.306-4.657,10.215
					c-1.848,3.896-3.84,7.665-5.997,11.272c-2.14,3.606-4.367,6.723-6.668,9.369c-2.285,2.627-4.479,4.059-6.542,4.331
					c-1.215,0.164-2.156-0.037-2.829-0.58c-0.669-0.543-1.178-1.286-1.521-2.247c-0.363-0.96-0.545-2.029-0.58-3.208
					c-0.055-1.177-0.036-2.284,0.019-3.334c0.108-2.174,0.614-5.038,1.539-8.644c0.907-3.606,2.101-7.483,3.569-11.629
					c1.469-4.148,3.171-8.345,5.074-12.603c1.921-4.239,3.97-8.118,6.144-11.625c2.193-3.497,4.476-6.431,6.885-8.769
					c2.375-2.348,4.75-3.661,7.087-3.97c1.829-0.234,3.368,0.1,4.655,1.015c1.288,0.907,2.319,2.13,3.155,3.652
					c0.814,1.522,1.375,3.281,1.703,5.273c0.309,2.011,0.453,3.933,0.397,5.791c-0.126,0.833-0.234,1.603-0.342,2.319
					c-0.093,0.715-0.274,1.502-0.527,2.346c0.617,0.814,1.323,1.169,2.138,1.06c0.255-0.026,0.709-0.199,1.341-0.499
					c0.635-0.308,1.015-0.58,1.142-0.814l0.111-0.137c0.58-1.911,0.978-3.968,1.16-6.143c0.161-3.135-0.111-6.188-0.835-9.168
					c-0.725-2.981-1.885-5.618-3.442-7.902c-1.558-2.283-3.479-4.049-5.781-5.309c-2.301-1.26-4.91-1.703-7.865-1.324
					c-3.807,0.491-7.483,1.985-11.037,4.476c-3.532,2.492-6.866,5.627-10.021,9.396c-3.152,3.788-6.07,8.018-8.698,12.729
					c-2.662,4.711-4.982,9.514-6.974,14.406c-2.014,4.893-3.662,9.673-4.929,14.348c-0.309,1.176-0.599,2.319-0.854,3.443
					c-0.741,1.521-1.502,3.026-2.301,4.547c-1.811,3.462-3.713,6.724-5.725,9.787c-2.011,3.063-4.077,5.635-6.181,7.702
					c-1.975,1.756-3.64,2.899-5.019,3.479c-1.342,0.58-2.338,0.632-2.955,0.162c-0.814-0.526-1.376-1.576-1.685-3.171
					c-0.29-1.578-0.453-3.462-0.435-5.637c0-3.152,0.253-6.686,0.762-10.636c0.524-3.951,1.141-7.865,1.866-11.798
					c0.707-3.919,1.45-7.588,2.192-10.994c0.762-3.408,1.376-6.107,1.848-8.101l0.308-1.485l1.956-8.716
					c0.817-3.606,1.631-7.122,2.412-10.557c0.777-3.442,1.521-6.895,2.211-10.328l2.555-0.227c4.747-0.425,9.188-0.28,13.318,0.435
					c1.885,0.326,3.661,0.888,5.274,1.676c0.524,0.254,1.015,0.544,1.521,0.834c1.523,0.833,5.438,3.822,5.438,3.822
					c0.614,0.182,0.614-1.168,0.614-1.168c0.164-0.97-0.179-2.364-0.74-3.813c-1.034-2.066-2.285-3.788-3.77-5.148
					c-1.85-1.676-3.951-2.918-6.289-3.758c-2.338-0.844-4.911-1.324-7.665-1.442c-2.735-0.126-5.635-0.063-8.627,0.208
					c0.491-2.582,0.926-5.019,1.286-7.312c0.383-2.275,0.636-4.394,0.78-6.36c0.146-1.966,0.09-3.87-0.09-5.726
					c-0.2-1.857-0.743-3.47-1.576-4.856c-0.854-1.387-2.084-2.465-3.679-3.216c-1.595-0.754-3.733-1.015-6.379-0.771
					c-0.96,0.091-1.795,0.326-2.501,0.725c-0.725,0.407-1.141,1.141-1.286,2.192c0,0.319,0.018,0.626,0.055,0.962
					c0.034,0.326,0.09,0.679,0.145,1.05c0.146,0.742,0.253,1.532,0.361,2.383c0.108,0.86,0.108,1.931,0.056,3.208
					c-0.145,1.586-0.562,4.186-1.233,7.801c-0.688,3.633-1.521,7.846-2.483,12.649c-2.644,0.543-5.364,1.078-8.152,1.585
					c-2.81,0.515-5.419,0.897-7.865,1.105c-2.591,0.235-5.092,0.272-7.52,0.118c-2.41-0.154-4.64-0.634-6.669-1.422l0.09,0.108
					c-0.599-0.398-1.105-0.524-1.469-0.371c-0.379,0.137-0.633,0.39-0.777,0.734c-0.126,0.362-0.164,0.771-0.092,1.25
					c0.056,0.48,0.164,0.896,0.309,1.268c1.287,2.962,3.498,4.858,6.616,5.698c3.134,0.834,6.777,1.07,10.926,0.699
					c1.977-0.171,4.022-0.435,6.125-0.779c2.119-0.336,4.331-0.734,6.631-1.16l-1.431,6.533c-1.16,5.509-2.356,11.216-3.587,17.133
					c-0.907,4.404-1.776,8.644-2.572,12.75c-0.527,1.113-0.999,2.137-1.434,3.07c-1.16,2.583-2.446,5.451-3.84,8.604
					c-1.395,3.17-2.918,6.397-4.549,9.694v-0.108c-1.305,2.518-2.77,5.29-4.458,8.317c-1.666,3.044-3.516,5.909-5.526,8.589
					c-1.993,2.7-4.168,5.02-6.469,6.94c-2.338,1.958-4.784,3.063-7.356,3.372c-1.632,0-3.01-0.344-4.096-1.033
					c-1.088-0.688-1.94-1.63-2.539-2.809c-0.614-1.177-1.049-2.537-1.286-4.041c-0.234-1.504-0.343-3.099-0.343-4.749
					c0-0.599,0-1.214,0-1.848c0-0.652,0.035-1.268,0.108-1.866c0.145-1.523,0.29-2.955,0.472-4.313
					c0.163-1.377,0.38-2.701,0.651-4.005c3.479-1.141,7.103-2.772,10.891-4.91c3.769-2.156,7.304-4.712,10.564-7.702
					c3.282-2.989,6.07-6.366,8.39-10.098c2.319-3.724,3.679-7.709,4.096-11.941c0.145-3.017-0.182-5.926-0.96-8.744
					c-0.78-2.818-1.977-5.29-3.571-7.438c-1.595-2.138-3.569-3.814-5.907-5.029c-2.356-1.212-5.018-1.677-8.01-1.413
					c-3.134,0.29-6.142,1.323-9.041,3.125c-2.881,1.794-5.62,4.167-8.173,7.085c-2.554,2.936-4.892,6.271-6.996,10.03
					c-2.119,3.742-3.985,7.737-5.593,11.968c-1.595,4.223-2.918,8.541-3.943,12.963c-1.022,4.384-1.71,8.715-2.055,12.919v-0.091
					c-0.146,1.052-0.201,2.048-0.201,2.99c-0.007,0.942-0.007,1.885-0.007,2.864c0,3.896,0.334,7.593,1.004,11.089
					c0.68,3.498,1.787,6.561,3.318,9.151c1.521,2.591,3.529,4.604,6.009,6.035c2.483,1.432,5.493,1.975,9.025,1.667
					c4.766-0.435,9.007-1.885,12.721-4.312c3.716-2.429,7.014-5.383,9.913-8.88c2.899-3.479,5.472-7.285,7.72-11.416
					c2.247-4.15,4.294-8.1,6.142-11.869c0.707-1.397,1.397-2.791,2.066-4.151c-0.071,0.435-0.145,0.87-0.216,1.288
					c-0.762,4.494-1.252,8.027-1.45,10.583c-0.073,0.905-0.128,1.775-0.163,2.609c-0.037,0.834-0.056,1.649-0.056,2.482
					c0,5.908,1.179,10.421,3.569,13.5c2.375,3.082,6.579,4.349,12.649,3.806c3.68-0.327,7.177-2.174,10.53-5.509
					c3.334-3.334,6.486-7.466,9.457-12.378c0.817-1.357,1.613-2.754,2.411-4.186c0.072,2.104,0.309,4.115,0.726,6.018
					c0.487,2.227,1.268,4.13,2.354,5.689c1.089,1.576,2.538,2.754,4.367,3.57c1.813,0.796,4.025,1.034,6.65,0.688
					c2.81-0.344,5.546-1.468,8.229-3.334c2.663-1.848,5.201-4.167,7.628-6.921c2.428-2.755,4.729-5.854,6.87-9.278
					c2.156-3.425,4.112-6.904,5.907-10.475c-0.074,0.526-0.09,0.797-0.09,0.833c0,0.037,0,0.145,0,0.29
					c-0.255,1.885-0.345,4.222-0.255,7.032c0.092,2.808,0.472,5.472,1.125,8.027c0.669,2.537,1.666,4.656,3.025,6.379
					c1.358,1.721,3.243,2.429,5.654,2.12c1.811-0.236,3.643-0.888,5.509-1.94c1.885-1.05,3.479-2.301,4.803-3.732
					c1.539-1.595,3.152-3.679,4.836-6.234c1.687-2.555,3.334-5.327,4.965-8.354c1.613-3.026,3.245-6.199,4.855-9.514
					c1.613-3.316,3.137-6.591,4.55-9.808c1.413-3.216,2.717-6.288,3.933-9.178c1.23-2.892,2.283-5.446,3.208-7.639l0.996-2.572
					C474.419,190.831,474.092,190.37,473.712,190.017z M313.956,221.252c0.923-2.518,1.975-5.178,3.171-7.977
					c1.196-2.817,2.535-5.635,4.041-8.472c1.505-2.836,3.007-5.41,4.549-7.72c1.54-2.31,3.079-4.204,4.602-5.698
					c1.539-1.487,2.937-2.293,4.241-2.411c1.431-0.127,2.644,0.852,3.677,2.935c1.286,2.81,1.795,5.609,1.523,8.408
					c-0.29,3.397-1.431,6.605-3.498,9.642c-2.03,3.044-4.476,5.771-7.304,8.195c-2.826,2.428-5.78,4.458-8.843,6.089
					c-3.063,1.613-5.743,2.699-8.063,3.189C312.398,225.837,313.031,223.771,313.956,221.252z"/>
			</g>
		</g>
		<g>
			<path fill="#211915" d="M163.32,96.755c-17.459,13.564-26.385,24.826-27.027,25.66c-24.031,27.1-40.357,60.651-43.104,98.711
				h7.032c3.071-40.651,22.352-75.968,50.004-103.314c3.545-3.424,8.185-7.619,13.872-12.23
				C163.582,102.626,163.392,99.465,163.32,96.755z"/>
			<path fill="#211915" d="M529.162,163.876c-13.5-9.604-27.001-19.19-40.483-28.84c-0.343-0.245-1.286-0.97-2.12-1.631
				c-7.81-11.28-20.061-26.058-37.908-40.201c-20.57-16.291-44.308-28.269-70.548-35.635c-13.534-3.805-27.778-6.351-42.639-7.666
				l0,0c-0.108-0.017-0.235-0.017-0.343-0.026c-1.16-0.101-2.32-0.199-3.479-0.281c-13.574-1.042-26.477-1.232-39.002-0.534
				c0.219,1.051,0.398,2.056,0.554,2.971c2.464,0.219,8.221,0.996,13.168,3.869c3.371-0.045,6.794-0.037,10.292,0.045l0,0
				c0.382,0.018,0.743,0.037,1.123,0.045c5.546,0.155,11.255,0.472,17.09,0.988v-0.009c51.063,4.639,86.51,23.666,109.143,41.507
				c16.978,13.401,28.831,27.608,36.403,38.47c0.164,1.17,0.237,2.574,0.327,3.154c1.885,14.733,3.605,29.501,5.583,44.225
				c0.562,4.204,1.194,8.572,2.789,12.458c7.557,18.366,32.926,22.511,45.739,7.655
				C545.346,192.254,542.736,173.525,529.162,163.876z M503.286,202.257c-4.984-3.362-7.847-8.1-8.646-14.043
				c-0.959-7.241-1.848-14.489-2.754-21.729c-0.019-0.18,0.074-0.362,0.2-0.979c1.94,5.382,3.788,10.322,5.546,15.314
				c3.498,9.966,9.586,17.921,18.337,23.846c0.2,0.137,0.398,0.308,0.579,0.463c0.056,0.035,0.056,0.098,0.127,0.38
				C511.784,205.999,507.309,205.002,503.286,202.257z M505.732,180.122c-2.412-6.208-4.586-12.531-6.832-18.802
				c-0.089-0.216-0.108-0.461-0.235-1.022c0.488,0.344,0.796,0.499,1.015,0.725c4.149,4.565,8.372,9.059,12.394,13.745
				c5.8,6.759,8.772,14.688,9.223,24.037C513.903,194.048,508.758,187.924,505.732,180.122z M530.321,197.464
				c-0.271,0.416-0.58,0.788-1.104,1.485c-0.092-0.87-0.182-1.432-0.219-2.002c-0.725-11.09-4.947-20.684-12.394-28.903
				c-2.52-2.791-5.056-5.564-7.594-8.354c0.108-0.109,0.219-0.218,0.327-0.317c1.215,0.862,2.427,1.713,3.643,2.574
				c3.951,2.799,7.918,5.589,11.851,8.425C533.748,176.797,536.139,188.638,530.321,197.464z"/>
		</g>
	</g>
	<path fill="#211915" d="M110.061,164.138c-2.717-0.208-5.174,1.269-6.341,3.542l0,0c0,0-9.305,15.088-18.195,52.012
		c-0.026,0.128-0.063,0.254-0.089,0.399c-0.026,0.164-0.056,0.344-0.082,0.507c-0.055,0.381-0.082,0.671-0.082,0.671
		c-0.417,5.291,3.542,9.949,8.843,10.365c5.308,0.398,9.947-3.551,10.367-8.861c4.402-20.336,3.822-20.427,11.062-49.52
		c0.28-0.645,0.472-1.333,0.525-2.065C116.351,167.573,113.659,164.428,110.061,164.138z"/>
	<path fill="#211915" d="M494.622,288.627c2.72,0.216,5.166-1.286,6.326-3.57l0,0c0,0,9.222-15.112,17.939-52.08
		c0.037-0.145,0.055-0.272,0.073-0.399c0.053-0.181,0.072-0.344,0.09-0.525c0.055-0.362,0.071-0.652,0.071-0.652
		c0.4-5.31-3.569-9.931-8.878-10.31c-5.311-0.399-9.932,3.587-10.329,8.878c-4.294,20.368-3.714,20.458-10.817,49.597
		c-0.29,0.635-0.454,1.323-0.509,2.066C488.317,285.219,491.017,288.373,494.622,288.627z"/>
</g>
</svg>
