<?xml version="1.0" encoding="utf-8"?>
<!-- Generator: Adobe Illustrator 16.0.0, SVG Export Plug-In . SVG Version: 6.00 Build 0)  -->
<!DOCTYPE svg PUBLIC "-//W3C//DTD SVG 1.1//EN" "http://www.w3.org/Graphics/SVG/1.1/DTD/svg11.dtd">
<svg version="1.1" id="Capa_1" xmlns="http://www.w3.org/2000/svg" xmlns:xlink="http://www.w3.org/1999/xlink" x="0px" y="0px"
	 width="470.878px" height="403.096px" viewBox="0 0 470.878 403.096" enable-background="new 0 0 470.878 403.096"
	 xml:space="preserve">
<g>
	<g>
		<path fill="#CB6120" d="M67.725,301.504c1.264,0,2.584-0.128,3.959-0.385c1.374-0.257,2.767-0.623,4.178-1.1v5.196
			c-0.844,0.367-2.136,0.715-3.876,1.044c-1.741,0.33-3.546,0.495-5.415,0.495c-1.889,0-3.68-0.243-5.375-0.729
			c-1.694-0.486-3.176-1.269-4.439-2.351c-1.265-1.081-2.268-2.483-3.01-4.206c-0.742-1.722-1.113-3.812-1.113-6.268
			c0-2.419,0.348-4.536,1.045-6.35c0.695-1.814,1.631-3.317,2.803-4.508c1.174-1.191,2.516-2.084,4.027-2.681
			c1.513-0.595,3.074-0.893,4.688-0.893c1.687,0,3.239,0.257,4.659,0.77c1.421,0.513,2.648,1.319,3.684,2.419
			c1.036,1.1,1.843,2.515,2.42,4.247c0.577,1.731,0.866,3.78,0.866,6.144c-0.02,0.917-0.047,1.695-0.083,2.337H59.285
			c0.092,1.228,0.366,2.277,0.824,3.147s1.059,1.576,1.801,2.116c0.742,0.541,1.608,0.935,2.598,1.183
			C65.498,301.38,66.57,301.504,67.725,301.504z M65.113,283.855c-0.825,0-1.559,0.151-2.2,0.454
			c-0.641,0.303-1.194,0.715-1.663,1.237c-0.467,0.522-0.838,1.131-1.113,1.828c-0.274,0.697-0.457,1.439-0.549,2.227h10.474
			c0-0.788-0.106-1.53-0.316-2.227c-0.212-0.696-0.522-1.305-0.935-1.828c-0.413-0.522-0.926-0.935-1.54-1.237
			C66.656,284.007,65.938,283.855,65.113,283.855z"/>
		<path fill="#CB6120" d="M88.864,283.141h0.109c0.385-0.55,0.87-1.09,1.457-1.622c0.586-0.531,1.255-0.999,2.007-1.402
			s1.581-0.729,2.488-0.976c0.907-0.247,1.873-0.371,2.899-0.371c0.972,0,1.911,0.11,2.818,0.33c0.906,0.22,1.736,0.563,2.487,1.031
			c0.751,0.468,1.416,1.072,1.993,1.815c0.577,0.742,1.031,1.626,1.36,2.653c0.184,0.568,0.307,1.187,0.371,1.855
			s0.097,1.443,0.097,2.323v17.291h-6.516v-16.274c0-0.715-0.027-1.329-0.082-1.842s-0.156-0.962-0.302-1.347
			c-0.33-0.843-0.83-1.447-1.499-1.814s-1.479-0.55-2.433-0.55c-1.265,0-2.479,0.298-3.643,0.894
			c-1.164,0.596-2.194,1.461-3.092,2.598v18.335h-6.516V279.43h5.388L88.864,283.141z"/>
		<path fill="#CB6120" d="M130.373,306.04c-0.733,0.22-1.607,0.394-2.625,0.522c-1.017,0.128-1.965,0.192-2.845,0.192
			c-2.236,0-4.064-0.362-5.484-1.086c-1.421-0.724-2.424-1.764-3.01-3.12c-0.423-0.971-0.633-2.291-0.633-3.958v-13.8h-4.976v-5.361
			h4.976v-7.45h6.514v7.45h7.698v5.361h-7.698v12.948c0,1.026,0.157,1.787,0.47,2.281c0.549,0.843,1.639,1.265,3.271,1.265
			c0.751,0,1.498-0.059,2.24-0.179c0.742-0.119,1.443-0.27,2.103-0.453V306.04z"/>
		<path fill="#CB6120" d="M151.293,284.598h-0.549c-1.998,0-3.753,0.298-5.266,0.893c-1.511,0.596-2.68,1.508-3.504,2.735v17.841
			h-6.515V279.43h5.387l0.606,3.711h0.109c0.77-1.356,1.828-2.423,3.175-3.203c1.347-0.779,2.964-1.168,4.852-1.168
			c0.66,0,1.228,0.037,1.704,0.11V284.598z"/>
		<path fill="#CB6120" d="M168.86,301.504c1.264,0,2.584-0.128,3.958-0.385c1.375-0.257,2.768-0.623,4.179-1.1v5.196
			c-0.844,0.367-2.136,0.715-3.876,1.044c-1.741,0.33-3.546,0.495-5.416,0.495c-1.887,0-3.679-0.243-5.374-0.729
			c-1.694-0.486-3.175-1.269-4.439-2.351c-1.265-1.081-2.27-2.483-3.01-4.206c-0.743-1.722-1.113-3.812-1.113-6.268
			c0-2.419,0.347-4.536,1.044-6.35c0.697-1.814,1.632-3.317,2.804-4.508c1.173-1.191,2.517-2.084,4.027-2.681
			c1.513-0.595,3.074-0.893,4.688-0.893c1.687,0,3.239,0.257,4.659,0.77c1.421,0.513,2.648,1.319,3.684,2.419
			c1.035,1.1,1.843,2.515,2.42,4.247c0.576,1.731,0.866,3.78,0.866,6.144c-0.02,0.917-0.047,1.695-0.083,2.337h-17.456
			c0.091,1.228,0.366,2.277,0.825,3.147c0.457,0.871,1.058,1.576,1.8,2.116c0.742,0.541,1.608,0.935,2.598,1.183
			C166.634,301.38,167.705,301.504,168.86,301.504z M166.248,283.855c-0.825,0-1.558,0.151-2.199,0.454
			c-0.642,0.303-1.195,0.715-1.662,1.237c-0.468,0.522-0.839,1.131-1.114,1.828c-0.274,0.697-0.458,1.439-0.549,2.227h10.474
			c0-0.788-0.106-1.53-0.316-2.227c-0.212-0.696-0.522-1.305-0.936-1.828c-0.412-0.522-0.926-0.935-1.539-1.237
			C167.793,284.007,167.073,283.855,166.248,283.855z"/>
		<path fill="#CB6120" d="M190,283.141h0.109c0.385-0.55,0.871-1.09,1.457-1.622c0.586-0.531,1.255-0.999,2.007-1.402
			c0.751-0.403,1.581-0.729,2.487-0.976c0.908-0.247,1.874-0.371,2.9-0.371c0.972,0,1.909,0.11,2.818,0.33
			c0.906,0.22,1.736,0.563,2.487,1.031c0.751,0.468,1.415,1.072,1.993,1.815c0.578,0.742,1.03,1.626,1.361,2.653
			c0.183,0.568,0.306,1.187,0.37,1.855s0.096,1.443,0.096,2.323v17.291h-6.515v-16.274c0-0.715-0.027-1.329-0.082-1.842
			s-0.156-0.962-0.303-1.347c-0.331-0.843-0.829-1.447-1.499-1.814c-0.668-0.367-1.479-0.55-2.432-0.55
			c-1.265,0-2.479,0.298-3.642,0.894c-1.164,0.596-2.195,1.461-3.093,2.598v18.335h-6.516V279.43h5.388L190,283.141z"/>
		<path fill="#CB6120" d="M230.904,303.236h-0.109c-0.367,0.385-0.808,0.779-1.319,1.183c-0.515,0.403-1.1,0.783-1.76,1.141
			c-0.66,0.357-1.393,0.646-2.2,0.866c-0.806,0.22-1.677,0.33-2.61,0.33c-1.266,0-2.446-0.197-3.546-0.591s-2.044-0.962-2.832-1.704
			c-0.789-0.742-1.407-1.64-1.856-2.694c-0.448-1.054-0.673-2.231-0.673-3.533c0-1.43,0.261-2.712,0.783-3.849
			c0.522-1.136,1.251-2.098,2.186-2.887c0.936-0.787,2.053-1.388,3.354-1.8c1.301-0.412,2.739-0.619,4.315-0.619
			c1.155,0,2.218,0.074,3.188,0.22c0.972,0.146,1.824,0.321,2.557,0.522v-1.072c0-0.623-0.104-1.223-0.315-1.8
			c-0.211-0.577-0.551-1.09-1.018-1.54c-0.467-0.449-1.077-0.806-1.829-1.072c-0.751-0.265-1.667-0.398-2.748-0.398
			c-1.319,0-2.639,0.147-3.958,0.44c-1.319,0.293-2.75,0.733-4.29,1.319v-5.085c1.339-0.586,2.759-1.035,4.263-1.347
			c1.502-0.312,3.078-0.477,4.728-0.495c1.942,0,3.643,0.239,5.1,0.714c1.456,0.477,2.675,1.132,3.656,1.966
			c0.979,0.834,1.714,1.819,2.199,2.955c0.485,1.137,0.729,2.374,0.729,3.711v10.034c0,1.759,0.018,3.271,0.056,4.536
			c0.035,1.265,0.072,2.392,0.109,3.381h-5.884L230.904,303.236z M230.382,294.714c-0.622-0.146-1.338-0.279-2.144-0.398
			c-0.808-0.119-1.623-0.179-2.446-0.179c-1.595,0-2.855,0.316-3.78,0.949c-0.926,0.632-1.39,1.599-1.39,2.9
			c0,0.604,0.106,1.131,0.317,1.58c0.21,0.45,0.495,0.82,0.851,1.113c0.358,0.294,0.776,0.514,1.253,0.66
			c0.476,0.147,0.979,0.22,1.512,0.22c0.659,0,1.282-0.086,1.868-0.261c0.587-0.174,1.128-0.394,1.623-0.66
			c0.495-0.265,0.938-0.563,1.333-0.893c0.394-0.33,0.729-0.651,1.003-0.962V294.714z"/>
		<path fill="#CB6120" d="M278.518,289.849c0-0.568-0.019-1.1-0.055-1.594c-0.037-0.495-0.102-0.925-0.192-1.292
			c-0.202-0.807-0.596-1.457-1.184-1.952c-0.585-0.495-1.411-0.751-2.474-0.77c-0.568,0-1.153,0.083-1.758,0.248
			c-0.606,0.165-1.207,0.398-1.801,0.701c-0.597,0.302-1.164,0.669-1.705,1.1c-0.541,0.431-1.031,0.912-1.471,1.443v18.335h-6.515
			v-16.219c0-0.568-0.02-1.1-0.056-1.594c-0.037-0.495-0.101-0.925-0.192-1.292c-0.202-0.807-0.591-1.457-1.169-1.952
			c-0.577-0.495-1.406-0.751-2.487-0.77c-0.568,0-1.154,0.083-1.759,0.248s-1.206,0.398-1.801,0.701
			c-0.597,0.302-1.164,0.669-1.704,1.1c-0.542,0.431-1.031,0.912-1.471,1.443v18.335h-6.516V279.43h5.388l0.605,3.711h0.109
			c0.385-0.55,0.871-1.09,1.457-1.622c0.586-0.531,1.25-0.999,1.993-1.402c0.742-0.403,1.558-0.729,2.447-0.976
			c0.888-0.247,1.827-0.371,2.816-0.371c1.76,0,3.341,0.39,4.743,1.168c1.401,0.779,2.469,1.993,3.202,3.643h0.109
			c0.514-0.715,1.087-1.365,1.719-1.952c0.633-0.586,1.333-1.09,2.103-1.512c0.771-0.421,1.599-0.751,2.488-0.99
			c0.889-0.238,1.837-0.357,2.846-0.357c1.905,0.018,3.505,0.417,4.797,1.196c1.291,0.779,2.285,1.847,2.982,3.203
			c0.183,0.349,0.338,0.729,0.467,1.141c0.128,0.412,0.234,0.875,0.316,1.388c0.083,0.513,0.142,1.082,0.179,1.705
			c0.036,0.624,0.055,1.338,0.055,2.144v16.521h-6.515V289.849z"/>
		<path fill="#CB6120" d="M292.18,266.262h6.845v7.065h-6.845V266.262z M292.346,279.43h6.515v26.638h-6.515V279.43z"/>
		<path fill="#CB6120" d="M319.89,301.504c1.265,0,2.584-0.128,3.959-0.385c1.374-0.257,2.767-0.623,4.178-1.1v5.196
			c-0.843,0.367-2.136,0.715-3.876,1.044c-1.74,0.33-3.546,0.495-5.416,0.495c-1.887,0-3.679-0.243-5.374-0.729
			c-1.694-0.486-3.175-1.269-4.438-2.351c-1.266-1.081-2.27-2.483-3.011-4.206c-0.742-1.722-1.113-3.812-1.113-6.268
			c0-2.419,0.348-4.536,1.043-6.35c0.697-1.814,1.633-3.317,2.805-4.508c1.173-1.191,2.517-2.084,4.027-2.681
			c1.513-0.595,3.075-0.893,4.688-0.893c1.687,0,3.239,0.257,4.659,0.77c1.421,0.513,2.648,1.319,3.684,2.419
			c1.035,1.1,1.843,2.515,2.419,4.247c0.578,1.731,0.867,3.78,0.867,6.144c-0.02,0.917-0.046,1.695-0.083,2.337H311.45
			c0.091,1.228,0.366,2.277,0.825,3.147c0.457,0.871,1.058,1.576,1.801,2.116c0.741,0.541,1.607,0.935,2.597,1.183
			C317.663,301.38,318.734,301.504,319.89,301.504z M317.277,283.855c-0.824,0-1.558,0.151-2.199,0.454
			c-0.642,0.303-1.194,0.715-1.662,1.237c-0.467,0.522-0.839,1.131-1.113,1.828c-0.275,0.697-0.458,1.439-0.55,2.227h10.474
			c0-0.788-0.106-1.53-0.316-2.227c-0.211-0.696-0.522-1.305-0.935-1.828c-0.413-0.522-0.926-0.935-1.54-1.237
			C318.822,284.007,318.104,283.855,317.277,283.855z"/>
		<path fill="#CB6120" d="M341.03,283.141h0.109c0.385-0.55,0.871-1.09,1.457-1.622c0.586-0.531,1.255-0.999,2.007-1.402
			s1.581-0.729,2.487-0.976c0.908-0.247,1.874-0.371,2.901-0.371c0.971,0,1.91,0.11,2.817,0.33c0.906,0.22,1.736,0.563,2.487,1.031
			c0.751,0.468,1.416,1.072,1.993,1.815c0.577,0.742,1.031,1.626,1.36,2.653c0.184,0.568,0.307,1.187,0.37,1.855
			c0.065,0.669,0.098,1.443,0.098,2.323v17.291h-6.516v-16.274c0-0.715-0.027-1.329-0.082-1.842s-0.156-0.962-0.302-1.347
			c-0.331-0.843-0.831-1.447-1.499-1.814c-0.669-0.367-1.479-0.55-2.433-0.55c-1.265,0-2.479,0.298-3.643,0.894
			c-1.164,0.596-2.194,1.461-3.092,2.598v18.335h-6.516V279.43h5.388L341.03,283.141z"/>
		<path fill="#CB6120" d="M382.538,306.04c-0.731,0.22-1.606,0.394-2.623,0.522c-1.018,0.128-1.966,0.192-2.846,0.192
			c-2.236,0-4.064-0.362-5.484-1.086c-1.421-0.724-2.424-1.764-3.01-3.12c-0.423-0.971-0.633-2.291-0.633-3.958v-13.8h-4.976v-5.361
			h4.976v-7.45h6.515v7.45h7.698v5.361h-7.698v12.948c0,1.026,0.156,1.787,0.469,2.281c0.549,0.843,1.639,1.265,3.271,1.265
			c0.751,0,1.498-0.059,2.24-0.179c0.742-0.119,1.443-0.27,2.102-0.453V306.04z"/>
		<path fill="#CB6120" d="M413.026,292.762c0,2.09-0.312,3.996-0.936,5.718c-0.623,1.723-1.516,3.198-2.68,4.426
			s-2.57,2.176-4.221,2.845c-1.648,0.669-3.49,1.003-5.524,1.003c-2.089,0-3.963-0.334-5.622-1.003
			c-1.658-0.669-3.064-1.617-4.219-2.845c-1.155-1.228-2.04-2.703-2.654-4.426c-0.613-1.722-0.92-3.628-0.92-5.718
			c0-2.089,0.312-3.995,0.935-5.718c0.622-1.722,1.517-3.198,2.681-4.426c1.163-1.228,2.57-2.176,4.22-2.845
			c1.648-0.669,3.491-1.003,5.524-1.003c2.09,0,3.963,0.334,5.622,1.003c1.658,0.669,3.065,1.617,4.22,2.845
			c1.155,1.228,2.039,2.704,2.652,4.426C412.719,288.767,413.026,290.673,413.026,292.762z M406.29,292.762
			c0-1.411-0.164-2.657-0.494-3.738c-0.329-1.081-0.789-1.988-1.375-2.722c-0.586-0.733-1.292-1.283-2.115-1.649
			c-0.825-0.366-1.723-0.55-2.695-0.55c-0.953,0-1.838,0.184-2.652,0.55c-0.815,0.367-1.518,0.917-2.103,1.649
			c-0.587,0.733-1.045,1.641-1.375,2.722c-0.33,1.082-0.495,2.327-0.495,3.738c0,1.412,0.165,2.658,0.495,3.739
			c0.33,1.082,0.792,1.984,1.389,2.708c0.596,0.725,1.301,1.274,2.117,1.65c0.814,0.376,1.708,0.563,2.68,0.563
			c0.971,0,1.859-0.188,2.666-0.563s1.503-0.925,2.089-1.65c0.586-0.723,1.046-1.626,1.375-2.708
			C406.126,295.42,406.29,294.174,406.29,292.762z"/>
		<path fill="#CB6120" d="M133.108,339.641c-0.036,2.657-0.491,5.068-1.362,7.23c-0.872,2.163-2.033,4.078-3.483,5.745
			c0.789,0.807,1.527,1.567,2.217,2.282c0.688,0.714,1.298,1.347,1.83,1.896c0.533,0.55,0.969,0.994,1.308,1.333
			c0.339,0.339,0.554,0.554,0.646,0.646h-5.425c-0.072-0.073-0.426-0.426-1.059-1.059c-0.634-0.632-1.428-1.443-2.382-2.433
			c-1.781,1.356-3.7,2.391-5.756,3.106c-2.057,0.715-4.141,1.072-6.251,1.072c-2.02,0-3.751-0.275-5.191-0.825
			c-1.441-0.55-2.621-1.274-3.538-2.172c-0.919-0.897-1.589-1.919-2.012-3.065c-0.421-1.145-0.633-2.313-0.633-3.505
			c0-1.429,0.206-2.685,0.619-3.766c0.412-1.082,0.971-2.039,1.677-2.873c0.705-0.833,1.516-1.576,2.433-2.227
			c0.916-0.65,1.869-1.251,2.858-1.801c-0.732-0.696-1.424-1.392-2.075-2.089c-0.65-0.696-1.219-1.42-1.704-2.172
			c-0.485-0.751-0.866-1.543-1.141-2.377c-0.274-0.834-0.413-1.746-0.413-2.735c0-1.356,0.243-2.561,0.729-3.615
			c0.485-1.054,1.177-1.948,2.075-2.681c0.897-0.732,1.97-1.292,3.216-1.677c1.247-0.385,2.63-0.577,4.151-0.577
			c1.393,0,2.689,0.174,3.89,0.522s2.245,0.866,3.134,1.553c0.889,0.688,1.589,1.535,2.104,2.543
			c0.513,1.008,0.769,2.172,0.769,3.491c0,1.375-0.237,2.58-0.715,3.615c-0.476,1.036-1.107,1.966-1.896,2.791
			c-0.789,0.824-1.687,1.563-2.694,2.212c-1.009,0.651-2.053,1.27-3.134,1.856c0.604,0.624,1.287,1.324,2.048,2.103
			c0.76,0.779,1.558,1.599,2.391,2.46c0.835,0.862,1.691,1.746,2.571,2.653c0.88,0.907,1.75,1.811,2.61,2.708
			c0.937-1.228,1.683-2.676,2.241-4.343s0.857-3.61,0.895-5.828H133.108z M113.371,355.832c0.678,0,1.406-0.059,2.186-0.179
			c0.779-0.119,1.571-0.306,2.379-0.563c0.806-0.256,1.616-0.586,2.432-0.989s1.599-0.889,2.351-1.457
			c-0.88-0.898-1.792-1.833-2.735-2.804c-0.944-0.971-1.879-1.929-2.804-2.873c-0.926-0.944-1.811-1.846-2.652-2.708
			c-0.844-0.861-1.604-1.64-2.282-2.337c-0.807,0.458-1.558,0.948-2.254,1.471s-1.306,1.086-1.828,1.691
			c-0.522,0.604-0.935,1.273-1.237,2.007c-0.302,0.733-0.453,1.558-0.453,2.474c0,0.807,0.138,1.585,0.412,2.337
			s0.696,1.42,1.264,2.007c0.569,0.586,1.288,1.054,2.159,1.402C111.176,355.659,112.199,355.832,113.371,355.832z M108.726,329.854
			c0,0.678,0.101,1.319,0.303,1.924c0.201,0.604,0.499,1.2,0.893,1.787c0.395,0.587,0.875,1.182,1.443,1.787
			c0.567,0.605,1.219,1.265,1.952,1.979c0.88-0.458,1.719-0.935,2.516-1.429c0.797-0.495,1.498-1.036,2.104-1.622
			c0.604-0.586,1.08-1.246,1.428-1.979c0.349-0.733,0.522-1.567,0.522-2.501c0-0.861-0.137-1.595-0.411-2.199
			c-0.275-0.605-0.66-1.108-1.155-1.512c-0.495-0.403-1.086-0.696-1.773-0.879c-0.687-0.183-1.442-0.275-2.268-0.275
			c-1.723,0-3.079,0.422-4.067,1.265C109.221,327.042,108.726,328.26,108.726,329.854z"/>
		<path fill="#CB6120" d="M157.796,335.847h0.109c0.385-0.55,0.87-1.09,1.457-1.622c0.586-0.531,1.255-0.999,2.007-1.402
			s1.581-0.729,2.487-0.976c0.908-0.247,1.874-0.371,2.9-0.371c0.972,0,1.911,0.109,2.818,0.329c0.906,0.22,1.736,0.564,2.487,1.031
			s1.416,1.072,1.993,1.814c0.577,0.742,1.03,1.626,1.36,2.653c0.184,0.568,0.307,1.187,0.371,1.855s0.096,1.443,0.096,2.323v17.292
			h-6.515V342.5c0-0.715-0.027-1.329-0.083-1.842c-0.054-0.513-0.155-0.962-0.301-1.347c-0.33-0.843-0.83-1.447-1.499-1.814
			c-0.669-0.366-1.479-0.55-2.433-0.55c-1.265,0-2.479,0.298-3.643,0.894s-2.194,1.461-3.092,2.598v18.336h-6.516v-26.638h5.388
			L157.796,335.847z"/>
		<path fill="#CB6120" d="M194.797,359.461c-2.676,0-4.893-0.454-6.652-1.361s-3.089-2.13-3.987-3.67
			c-0.476-0.824-0.828-1.732-1.058-2.722c-0.229-0.989-0.345-2.089-0.345-3.299v-16.274h6.517v15.587
			c0,0.898,0.064,1.673,0.192,2.323c0.127,0.65,0.32,1.214,0.577,1.69c0.439,0.807,1.063,1.407,1.869,1.801s1.77,0.591,2.887,0.591
			c1.172,0,2.175-0.22,3.01-0.66c0.833-0.439,1.462-1.108,1.884-2.006c0.421-0.861,0.632-2.062,0.632-3.601v-15.725h6.516v16.274
			c0,2.163-0.376,3.986-1.127,5.471c-0.422,0.843-0.967,1.608-1.637,2.295c-0.669,0.687-1.457,1.274-2.364,1.759
			c-0.906,0.486-1.933,0.861-3.079,1.127C197.486,359.328,196.208,359.461,194.797,359.461z"/>
		<path fill="#CB6120" d="M229.983,358.746c-0.733,0.22-1.607,0.394-2.625,0.522c-1.018,0.128-1.966,0.192-2.845,0.192
			c-2.237,0-4.064-0.362-5.484-1.086c-1.421-0.724-2.425-1.764-3.011-3.12c-0.422-0.971-0.633-2.291-0.633-3.958v-13.8h-4.976
			v-5.361h4.976v-7.45h6.516v7.45h7.697v5.361h-7.697v12.948c0,1.026,0.154,1.787,0.468,2.282c0.549,0.843,1.638,1.264,3.271,1.264
			c0.751,0,1.498-0.059,2.241-0.179c0.741-0.119,1.443-0.27,2.103-0.453V358.746z"/>
		<path fill="#CB6120" d="M250.903,337.304h-0.55c-1.998,0-3.752,0.298-5.265,0.893c-1.512,0.596-2.682,1.508-3.505,2.735v17.841
			h-6.515v-26.638h5.388l0.605,3.711h0.108c0.77-1.356,1.829-2.423,3.177-3.203c1.346-0.779,2.963-1.168,4.852-1.168
			c0.659,0,1.227,0.037,1.704,0.109V337.304z"/>
		<path fill="#CB6120" d="M254.753,318.968h6.844v7.065h-6.844V318.968z M254.918,332.136h6.515v26.638h-6.515V332.136z"/>
		<path fill="#CB6120" d="M287.933,358.197c-0.824,0.348-1.833,0.646-3.025,0.893c-1.189,0.248-2.444,0.371-3.765,0.371
			c-1.924,0-3.721-0.275-5.389-0.825c-1.667-0.55-3.124-1.383-4.371-2.502c-1.245-1.117-2.227-2.533-2.94-4.247
			c-0.715-1.713-1.072-3.715-1.072-6.006c0-2.565,0.412-4.765,1.237-6.597s1.893-3.322,3.202-4.467s2.786-1.989,4.427-2.529
			c1.64-0.54,3.257-0.811,4.851-0.811c1.191,0,2.338,0.105,3.438,0.316c1.098,0.21,2.098,0.5,2.995,0.866v5.306
			c-0.806-0.348-1.663-0.627-2.569-0.839c-0.907-0.21-1.883-0.316-2.93-0.316c-1.043,0-2.042,0.161-2.995,0.481
			c-0.953,0.321-1.796,0.83-2.528,1.526c-0.733,0.697-1.315,1.618-1.745,2.763c-0.432,1.146-0.647,2.525-0.647,4.138
			c0,1.172,0.166,2.277,0.495,3.313c0.33,1.035,0.811,1.919,1.443,2.653c0.633,0.733,1.438,1.324,2.42,1.773
			c0.979,0.449,2.14,0.673,3.477,0.673c1.191,0,2.273-0.119,3.244-0.357s1.888-0.531,2.749-0.879V358.197z"/>
		<path fill="#CB6120" d="M293.568,318.968h6.844v7.065h-6.844V318.968z M293.733,332.136h6.515v26.638h-6.515V332.136z"/>
		<path fill="#CB6120" d="M332.961,345.469c0,2.089-0.312,3.996-0.935,5.718c-0.624,1.723-1.517,3.198-2.68,4.426
			c-1.165,1.228-2.571,2.176-4.221,2.845s-3.491,1.003-5.525,1.003c-2.089,0-3.963-0.334-5.622-1.003
			c-1.658-0.669-3.064-1.617-4.22-2.845c-1.154-1.228-2.039-2.703-2.652-4.426c-0.614-1.722-0.921-3.628-0.921-5.718
			s0.312-3.995,0.936-5.718c0.621-1.723,1.516-3.198,2.68-4.426c1.163-1.228,2.569-2.176,4.22-2.845
			c1.649-0.668,3.491-1.003,5.524-1.003c2.09,0,3.962,0.334,5.623,1.003c1.658,0.669,3.064,1.618,4.219,2.845
			c1.155,1.228,2.039,2.704,2.653,4.426S332.961,343.379,332.961,345.469z M326.226,345.469c0-1.411-0.165-2.657-0.495-3.739
			c-0.329-1.081-0.788-1.988-1.374-2.722c-0.587-0.732-1.292-1.282-2.116-1.649c-0.825-0.366-1.723-0.55-2.695-0.55
			c-0.952,0-1.836,0.184-2.652,0.55c-0.814,0.367-1.516,0.917-2.103,1.649c-0.587,0.733-1.044,1.641-1.374,2.722
			c-0.33,1.082-0.495,2.328-0.495,3.739s0.165,2.657,0.495,3.738c0.33,1.082,0.792,1.984,1.388,2.708
			c0.596,0.724,1.301,1.274,2.117,1.649c0.815,0.376,1.708,0.563,2.68,0.563s1.859-0.188,2.667-0.563
			c0.806-0.375,1.502-0.925,2.089-1.649c0.586-0.724,1.045-1.626,1.374-2.708C326.061,348.126,326.226,346.88,326.226,345.469z
			 M326.665,318.281l-4.536,9.594h-5.057l3.271-9.594H326.665z"/>
		<path fill="#CB6120" d="M344.727,335.847h0.109c0.384-0.55,0.87-1.09,1.457-1.622c0.586-0.531,1.255-0.999,2.007-1.402
			s1.581-0.729,2.487-0.976c0.908-0.247,1.875-0.371,2.9-0.371c0.972,0,1.911,0.109,2.818,0.329c0.906,0.22,1.736,0.564,2.488,1.031
			c0.75,0.467,1.415,1.072,1.992,1.814c0.578,0.742,1.031,1.626,1.361,2.653c0.183,0.568,0.307,1.187,0.371,1.855
			c0.063,0.669,0.096,1.443,0.096,2.323v17.292h-6.516V342.5c0-0.715-0.027-1.329-0.082-1.842c-0.055-0.513-0.156-0.962-0.302-1.347
			c-0.33-0.843-0.83-1.447-1.499-1.814c-0.669-0.366-1.479-0.55-2.433-0.55c-1.265,0-2.479,0.298-3.643,0.894
			c-1.163,0.595-2.194,1.461-3.092,2.598v18.336h-6.516v-26.638h5.388L344.727,335.847z"/>
	</g>
	<g>
		<path fill="#CB6120" d="M378.521,47.98c-23.444,11.016-42.198,26.759-50.675,34.517l-0.001-0.001
			c-0.012,0.012-0.022,0.023-0.035,0.034c-3.146,2.88-4.875,4.658-4.875,4.658l0.022,0.05
			c-50.734,49.933-74.048,95.813-81.069,146.896c1.982,0.54,3.937,1.276,5.799,2.251l10.994,4.81c0,0,20.904,8.33,34.693-10.381
			c0,0,29.559-32.344,41.258-94.189c0,0,2.396-16.548-0.88-34.835C347.64,70.818,378.521,47.98,378.521,47.98z"/>
		<path fill="#CB6120" d="M137.122,163.136c-0.376-0.205-0.777-0.416-1.202-0.633c-0.77-0.409-1.537-0.82-2.313-1.219
			c0.012,0.037,0.025,0.076,0.037,0.112c-8.313-3.841-23.275-8.689-46.506-9.228c0,0,29.829,6.184,54.914,31.359
			c6.021,13.957,14.157,29.416,24.847,43.386c0,0,20.692,22.968,41.31,14.61c0,0,0.144-0.04,11.766-5.167
			C202.444,213.884,173.855,182.97,137.122,163.136z"/>
		<path fill="#CB6120" d="M129.727,148.473c23.144,1.104,56.704,6.336,83.125,25.259c0,0,27.423-59.13,107.681-102.897
			c-4.14-4.968-9.382-9.2-16.013-12.184c0,0-28.975-17.273-62.961,6.685l-7.293,6.251c0.063-13.77-2.192-31.314-11.359-47.01
			l-9.68,5.006c0,0,12.984,15.264,16.007,42.145l-2.529-1.934c0,0-31.318-29.418-62.592-18.373c0,0-51.511,18.528-36.468,88.731
			C127.645,140.152,128.295,143.245,129.727,148.473z M190.489,94.616c10.486-2.994,22.384,6.478,26.577,21.158
			c4.188,14.679-0.911,29.007-11.396,32.002c-10.484,2.993-22.385-6.481-26.576-21.16
			C174.904,111.936,180.007,97.608,190.489,94.616z"/>
		<path fill="#CB6120" d="M217.09,188.008c-26.517-18.801-72.916-29.799-72.916-29.799c34.957,13.247,63.868,42.93,76.137,56.777
			c3.805,4.295,8.422,1.666,9.378-1.468c19.731-64.623,69.011-114.471,69.011-114.471
			C237.272,137.882,217.09,188.008,217.09,188.008z"/>
	</g>
</g>
</svg>
