<?xml version="1.0" encoding="utf-8"?>
<!-- Generator: Adobe Illustrator 16.0.0, SVG Export Plug-In . SVG Version: 6.00 Build 0)  -->
<!DOCTYPE svg PUBLIC "-//W3C//DTD SVG 1.1//EN" "http://www.w3.org/Graphics/SVG/1.1/DTD/svg11.dtd">
<svg version="1.1" id="Capa_1" xmlns="http://www.w3.org/2000/svg" xmlns:xlink="http://www.w3.org/1999/xlink" x="0px" y="0px"
	 width="689.929px" height="384.039px" viewBox="0 0 689.929 384.039" enable-background="new 0 0 689.929 384.039"
	 xml:space="preserve">
<g>
	<path fill="#CB6120" d="M198.079,234.781c16.752,0,31.67-7.807,41.357-19.967v19.967h11.42v-50.08
		c0.049-0.916,0.073-1.846,0.073-2.777c0-29.187-23.663-52.851-52.851-52.851c-29.192,0-52.856,23.664-52.856,52.851
		C145.223,211.117,168.887,234.781,198.079,234.781z M198.079,140.218c22.739,0,41.178,18.436,41.178,41.179
		c0,22.739-18.438,41.178-41.178,41.178c-22.743,0-41.179-18.439-41.179-41.178C156.9,158.654,175.336,140.218,198.079,140.218z"/>
	<rect x="263.474" y="133.959" fill="#CB6120" width="11.419" height="100.822"/>
	<polygon fill="#CB6120" points="73.697,169.933 91.704,153.723 143.426,234.781 159.418,234.781 101.471,144.936 153.641,97.985 
		134.545,97.985 73.697,153.056 73.697,97.985 62.273,97.985 62.273,234.781 73.697,234.781 	"/>
	<path fill="#CB6120" d="M300.21,184.368c0-41.084,31.979-40.193,31.979-40.193v-12.882c-22.65-2.662-31.979,19.102-31.979,19.102
		v-16.435h-11.419v100.822h11.419V184.368z"/>
	<circle fill="#CB6120" cx="269.564" cy="102.424" r="10.658"/>
	<path fill="#CB6120" d="M580.339,221.143c-2.826-0.647-9.025-4.702-9.025-4.702l-6.837-5.199l-7.11,8.438l10.465,7.757
		c0,0,5.925,3.866,10.164,4.712c25.835,5.145,33.746-17.181,33.746-17.181c5.308-24.505-12.182-32.043-12.182-32.043l-20.494-12.066
		c-12.455-8.374-3.672-21.439-3.672-21.439c11.101-13.992,30.387,4.08,30.387,4.08l7.548-7.548
		c-32.422-29.312-49.3-1.598-49.3-1.598c-13.324,26.386,15.992,40.015,15.992,40.015c8.882,4.667,16.066,8.822,16.066,8.822
		c11.568,7.687,3.03,22.49,3.03,22.49C594.709,223.023,585.843,222.402,580.339,221.143z"/>
	<path fill="#CB6120" d="M367.037,188.209c-1.199-5.876-1.831-11.957-1.831-18.186c0-50.025,40.553-90.577,90.577-90.577
		c30.813,0,58.012,15.399,74.377,38.905c-16.476-27.834-46.782-46.513-81.472-46.513c-52.255,0-94.617,42.362-94.617,94.617
		c0,11.444,2.034,22.416,5.757,32.571C361.793,195.473,364.191,191.702,367.037,188.209z"/>
	<path fill="#CB6120" d="M531.224,194.414c3.03-8.319,4.688-17.29,4.688-26.654c0-43.064-34.909-77.979-77.973-77.979
		c-43.064,0-77.975,34.914-77.975,77.979c0,3.144,0.204,6.244,0.572,9.294c2.309-1.09,4.767-1.865,7.374-2.233
		c-0.219-2.294-0.338-4.618-0.338-6.971c0-3.281,0.24-6.504,0.662-9.67l8.104-0.062c1.005-0.01,1.812-0.826,1.807-1.836
		c-0.01-1.005-0.831-1.816-1.836-1.806l-7.493,0.058c1.413-7.582,3.992-14.751,7.571-21.302l6.653,3.73
		c0.875,0.492,1.981,0.184,2.479-0.696c0.487-0.876,0.179-1.986-0.697-2.478l-6.604-3.705c3.902-6.355,8.766-12.049,14.378-16.906
		l4.81,5.992c0.628,0.786,1.772,0.916,2.558,0.284c0.782-0.627,0.911-1.776,0.284-2.557l-4.839-6.032
		c5.492-4.291,11.617-7.802,18.218-10.375l2.985,6.619c0.414,0.916,1.489,1.324,2.404,0.91c0.916-0.413,1.323-1.488,0.916-2.403
		l-2.872-6.365c7.169-2.382,14.829-3.691,22.8-3.691c1.513,0,3.012,0.062,4.501,0.153l-0.61,7.729
		c-0.075,1.005,0.671,1.875,1.671,1.955s1.882-0.667,1.955-1.672l0.609-7.698c7.34,0.821,14.345,2.742,20.853,5.593l-2.982,6.966
		c-0.393,0.926,0.036,1.99,0.961,2.389c0.921,0.393,1.991-0.035,2.389-0.96l2.927-6.849c6.179,3.089,11.853,7.031,16.866,11.682
		l-4.995,5.582c-0.667,0.746-0.607,1.896,0.14,2.567c0.751,0.667,1.899,0.607,2.571-0.144l4.893-5.458
		c4.903,5.028,9.076,10.767,12.356,17.049l-6.113,3.007c-0.9,0.443-1.273,1.533-0.83,2.438c0.441,0.896,1.531,1.274,2.438,0.826
		l6.108-3c2.982,6.493,5.028,13.5,5.971,20.856l-7.736,0.078c-1.005,0.01-1.811,0.826-1.8,1.836c0.015,1,0.83,1.811,1.836,1.801
		l8.073-0.079c0.145,1.865,0.24,3.744,0.24,5.646c0,5.217-0.576,10.295-1.629,15.196l-7.625-1.468
		c-0.99-0.189-1.941,0.453-2.131,1.442c-0.188,0.986,0.453,1.94,1.443,2.13l7.457,1.434c-0.717,2.671-1.566,5.29-2.571,7.831
		H531.224z"/>
	<path fill="#CB6120" d="M507.197,130.208c-0.632-0.781-1.782-0.906-2.563-0.274l-44.065,34.452c-1.378-1.293-3.219-2.1-5.259-2.1
		c-1.775,0-3.394,0.622-4.691,1.631l-19.232-21.479c-0.676-0.741-1.825-0.796-2.571-0.125c-0.742,0.672-0.796,1.826-0.125,2.572
		l19.62,21.908c-0.453,0.98-0.717,2.06-0.717,3.204c0,4.264,3.453,7.717,7.717,7.717c4.259,0,7.713-3.453,7.713-7.717
		c0-0.896-0.185-1.746-0.463-2.548l44.368-34.685C507.709,132.134,507.829,130.989,507.197,130.208z M455.311,174.521
		c-2.408,0-4.359-1.95-4.359-4.354c0-2.408,1.951-4.358,4.359-4.358c2.403,0,4.354,1.95,4.354,4.358
		C459.664,172.571,457.714,174.521,455.311,174.521z"/>
	<path fill="#CB6120" d="M376.774,240.986c67.934,4.279,69.535,58.658,69.535,58.658c-12.479-7.667-36.372-6.419-36.372-6.419
		c-29.595-1.428-45.109-8.025-45.109-8.025c-27.635-10.34-27.276-41.721-27.276-41.721c-0.18-8.737,3.065-24.963,3.065-24.963
		c0.562-10.737-7.644-14.897-7.644-14.897c-5.736-3.985-7.25-8.603-7.25-8.603l-9.759,0.254c0.007-1.194,0.05-2.36,0.124-3.498h9.69
		c0,0,4.622-12.524,17.832-7.553c0,0,6.061,2.563,7.843,12.191c0,0,4.637,18.186,8.915,22.106v-4.274c0,0-5.104-12.614-7.01-22.569
		c0,0-1.752-12.345-15.987-13.957c0,0-11.324,0-14.752,10.135l-6.291,1.21c0.67-6.059,2.162-11.175,3.688-15.079
		c8.455-1.343,14.554,1.519,14.554,1.519c-4.928-3.523-9.404-4.663-13.297-4.479c1.667-3.626,3.082-5.637,3.082-5.637
		c-2.016,1.972-3.778,3.94-5.312,5.898c-8.695,1.581-13.944,9.462-13.944,9.462c3.961-3.124,7.859-4.965,11.464-5.994
		c-3.465,5.303-5.331,10.498-6.074,15.432h-0.001l0.001,0c-3.161,20.971,13.866,37.248,13.866,37.248
		c-5.824-10.877-8.052-20.937-8.357-29.657l7.108,1.251c2.672,5.115,7.667,9.15,7.667,9.15c4.633,2.856,3.742,11.235,3.742,11.235
		l-2.328,18.007c-1.977,19.077,4.646,30.133,4.646,30.133c19.256,38.333,82.552,32.093,82.552,32.093
		c23.176,1.249,42.438,22.465,42.438,22.465c2.139-20.504-17.475-52.598-17.475-52.598
		C413.863,234.03,376.774,240.986,376.774,240.986z"/>
	<path fill="#CB6120" d="M508.202,212.575c-22.495,3.806-68.112-16.166-68.112-16.166c-46.955-23.296-60.126-12.041-60.126-12.041
		c-23.554,13.633-12.105,52.931-12.105,52.931c1.901-36.133,23.321-39.183,23.321-39.183c14.853-5.1,55.259,15.141,70.804,23.43
		c3.881,2.07,18.375,8.235,23.724,9.892c31.247,9.683,45.999,3.344,45.999,3.344c23.585-12.031,15.4-25.595,15.4-25.595
		c5.409-6.334,5.229-28.118,5.229-28.118C541.698,215.516,508.202,212.575,508.202,212.575z"/>
	<path fill="#CB6120" d="M498.608,243.957c0,0-33.62-9.036-62.453-25.441c0,0-43.14-30.187-56.191-3.089
		c0,0,19.276-9.031,43.521,8.085c0,0,62.087,45.856,98.798,35.054c0,0,18.166-7.21,26.252-25.65
		C548.535,232.915,526.374,253.132,498.608,243.957z"/>
	<path fill="#CB6120" d="M480.543,279.14c28.529,8.558,41.74-11.41,41.74-11.41c-32.729,13.544-82.193-22.346-82.193-22.346
		c-9.076-7.135-29.525-20.923-29.525-20.923c-16.539-10.319-30.601-1.428-30.601-1.428c19.709-4.752,50.18,24.251,50.18,24.251
		C462.018,274.761,480.543,279.14,480.543,279.14z"/>
	<path fill="#CB6120" d="M480.363,310.521c0,0,7.313,14.086,0.358,16.937c0,0-8.38,2.498-7.488-3.741c0,0,0.104-13.136-9.489-28.411
		c0,0,5.882,22.823,4.448,30.431c0,0-3.815,9.036,2.369,9.986c0,0,8.985,2.378,18.992,0c0,0,5.074-1.487,2.045-8.443
		C491.599,327.279,486.07,317.118,480.363,310.521z"/>
	<path fill="#CB6120" d="M522.283,282.527c-7.294,3.568-17.137,6.419-17.137,6.419c18.902,0.533,14.977,7.847,14.977,7.847
		c-4.278,8.379-17.648,6.061-17.648,6.061c3.03,4.996-1.781,6.956-1.781,6.956c-7.493,3.742-49.572-39.407-49.572-39.407
		c30.013,41.661,50.464,55.274,50.464,55.274c11.051,4.458,14.977-4.637,14.977-4.637c1.248-4.101-4.105-9.27-4.105-9.27
		c5.354,2.14,9.827,0,9.827,0c3.229-1.428,9.786-12.484,9.786-12.484c7.136-11.23,5.35-15.156,5.35-15.156
		C534.746,276.289,522.283,282.527,522.283,282.527z"/>
	<path fill="#CB6120" d="M62.273,258.371v8.19h252.211c-0.612-2.866-1-5.633-1.238-8.19H62.273z"/>
	<path fill="#CB6120" d="M555.267,266.561h58.062v-8.19h-52.872C558.331,261.406,556.63,264.118,555.267,266.561z"/>
</g>
</svg>
