<?xml version="1.0" encoding="utf-8"?>
<!-- Generator: Adobe Illustrator 16.0.0, SVG Export Plug-In . SVG Version: 6.00 Build 0)  -->
<!DOCTYPE svg PUBLIC "-//W3C//DTD SVG 1.1//EN" "http://www.w3.org/Graphics/SVG/1.1/DTD/svg11.dtd">
<svg version="1.1" id="Capa_1" xmlns="http://www.w3.org/2000/svg" xmlns:xlink="http://www.w3.org/1999/xlink" x="0px" y="0px"
	 width="563.678px" height="380.257px" viewBox="0 0 563.678 380.257" enable-background="new 0 0 563.678 380.257"
	 xml:space="preserve">
<g>
	<g>
		<defs>
			<path id="SVGID_5_" d="M161.16,180.49l-20.568-55.99l-19.981,55.99H161.16z M302.499,178.73
				c-0.339-0.032-0.737-0.028-1.059-0.028h-27.226c-12.447,0-23.937-3.442-33.891-10.958l-0.05-0.037
				c-10.605-8.159-16.119-19.19-16.119-32.582v-23.079c0-19.961,7.641-36.388,26.208-45.021c7.136-3.318,16.335-4,24.108-4h226.126
				v39.701h-83.251c-2.877,0-4.813,1.242-6.52,3.522c-2.181,2.904-3.318,6.054-3.318,9.688v24.102h92.833V180h-92.833v28.769
				c0,0.759,0.248,1.491,0.583,2.164l0.04,0.079c1.58,3.265,3.775,5.581,7.329,6.529c1.357,0.363,3.254,0.473,4.657,0.564
				c3.21,0.207,6.458,0.245,9.677,0.245h70.025v39.7h-77.024c-36.156,0-54.988-19.515-54.988-55.504V115.16
				c0-4.14,0.278-8.325,0.957-12.433h-95.979c-0.491,0.111-0.986,0.19-1.49,0.23c-5.025,0.834-7.438,2.711-7.438,8.054v17.891
				c0,7.921,2.011,12.175,10.357,12.175h31.893c9.143,0,17.737,2.302,25.651,6.853c13.448,7.656,22.076,19.1,22.076,34.909v28.523
				c0,15.934-6.605,28.873-19.721,37.964c-8.37,5.805-17.731,8.723-27.919,8.723H189.693l-14.047-37.858H106.42l-14.175,37.858
				H49.88l63.755-173.753c4.462-12.058,12.489-23.344,26.565-23.344c14.736,0,23.564,10.333,28.375,23.341l0.012,0.034
				l48.752,134.021h85.702c0.517,0,1.035,0,1.554,0h0.949c2.3-0.271,4.169-1.308,5.84-2.932l0.037-0.036l0.035-0.033
				c1.531-1.445,2.419-2.987,2.419-5.111v-23.164c0-1.401-0.216-2.894-0.997-4.087c-1.786-2.729-6.477-3.703-9.437-4.078
				l-0.657-0.083L302.499,178.73z"/>
		</defs>
		<use xlink:href="#SVGID_5_"  overflow="visible" fill-rule="evenodd" clip-rule="evenodd" fill="#211915"/>
		<clipPath id="SVGID_2_">
			<use xlink:href="#SVGID_5_"  overflow="visible"/>
		</clipPath>
		<rect x="49.88" y="60.952" clip-path="url(#SVGID_2_)" fill="#211915" width="450.718" height="197.097"/>
	</g>
	<g>
		<defs>
			<path id="SVGID_7_" d="M468.708,317.792V280.89h7.115v36.832c0,1.974,0.458,3.357,1.372,4.156
				c0.915,0.798,2.382,1.197,4.404,1.197h18.659v7.112h-18.522c-4.13,0-7.298-1.033-9.507-3.098
				C469.884,324.977,468.708,321.877,468.708,317.792 M439.523,312.792l-8.237-22.43l-8.008,22.43H439.523z M409.297,330.186
				l16.411-44.719c1.267-3.427,3.101-5.141,5.493-5.141c2.724,0,4.72,1.714,5.989,5.141l16.266,44.719h-7.535l-3.816-10.281h-21.35
				l-3.85,10.281H409.297z M386.92,330.186V280.89h7.111v49.296H386.92z M332.769,330.186V280.89h24.93
				c2.439,0,4.53,0.634,6.269,1.901c2.771,2.065,4.155,4.858,4.155,8.381v8.45c0,2.535-0.938,4.777-2.816,6.725
				c-1.89,1.95-4.072,2.925-6.562,2.925h-8.462l18.193,20.914h-9.439L340.867,309.2c-0.703-0.844-0.845-2.065-0.423-3.662
				c0.657-2.301,2.372-3.45,5.142-3.45h10.774c0.094,0,0.213,0,0.353,0h0.282c2.631-0.422,3.942-1.75,3.942-3.967v-5.518
				c0-2.593-1.219-4.108-3.662-4.531c-0.094,0-0.21-0.022-0.352-0.07H339.88v42.183H332.769z M288.063,288.003v-7.113h28.453v7.113
				h-10.633v42.183h-7.182v-42.183H288.063z M241.39,330.186v-7.112h19.589c0.14,0,0.283,0,0.423,0h0.354
				c1.03-0.094,1.962-0.527,2.77-1.314c0.82-0.773,1.231-1.677,1.231-2.723v-6.292c0-2.311-1.477-3.661-4.437-4.036
				c-0.142-0.048-0.398-0.071-0.774-0.071h-7.394c-3.099,0-5.8-0.868-8.1-2.605c-2.44-1.878-3.662-4.345-3.662-7.396v-6.267
				c0-5.165,2.018-8.687,6.057-10.563c1.316-0.612,3.238-0.917,5.775-0.917h20.001v7.113h-20.704c-0.143,0.047-0.26,0.07-0.354,0.07
				c-2.44,0.375-3.662,1.713-3.662,4.015v4.859c0,3.427,1.551,5.142,4.649,5.142h8.663c2.158,0,4.177,0.539,6.053,1.62
				c3.384,1.925,5.073,4.553,5.073,7.888v7.745c0,3.756-1.526,6.691-4.564,8.803c-1.975,1.363-4.146,2.042-6.54,2.042H241.39z
				 M187.461,318.074V280.89h7.113v36.269c0,3.944,1.807,5.915,5.422,5.915h10.069c1.926,0,3.3-0.423,4.122-1.267
				c0.821-0.846,1.235-2.253,1.235-4.226V280.89h7.181v37.184c0,5.446-2.395,9.18-7.181,11.199c-1.458,0.609-2.867,0.914-4.23,0.914
				H198.94c-1.409,0-2.862-0.304-4.366-0.914C189.831,327.346,187.461,323.615,187.461,318.074z M155.294,323.074
				c3.286,0,4.929-1.996,4.929-5.986v-24.015c-0.047-0.234-0.069-0.398-0.069-0.492c-0.188-1.738-0.648-2.935-1.375-3.592
				c-0.728-0.658-1.959-0.986-3.698-0.986h-16.125v35.071H155.294z M131.842,330.186V280.89h25.141c3.146,0,5.658,1.091,7.536,3.275
				c1.879,2.184,2.819,4.895,2.819,8.133v25.354c0,5.401-2.256,9.179-6.762,11.339c-1.692,0.797-3.335,1.196-4.933,1.196H131.842z
				 M77.069,330.186v-42.395c0-4.882,1.97-7.324,5.902-7.324c0.656,0,1.406,0.093,2.24,0.282c1.879,0.423,3.359,1.973,4.438,4.66
				l14.882,36.186V280.89h7.183v43.381c0,1.692-0.518,3.159-1.548,4.402c-1.034,1.244-2.396,1.96-4.086,2.148
				c-3.145,0.376-5.492-1.268-7.043-4.93l-14.857-35.564v39.859H77.069z M49.77,330.186V280.89h7.112v49.296H49.77z"/>
		</defs>
		<use xlink:href="#SVGID_7_"  overflow="visible" fill="#211915"/>
		<clipPath id="SVGID_4_">
			<use xlink:href="#SVGID_7_"  overflow="visible"/>
		</clipPath>
		<rect x="49.77" y="280.326" clip-path="url(#SVGID_4_)" fill="#211915" width="450.489" height="50.871"/>
	</g>
</g>
</svg>
