<?xml version="1.0" encoding="utf-8"?>
<!-- Generator: Adobe Illustrator 16.0.0, SVG Export Plug-In . SVG Version: 6.00 Build 0)  -->
<!DOCTYPE svg PUBLIC "-//W3C//DTD SVG 1.1//EN" "http://www.w3.org/Graphics/SVG/1.1/DTD/svg11.dtd">
<svg version="1.1" id="Capa_1" xmlns="http://www.w3.org/2000/svg" xmlns:xlink="http://www.w3.org/1999/xlink" x="0px" y="0px"
	 width="367.018px" height="112.874px" viewBox="0 0 367.018 112.874" enable-background="new 0 0 367.018 112.874"
	 xml:space="preserve">
<g>
	<g>
		<path fill="#FFFFFF" d="M150.331,50.679l16.191-35.784h5.329l16.191,35.784h-6.598l-3.553-8.274h-17.46l-3.502,8.274H150.331z
			 M169.111,21.952l-6.447,15.275h12.994l-6.446-15.275H169.111z"/>
		<path fill="#FFFFFF" d="M191.951,50.679V14.895h6.496v30.252h17.155v5.532H191.951z"/>
		<path fill="#FFFFFF" d="M220.475,50.679V14.895h23.805v5.178h-17.561v9.846h16.445v5.178h-16.445v10.406h17.561v5.176H220.475z"/>
		<path fill="#FFFFFF" d="M247.373,51.136l-0.457-5.331l3.605-0.203c3.01-0.203,4.518-1.859,4.518-4.975V14.895h6.496v25.682
			c0,6.43-3.334,9.881-10,10.356L247.373,51.136z"/>
		<path fill="#FFFFFF" d="M285.389,51.185c-3.451,0-6.471-0.76-9.059-2.284c-2.59-1.521-4.594-3.662-6.016-6.42
			c-1.42-2.758-2.131-5.998-2.131-9.721c0-3.756,0.711-7.004,2.131-9.744c1.422-2.74,3.418-4.863,5.99-6.371
			c2.57-1.504,5.6-2.258,9.084-2.258c3.486,0,6.514,0.754,9.086,2.258c2.57,1.508,4.568,3.631,5.988,6.371
			c1.422,2.74,2.133,5.973,2.133,9.693c0,3.758-0.711,7.014-2.133,9.771c-1.42,2.758-3.418,4.898-5.988,6.42
			C291.902,50.425,288.875,51.185,285.389,51.185z M285.389,45.602c3.283,0,5.836-1.133,7.666-3.4
			c1.826-2.266,2.74-5.414,2.74-9.441c0-4.059-0.906-7.207-2.715-9.439c-1.813-2.232-4.375-3.35-7.691-3.35
			c-3.281,0-5.838,1.117-7.664,3.35s-2.74,5.381-2.74,9.439c0,4.027,0.914,7.176,2.74,9.441
			C279.551,44.469,282.107,45.602,285.389,45.602z"/>
		<path fill="#FFFFFF" d="M150.331,98.487l16.191-35.783h5.329l16.191,35.783h-6.598l-3.553-8.273h-17.46l-3.502,8.273H150.331z
			 M169.111,69.759l-6.447,15.277h12.994l-6.446-15.277H169.111z"/>
		<path fill="#FFFFFF" d="M191.951,98.487V62.704h4.871l19.237,24.971V62.704h6.041v35.783h-4.822L197.99,73.413v25.074H191.951z"/>
		<path fill="#FFFFFF" d="M229.914,98.487V62.704h13.299c5.988,0,10.615,1.539,13.881,4.619c3.266,3.078,4.898,7.496,4.898,13.248
			c0,5.717-1.633,10.135-4.898,13.246c-3.266,3.113-7.893,4.67-13.881,4.67H229.914z M236.412,93.106h6.395
			c8.256,0,12.385-4.18,12.385-12.535c0-8.326-4.129-12.488-12.385-12.488h-6.395V93.106z"/>
		<path fill="#FFFFFF" d="M268.59,98.487V62.704h6.498v35.783H268.59z"/>
		<path fill="#FFFFFF" d="M282.852,98.487V62.704h4.873l19.236,24.971V62.704H313v35.783h-4.82l-19.287-25.074v25.074H282.852z"/>
		<path fill="#FFFFFF" d="M316.959,98.487l16.191-35.783h5.328l16.191,35.783h-6.598l-3.553-8.273h-17.461l-3.502,8.273H316.959z
			 M335.738,69.759l-6.445,15.277h12.992l-6.445-15.277H335.738z"/>
	</g>
	<g>
		<polygon fill="#009BDB" points="54.701,15.092 12.347,98.089 44.088,98.089 70.571,46.192 		"/>
		<polygon fill="#FFFFFF" points="86.441,15.092 70.571,46.192 97.053,98.089 128.794,98.089 		"/>
		<polygon fill="#91CFE2" points="44.088,98.089 97.053,98.089 70.571,46.192 		"/>
	</g>
</g>
</svg>
