<?xml version="1.0" encoding="utf-8"?>
<!-- Generator: Adobe Illustrator 16.0.0, SVG Export Plug-In . SVG Version: 6.00 Build 0)  -->
<!DOCTYPE svg PUBLIC "-//W3C//DTD SVG 1.1//EN" "http://www.w3.org/Graphics/SVG/1.1/DTD/svg11.dtd">
<svg version="1.1" id="Capa_1" xmlns="http://www.w3.org/2000/svg" xmlns:xlink="http://www.w3.org/1999/xlink" x="0px" y="0px"
	 width="463.449px" height="467.075px" viewBox="0 0 463.449 467.075" enable-background="new 0 0 463.449 467.075"
	 xml:space="preserve">
<g>
	<path fill="#CB6120" d="M425.73,232.458c0-105.243-85.623-190.869-190.871-190.869c-105.244,0-190.867,85.626-190.867,190.869
		c0,37.118,10.658,71.785,29.061,101.124c0.224,1.295,0.957,2.418,2.006,3.131c34.113,52.112,92.998,86.615,159.801,86.615
		c43.874,0,84.327-14.884,116.602-39.863H352v-0.415C396.838,348.09,425.73,293.587,425.73,232.458 M109.065,360.761h251.594
		c-4.759,4.668-9.768,9.082-15.019,13.201H124.08C118.83,369.842,113.822,365.429,109.065,360.761z M234.859,52.678
		c99.133,0,179.784,80.648,179.784,179.78c0,35.096-10.116,67.863-27.573,95.568h-80.262c-2.623,0-4.751,2.126-4.751,4.752
		c0,2.625,2.128,4.75,4.751,4.75h73.846c-3.439,4.759-7.104,9.339-10.98,13.729H100.048c-3.877-4.39-7.542-8.97-10.979-13.729
		h112.809c2.625,0,4.752-2.125,4.752-4.75c0-2.626-2.127-4.752-4.752-4.752H82.65c-17.456-27.705-27.572-60.473-27.572-95.568
		C55.078,133.326,135.728,52.678,234.859,52.678z M186.553,405.637h96.615c-15.377,4.299-31.578,6.604-48.309,6.604
		S201.932,409.937,186.553,405.637z M309.206,396.134H160.518c-8.038-3.663-15.762-7.905-23.114-12.67H332.32
		C324.962,388.229,317.24,392.471,309.206,396.134z"/>
	<path fill="#CB6120" d="M324.469,226.391c0-6.577-5.329-11.901-11.901-11.901c-6.576,0-11.905,5.325-11.905,11.901
		c0,6.572,5.329,11.904,11.905,11.904C319.14,238.294,324.469,232.963,324.469,226.391"/>
	<path fill="#CB6120" d="M359.125,226.391c0-6.577-5.324-11.901-11.898-11.901c-6.576,0-11.902,5.325-11.902,11.901
		c0,6.572,5.326,11.904,11.902,11.904C353.801,238.294,359.125,232.963,359.125,226.391"/>
	<path fill="#CB6120" d="M369.979,226.391c0,6.572,5.329,11.904,11.903,11.904c6.578,0,11.907-5.332,11.907-11.904
		c0-6.577-5.329-11.901-11.907-11.901C375.309,214.489,369.979,219.814,369.979,226.391"/>
	<path fill="#CB6120" d="M343.273,260.645c0-6.572-5.328-11.9-11.904-11.9c-6.57,0-11.903,5.328-11.903,11.9
		c0,6.574,5.333,11.904,11.903,11.904C337.945,272.549,343.273,267.218,343.273,260.645"/>
	<path fill="#CB6120" d="M365.045,248.741c-6.574,0-11.901,5.331-11.901,11.903c0,6.574,5.327,11.904,11.901,11.904
		c6.576,0,11.904-5.331,11.904-11.904C376.949,254.072,371.621,248.741,365.045,248.741"/>
	<path fill="#CB6120" d="M347.223,283c-6.572,0-11.896,5.327-11.896,11.903c0,6.574,5.324,11.904,11.896,11.904
		c6.577,0,11.902-5.331,11.902-11.904C359.125,288.326,353.8,283,347.223,283"/>
	<path fill="#CB6120" d="M271.737,147.119h-77.604c-3.501,0-6.336,2.839-6.336,6.338c0,3.499,2.835,6.335,6.336,6.335h77.604
		c3.499,0,6.337-2.836,6.337-6.335C278.074,149.958,275.236,147.119,271.737,147.119"/>
	<path fill="#CB6120" d="M187.847,132.935c0.399,3.167,3.095,5.542,6.286,5.542h77.604c3.225,0,5.937-2.425,6.3-5.629l4.875-43.449
		c0.248-2.187-0.661-4.343-2.394-5.7c-1.735-1.356-4.048-1.714-6.106-0.947l-19.896,7.389l-16.457-22.604
		c-1.176-1.614-3.045-2.579-5.043-2.605c-2.024-0.018-3.89,0.89-5.105,2.474l-17.109,22.284l-19.99-7.614
		c-2.076-0.794-4.42-0.438-6.17,0.94c-1.75,1.374-2.648,3.563-2.373,5.773L187.847,132.935z M210.697,103.21
		c2.617,0.995,5.576,0.157,7.282-2.063l14.821-19.304l14.297,19.638c1.669,2.297,4.673,3.198,7.33,2.21l14.744-5.478l-3.097,27.592
		h-66.356l-3.555-28.134L210.697,103.21z"/>
	<path fill="#CB6120" d="M120.973,187.307c0.357-0.931-0.256-2.133,2.19-2.193c7.905,0,35.042-0.111,46.3,0.197
		c4.003,0.11,5.164,0.242,8.926,1.527c4.314,1.479,7.801,3.325,10.979,6.185c-14.441,18.168-7.779,41.511-3.162,48.703
		c1.166,1.818,1.888,2.712,3.111,3.894c-7.463,6.252-13.552,7.561-21.703,7.792c-11.173,0.319-23.118,0.386-34.285,0.346
		c-4.209-0.013-7.527,0.067-12.351-0.151l-0.005-2.98V187.307z M191.838,215.856c0.619-4.527,2.595-10.173,5.168-14.55
		c5.826,12.166,6.397,23.912-0.079,35.732C192.187,230.568,191.07,223.896,191.838,215.856z M107.578,178.541
		c1.134,2.762,1.74,6.616,1.824,11.565v114.585c-0.084,5.846-0.527,9.342-1.338,10.474c-1.303,2.113-1.461,3.569-0.486,4.383
		c0.973,0.975,3.811,1.383,8.523,1.219c1.74-0.037,9.412-0.519,6.802-4.212c-0.72-1.015-1.858-2.36-1.931-4.557v-41.291l0.049-6.09
		l46.708-0.352c1.587,0.251,3.405,1.795,5.349,4.176c4.813,5.906,10.381,16.962,15.014,26.221
		c6.161,12.326,11.219,20.911,21.16,30.852c8.524,8.527,18.537,14.158,29.732,16.489c17.182,3.572,43.206-2.347,56.479-13.203
		c2.195-1.782,3.371-2.92,3.535-3.406c0.811-1.784,0.73-3.569-0.244-5.357c-0.813-1.621-2.189-2.475-4.141-2.559
		c-5.729-0.245-14.388,14.432-42.619,14.245c-17.075-0.111-28.779-7.444-38.375-18.133c-8.492-9.462-11.595-16.246-17.321-26.975
		c-4.4-8.241-9.929-18.169-11.274-19.917c-4.595-5.947,6.682-8.569,12.545-13.555c1.281,0.141,9.578,6.064,20.092,6.563
		c22.607,1.075,36.266-15.171,36.254-33.153c-0.01-21.279-25.191-31.549-32.363-25.066c-4.607,4.547-0.942,9.891,4.87,9.985
		c19.362,0.308,19.403,25.498,7.408,33.203c-8.296,5.328-20.401,5.241-28.527,0.145c11.802-15.714,10.429-37.356-0.917-52.152
		c7.909-5.917,15.418-8.201,22.938-8.516c13.379-0.56,35.227,2.568,40.288,4.584c2.907,1.156,2.648,1.43,2.648,4.142v56.827
		c0.079,32.681,1.384,59.519-1.952,66.246c-2.814,5.672,3.804,5.518,12.182,5.023c4.241-0.248,2.58-3.493,1.459-10.019
		c-0.489-2.84-0.693-23.215-0.607-61.125c0.09-41.759-1.738-55.328,1-57.745c1.729-1.53,7.811-0.158,17.875,1.242
		c20.971,2.917,44.338,6.208,64.778,0.366c1.998-0.569,4.694-1.419,7.106-2.582c3.141-1.514,5.801-3.553,5.801-6.185
		c0-1.858-1.424-4.166-3.166-4.872c-3.342-1.331-6.549,0.398-9.496,1.949c-39.699,19.785-132.92-28.714-166.584,1.098
		c-0.631,0.563-1.209,1.088-1.756,1.597c-2.395-2.06-4.891-3.794-7.494-5.183c-2.955-1.561-9.088-3.808-13.535-4.943
		c-2.309-0.593-3.582-0.613-5.682-0.649l-57.496,0.235c-3.574,0.161-5.523,0.649-5.845,1.46
		C106.682,176.106,106.928,177.081,107.578,178.541z"/>
</g>
</svg>
