<?xml version="1.0" encoding="utf-8"?>
<!-- Generator: Adobe Illustrator 16.0.0, SVG Export Plug-In . SVG Version: 6.00 Build 0)  -->
<!DOCTYPE svg PUBLIC "-//W3C//DTD SVG 1.1//EN" "http://www.w3.org/Graphics/SVG/1.1/DTD/svg11.dtd">
<svg version="1.1" id="Capa_1" xmlns="http://www.w3.org/2000/svg" xmlns:xlink="http://www.w3.org/1999/xlink" x="0px" y="0px"
	 width="513.017px" height="475.093px" viewBox="0 0 513.017 475.093" enable-background="new 0 0 513.017 475.093"
	 xml:space="preserve">
<g>
	<g>
		<path fill="#CB6120" d="M406.643,263.607c-11.553-10.371-120.719-114.883-120.719-114.883s-8.213-11.598-20.891,0
			c-6.098,5.578-32.855,29.964-60.273,55.22V173.44c0-1.816-1.473-3.289-3.287-3.289h-23.126c-1.817,0-3.288,1.472-3.288,3.289
			v57.997c-17.844,16.622-32.306,30.345-36.255,34.78c-10.63,11.27-2.051,16.849,5.875,16.849c1.57,0,18.256-0.013,44.435-0.03
			v78.554c8.012,6.582,19.885,15.997,31.746,24.206c3.149-24.968,13.566-43.31,25.96-43.31c5.573,0,10.751,3.708,15.047,10.062
			c-1.463,7.656-2.23,15.904-2.23,24.373c0,6.535,0.469,12.928,1.351,19.029h7.981c-0.746-5.401-1.153-11.12-1.153-17.054
			c0-32.631,12.066-59.087,26.951-59.087c5.572,0,10.751,3.708,15.05,10.062c-1.467,7.656-2.231,15.903-2.231,24.374
			c0,15.373,2.538,30.005,7.173,41.705h8.587c-4.652-10.62-7.52-25.021-7.52-40.907c0-32.633,12.066-59.088,26.95-59.088
			c7.323,0,13.958,6.409,18.817,16.797v-29.776c27.46,0.007,41.045-0.004,41.955-0.01
			C411.209,282.917,420.089,275.68,406.643,263.607z M246.819,336.77c-8.779,0-15.895-7.117-15.895-15.894
			c0-8.78,7.115-15.897,15.895-15.897c8.778,0,15.896,7.117,15.896,15.897C262.715,329.652,255.598,336.77,246.819,336.77z
			 M294.766,314.091c-8.776,0-15.894-7.116-15.894-15.895c0-8.779,7.117-15.896,15.894-15.896c8.78,0,15.897,7.116,15.897,15.896
			C310.663,306.975,303.546,314.091,294.766,314.091z M342.774,290.237c-8.777,0-15.895-7.116-15.895-15.895
			c0-8.778,7.117-15.895,15.895-15.895c8.778,0,15.896,7.116,15.896,15.895C358.671,283.121,351.553,290.237,342.774,290.237z"/>
		<g>
			<path fill="#CB6120" d="M465.256,126.639c0,0-18.767-66.954-86.998-80.867C327.32,35.386,272.975,64.547,249.77,109.775
				c0,0-37.021-51.179-90.445-61.884c-68.02-13.627-109.763,46.227-118.08,86.403c-8.931,43.165-11.292,97.862,48.73,168.59
				c23.946,28.219,103.1,102.497,170.646,124.176c0,0-164.234-86.137-199.229-215.788c0,0-3.482-14.31-3.627-34.13
				c0,0,0-0.016,0-0.019c-0.003-0.409-0.021-0.824,0-1.236c3.16-59.838,29.634-86.813,50.561-98.898
				c12.553-7.251,33.847-14.476,60.563-3.74c23.025,9.253,51.967,28.235,81.119,71.063c0,0,9.109-16.241,22.967-33.439
				c67.283-78.202,138.043-28.773,155.04-6.327c17.647,23.296,41.387,84.087-29.094,133.081l15.416,15.149
				C431.581,241.539,486.781,199.009,465.256,126.639z"/>
			<path fill="#CB6120" d="M406.093,158.741c-0.55-29.885-25.22-53.665-55.104-53.117c-23.116,0.425-42.569,15.287-49.943,35.827
				l70.107,68.892C391.926,202.475,406.523,182.224,406.093,158.741z"/>
		</g>
	</g>
</g>
</svg>
