<?xml version="1.0" encoding="utf-8"?>
<!-- Generator: Adobe Illustrator 16.0.0, SVG Export Plug-In . SVG Version: 6.00 Build 0)  -->
<!DOCTYPE svg PUBLIC "-//W3C//DTD SVG 1.1//EN" "http://www.w3.org/Graphics/SVG/1.1/DTD/svg11.dtd">
<svg version="1.1" id="Capa_1" xmlns="http://www.w3.org/2000/svg" xmlns:xlink="http://www.w3.org/1999/xlink" x="0px" y="0px"
	 width="510.429px" height="495.151px" viewBox="0 0 510.429 495.151" enable-background="new 0 0 510.429 495.151"
	 xml:space="preserve">
<g>
	<g>
		<path fill="#CB6120" d="M158.55,428.657l6.408-31.1H85.194l5.934-27.775l87.127-101.844h45.578l-21.602,102.081h21.365
			l-5.936,27.538h-21.365l-6.41,31.1H158.55z M186.325,297.613l-63.148,72.406h47.717L186.325,297.613z"/>
		<path fill="#CB6120" d="M235.938,428.657l27.537-130.095h-21.84l6.41-30.624h55.787l-33.947,160.719H235.938z"/>
		<path fill="#CB6120" d="M360.331,428.657l6.41-31.1h-79.764l5.934-27.775l87.125-101.844h45.58l-21.604,102.081h21.367
			l-5.936,27.538h-21.367l-6.408,31.1H360.331z M388.106,297.613l-63.146,72.406h47.717L388.106,297.613z"/>
	</g>
	<g>
		<rect x="83.399" y="196.12" fill="#CB6120" width="52.326" height="22.872"/>
		<rect x="141.733" y="196.12" fill="#CB6120" width="52.326" height="22.872"/>
		<rect x="200.067" y="196.12" fill="#CB6120" width="52.324" height="22.872"/>
		<rect x="200.067" y="167.762" fill="#CB6120" width="52.324" height="22.876"/>
		<rect x="200.067" y="139.41" fill="#CB6120" width="52.324" height="22.872"/>
		<rect x="258.397" y="196.12" fill="#CB6120" width="52.326" height="22.872"/>
		<rect x="258.397" y="167.762" fill="#CB6120" width="52.326" height="22.876"/>
		<rect x="316.731" y="167.762" fill="#CB6120" width="52.324" height="22.876"/>
		<rect x="316.731" y="139.41" fill="#CB6120" width="52.324" height="22.872"/>
		<rect x="258.397" y="139.41" fill="#CB6120" width="52.326" height="22.872"/>
		<rect x="258.397" y="111.056" fill="#CB6120" width="52.326" height="22.873"/>
		<rect x="258.397" y="82.7" fill="#CB6120" width="52.326" height="22.876"/>
		<rect x="258.397" y="54.346" fill="#CB6120" width="52.326" height="22.872"/>
		<rect x="316.731" y="196.12" fill="#CB6120" width="52.324" height="22.872"/>
		<rect x="375.065" y="196.12" fill="#CB6120" width="52.324" height="22.872"/>
		<rect x="375.065" y="167.762" fill="#CB6120" width="52.324" height="22.876"/>
		<rect x="83.399" y="167.762" fill="#CB6120" width="52.326" height="22.876"/>
		<rect x="141.731" y="167.762" fill="#CB6120" width="52.328" height="22.876"/>
		<rect x="141.731" y="139.41" fill="#CB6120" width="52.328" height="22.875"/>
		<rect x="141.731" y="111.056" fill="#CB6120" width="52.328" height="22.876"/>
	</g>
</g>
</svg>
