<?xml version="1.0" encoding="utf-8"?>
<!-- Generator: Adobe Illustrator 16.0.0, SVG Export Plug-In . SVG Version: 6.00 Build 0)  -->
<!DOCTYPE svg PUBLIC "-//W3C//DTD SVG 1.1//EN" "http://www.w3.org/Graphics/SVG/1.1/DTD/svg11.dtd">
<svg version="1.1" id="Capa_1" xmlns="http://www.w3.org/2000/svg" xmlns:xlink="http://www.w3.org/1999/xlink" x="0px" y="0px"
	 width="779.774px" height="467.075px" viewBox="0 0 779.774 467.075" enable-background="new 0 0 779.774 467.075"
	 xml:space="preserve">
<g>
	<g>
		<g>
			<polygon fill-rule="evenodd" clip-rule="evenodd" fill="#211915" points="428.666,280.61 357.803,280.61 428.666,68.019 			"/>
			<path fill="#211915" d="M428.666,68.019V280.61h-70.863L428.666,68.019 M428.664,64.128c-1.65,0-3.152,1.052-3.689,2.66
				l-70.863,212.591c-0.395,1.187-0.197,2.491,0.535,3.506c0.73,1.015,1.905,1.615,3.156,1.615h70.863
				c2.148,0,3.891-1.742,3.891-3.891V68.019c0-1.908-1.383-3.534-3.268-3.84C429.08,64.144,428.871,64.128,428.664,64.128
				L428.664,64.128z"/>
		</g>
		<g>
			<polygon fill-rule="evenodd" clip-rule="evenodd" fill="#211915" points="286.709,138.882 357.803,103.451 286.709,209.747 			
				"/>
			<path fill="#211915" d="M357.803,103.451l-71.094,106.296v-70.864L357.803,103.451 M357.803,99.56
				c-0.59,0-1.183,0.133-1.735,0.408L284.973,135.4c-1.32,0.658-2.154,2.008-2.154,3.482v70.864c0,1.714,1.12,3.225,2.76,3.723
				c0.373,0.114,0.754,0.168,1.131,0.168c1.274,0,2.498-0.628,3.234-1.728l71.094-106.296c0.98-1.466,0.852-3.409-0.313-4.733
				C359.966,100.019,358.893,99.56,357.803,99.56L357.803,99.56z"/>
		</g>
		<g>
			<polygon fill-rule="evenodd" clip-rule="evenodd" fill="#FFFFFF" points="393.234,138.882 286.709,138.882 357.803,103.451 			
				"/>
			<path fill="#211915" d="M357.803,103.451l35.432,35.432H286.709L357.803,103.451 M357.803,99.56c-0.59,0-1.184,0.134-1.735,0.408
				L284.973,135.4c-1.615,0.807-2.465,2.617-2.051,4.374c0.412,1.757,1.982,3,3.787,3h106.525c1.574,0,2.992-0.948,3.595-2.401
				c0.603-1.455,0.271-3.129-0.843-4.24l-35.432-35.432C359.807,99.953,358.811,99.56,357.803,99.56L357.803,99.56z"/>
		</g>
		<g>
			<polygon fill-rule="evenodd" clip-rule="evenodd" fill="#FFFFFF" points="286.709,280.61 428.666,280.61 429.014,252.48 
				286.709,138.882 			"/>
			<path fill="#211915" d="M286.709,138.882L429.014,252.48l-0.348,28.13H286.709V138.882 M286.709,134.992
				c-0.574,0-1.152,0.127-1.688,0.385c-1.348,0.648-2.203,2.012-2.203,3.506V280.61c0,2.148,1.742,3.891,3.891,3.891h141.957
				c2.131,0,3.865-1.713,3.891-3.842l0.348-28.13c0.016-1.201-0.525-2.341-1.463-3.089L289.135,135.842
				C288.434,135.281,287.574,134.992,286.709,134.992L286.709,134.992z"/>
		</g>
		<g>
			<polygon fill-rule="evenodd" clip-rule="evenodd" fill="#FFFFFF" points="428.666,209.747 428.666,68.019 499.761,209.747 			"/>
			<path fill="#211915" d="M428.666,68.019l71.095,141.728h-71.095V68.019 M428.668,64.128c-0.298,0-0.6,0.034-0.898,0.104
				c-1.754,0.416-2.994,1.982-2.994,3.786v141.728c0,2.148,1.742,3.891,3.891,3.891h71.095c1.349,0,2.603-0.699,3.312-1.848
				s0.771-2.582,0.166-3.788L432.145,66.275C431.473,64.938,430.113,64.128,428.668,64.128L428.668,64.128z"/>
		</g>
	</g>
	<path fill="#211915" d="M607.083,372.173v-10.05h2.667c2.5,0,4.652-0.902,6.456-2.69c1.757-1.772,2.628-3.894,2.628-6.409
		c0-2.533-0.871-4.685-2.628-6.489c-1.804-1.789-3.956-2.69-6.456-2.69h-2.667v-10.05h2.667c5.285,0,9.797,1.884,13.547,5.649
		c3.768,3.735,5.65,8.263,5.65,13.58c0,5.286-1.883,9.813-5.65,13.548c-3.75,3.734-8.262,5.602-13.547,5.602H607.083
		L607.083,372.173z M637.064,333.794v66.345h33.838v-10.066h-23.785v-18.168h18.357v-10.065h-18.357v-17.995h23.785v-10.05H637.064
		L637.064,333.794z M678.975,333.794v66.345h33.838v-10.066h-23.787v-56.278H678.975z M607.083,333.794v10.05h-11.751v18.279h11.751
		v10.05h-11.751v27.966h-10.066v-66.345H607.083L607.083,333.794z M555.614,384.645v-10.049h8.095v-25.561l-8.095,12.779v-18.823
		l5.816-9.197h12.394v66.345h-10.115v-15.494H555.614z M555.614,342.992v18.823l-8.095,12.781h8.095v10.049h-14.44l-9.781,15.494
		h-8.238v-5.818L555.614,342.992L555.614,342.992z M523.154,371.448c3.027-0.859,5.74-2.485,8.144-4.876
		c3.767-3.735,5.649-8.262,5.649-13.548c0-5.317-1.883-9.845-5.649-13.58c-2.403-2.411-5.116-4.051-8.144-4.918v11.096
		c0.363,0.272,0.715,0.577,1.053,0.913c1.757,1.805,2.628,3.956,2.628,6.489c0,2.516-0.871,4.637-2.628,6.409
		c-0.338,0.336-0.689,0.64-1.053,0.914V371.448z M523.154,334.526v11.096c-1.572-1.183-3.373-1.777-5.404-1.777h-2.666v-10.05h2.666
		C519.652,333.794,521.453,334.039,523.154,334.526L523.154,334.526z M523.154,360.347v11.101c-1.701,0.484-3.502,0.726-5.404,0.726
		h-2.666v-10.05h2.666C519.781,362.124,521.582,361.529,523.154,360.347L523.154,360.347z M523.154,394.321v5.818h-3.68
		L523.154,394.321z M515.084,333.794v10.05h-11.752v18.279h11.752v10.05h-11.752v27.966h-10.066v-66.345H515.084L515.084,333.794z
		 M410.604,399.122v-6.329c3.99-1.275,7.582-3.511,10.777-6.707c5.318-5.318,7.979-11.728,7.979-19.245
		c0-7.502-2.66-13.912-7.979-19.229c-3.195-3.197-6.787-5.434-10.777-6.708v-6.329c5.639,1.424,10.666,4.346,15.084,8.763
		c6.504,6.489,9.749,14.323,9.749,23.503c0,9.195-3.245,17.029-9.749,23.518C421.27,394.776,416.242,397.697,410.604,399.122
		L410.604,399.122z M440.992,333.557v66.582h33.979v-6.125H447.1v-24.198h22.031v-6.125H447.1v-24.009h27.871v-6.125H440.992z
		 M410.604,334.575v6.329c-2.646-0.846-5.469-1.27-8.467-1.27H391.85v54.428h10.287c2.998,0,5.82-0.424,8.467-1.27v6.329
		c-2.684,0.678-5.506,1.018-8.467,1.018h-16.365v-66.582h16.365C405.098,333.557,407.92,333.897,410.604,334.575L410.604,334.575z
		 M343.168,399.267v-10.456c3.127-1.118,5.965-2.953,8.514-5.512c4.512-4.511,6.758-9.939,6.758-16.316
		c0-6.395-2.246-11.854-6.758-16.365c-2.549-2.549-5.387-4.385-8.514-5.505v-10.446c5.857,1.36,11.057,4.313,15.605,8.86
		c6.456,6.489,9.686,14.308,9.686,23.456c0,9.115-3.229,16.934-9.686,23.424C354.225,394.953,349.025,397.907,343.168,399.267z
		 M343.168,334.667v10.446c-2.445-0.877-5.068-1.315-7.866-1.315h-7.407v46.324h7.407c2.798,0,5.421-0.436,7.866-1.311v10.456
		c-2.502,0.582-5.125,0.872-7.866,0.872h-17.425v-66.345h17.425C338.043,333.794,340.666,334.084,343.168,334.667L343.168,334.667z
		 M288.542,384.645v-10.049h8.095v-25.561l-8.095,12.779v-18.823l5.816-9.197h12.392v66.345h-10.113v-15.494H288.542z
		 M288.542,342.992v18.823l-8.095,12.781h8.095v10.049h-14.44l-9.781,15.494h-9.235v-4.242L288.542,342.992L288.542,342.992z
		 M255.085,380.291c1.788-4.074,2.683-8.511,2.683-13.308c0-4.814-0.895-9.259-2.683-13.337V380.291z M255.085,353.646v26.645
		c-1.61,3.668-3.944,7.041-7.003,10.116c-4.547,4.546-9.748,7.5-15.605,8.86v-10.456c3.129-1.118,5.965-2.953,8.516-5.512
		c4.51-4.511,6.758-9.939,6.758-16.316c0-6.395-2.248-11.854-6.758-16.365c-2.551-2.549-5.387-4.385-8.516-5.505v-10.446
		c5.857,1.36,11.059,4.313,15.605,8.86C251.141,346.601,253.475,349.975,255.085,353.646L255.085,353.646z M255.085,395.897
		l-2.683,4.242h2.683V395.897z M107.51,390.674c-6.551,0-12.154-2.311-16.791-6.946c-4.637-4.638-6.949-10.241-6.949-16.792
		c0-6.553,2.313-12.141,6.949-16.776c4.637-4.67,10.24-7.013,16.791-7.013c4.021,0,7.771,0.967,11.27,2.881v-11.031
		c-3.656-1.266-7.408-1.898-11.27-1.898c-9.338,0-17.313,3.308-23.93,9.923c-6.614,6.615-9.923,14.577-9.923,23.915
		c0,9.336,3.309,17.313,9.923,23.929c6.617,6.615,14.592,9.923,23.93,9.923c3.861,0,7.613-0.648,11.27-1.945v-10.985
		C115.281,389.742,111.53,390.674,107.51,390.674L107.51,390.674z M232.477,334.667v10.446c-2.445-0.877-5.066-1.315-7.865-1.315
		h-7.406v46.324h7.406c2.799,0,5.42-0.436,7.865-1.311v10.456c-2.502,0.582-5.123,0.872-7.865,0.872h-17.426v-66.345h17.426
		C227.354,333.794,229.975,334.084,232.477,334.667L232.477,334.667z M137.264,333.874h-10.064v66.266h10.064V333.874
		L137.264,333.874z M172.367,400.74c-6.488,0-12.059-2.294-16.697-6.9c-4.605-4.604-6.9-10.176-6.9-16.696v-43.396h10.098v43.396
		c0,3.735,1.313,6.916,3.957,9.544c2.644,2.658,5.84,3.987,9.543,3.987c3.734,0,6.932-1.329,9.559-3.987
		c2.66-2.628,3.973-5.809,3.973-9.544v-43.396h10.113v43.396c0,6.521-2.311,12.092-6.947,16.696
		C184.459,398.446,178.888,400.74,172.367,400.74z"/>
</g>
</svg>
