<?xml version="1.0" encoding="utf-8"?>
<!-- Generator: Adobe Illustrator 16.0.0, SVG Export Plug-In . SVG Version: 6.00 Build 0)  -->
<!DOCTYPE svg PUBLIC "-//W3C//DTD SVG 1.1//EN" "http://www.w3.org/Graphics/SVG/1.1/DTD/svg11.dtd">
<svg version="1.1" id="Capa_1" xmlns="http://www.w3.org/2000/svg" xmlns:xlink="http://www.w3.org/1999/xlink" x="0px" y="0px"
	 width="566.802px" height="487.855px" viewBox="0 0 566.802 487.855" enable-background="new 0 0 566.802 487.855"
	 xml:space="preserve">
<g>
	<g>
		<path fill="#211915" d="M221.138,124.228c0,0,12.574-11.321,27.46-24.285c18.377-16.006,44.01-30.321,71.938-33.275
			c5.894-0.625,11.329-0.982,15.405-0.098c-16.964-9.712-36.597-15.293-57.548-15.293c-40.024,0-75.314,20.266-96.175,51.095
			C182.218,119.699,196.918,143.461,221.138,124.228z"/>
		<path fill="#211915" d="M283.523,116.123c0,0-29.096,26.718-54.877,34.991c-32.986,10.581-55.778-3.556-63.422-9.397
			c-1.854,8.238-2.867,16.794-2.867,25.593c0,1.927,0.055,3.84,0.146,5.744c9.56,18.33,32.518,29.394,32.518,29.394
			c29.799,16.721,66.018-7.253,66.018-7.253c29.325-19.59,46.429-29.018,46.429-29.018c38.807-21.168,84.459-1.166,86.93-0.053
			c-0.215-21.518-6.269-41.636-16.68-58.829C327.844,72.495,283.523,116.123,283.523,116.123z"/>
		<path fill="#211915" d="M242.458,244.793c-18.555,6.93-36.929,4.528-48.17,2.411c21.14,22.247,50.99,36.141,84.104,36.141
			c49.153,0,91.137-30.577,108.046-73.734c-16.211-38.135-50.498-26.219-76.902-7.269
			C298.688,210.128,269.523,234.682,242.458,244.793z"/>
	</g>
	<g>
		<path fill="#211915" d="M84.194,319.493l-17.42,98.822H47.449l17.419-98.822H84.194z M99.715,368.977l28.695,49.338h-24.306
			l-28.692-49.338l46.115-49.484h24.305L99.715,368.977z"/>
		<path fill="#211915" d="M214.787,418.315h-19.474l5.125-29.719h-34.405l9.37-19.473h28.549l3.951-22.838
			c0.734-4.1-1.9-7.319-6.001-7.319h-27.084c-3.955,0-7.906,3.22-8.637,7.319l-12.59,72.029h-19.327l12.738-72.469
			c2.488-14.494,16.543-26.354,31.035-26.354h27.816c14.495,0,24.159,11.859,21.669,26.354L214.787,418.315z"/>
		<path fill="#211915" d="M228.693,418.315l17.423-98.822h19.325l-17.423,98.822H228.693z"/>
		<path fill="#211915" d="M348.158,385.522l-1.171,6.441c-2.489,14.494-16.397,26.352-30.892,26.352h-54.168l17.42-98.822h47.289
			c14.494,0,24.157,11.859,21.667,26.354l-0.586,3.221c-1.024,5.416-3.514,10.688-6.731,15.08
			C346.693,368.832,349.77,376.738,348.158,385.522z M328.538,385.961c0.732-4.101-1.901-7.32-6.002-7.32h-20.788l-2.343-19.473
			h19.766c4.099,0,7.905-3.221,8.638-7.319l0.878-5.563c0.731-4.1-1.902-7.319-6.004-7.319H295.16l-10.541,60.025h34.404
			c4.1,0,7.906-3.368,8.639-7.321L328.538,385.961z"/>
		<path fill="#211915" d="M443.76,345.846l-8.196,46.117c-2.489,14.494-16.399,26.352-30.893,26.352h-24.889
			c-14.495,0-24.302-11.857-21.813-26.352l8.197-46.117c2.489-14.494,16.543-26.354,31.038-26.354h24.888
			C436.587,319.493,446.248,331.352,443.76,345.846z M424.141,346.286c0.734-4.1-1.9-7.319-6.003-7.319h-24.154
			c-3.954,0-7.905,3.22-8.638,7.319l-7.907,45.385c-0.73,3.953,2.049,7.321,6.003,7.321H407.6c4.099,0,7.905-3.368,8.636-7.321
			L424.141,346.286z"/>
		<path fill="#211915" d="M471.284,418.315c-14.493,0-24.302-11.857-21.813-26.352l12.882-72.471h19.326l-12.737,72.178
			c-0.73,3.953,2.05,7.321,6.001,7.321h29.869l2.488,19.323H471.284z"/>
	</g>
</g>
</svg>
