<?xml version="1.0" encoding="utf-8"?>
<!-- Generator: Adobe Illustrator 16.0.0, SVG Export Plug-In . SVG Version: 6.00 Build 0)  -->
<!DOCTYPE svg PUBLIC "-//W3C//DTD SVG 1.1//EN" "http://www.w3.org/Graphics/SVG/1.1/DTD/svg11.dtd">
<svg version="1.1" id="Capa_1" xmlns="http://www.w3.org/2000/svg" xmlns:xlink="http://www.w3.org/1999/xlink" x="0px" y="0px"
	 width="507.912px" height="484.941px" viewBox="0 0 507.912 484.941" enable-background="new 0 0 507.912 484.941"
	 xml:space="preserve">
<g>
	<g>
		<defs>
			<circle id="SVGID_1_" cx="256.353" cy="246.037" r="194.396"/>
		</defs>
		<clipPath id="SVGID_2_">
			<use xlink:href="#SVGID_1_"  overflow="visible"/>
		</clipPath>
		<circle clip-path="url(#SVGID_2_)" fill="#9A999E" cx="256.353" cy="246.037" r="194.396"/>
		<circle clip-path="url(#SVGID_2_)" fill="#211915" cx="241.714" cy="237.736" r="194.396"/>
		<g clip-path="url(#SVGID_2_)">
			<path fill="none" d="M255.945,219.367v59.515h14.695c26.674,0,40.012-12.224,40.012-36.674c0-6.845-1.045-12.729-3.137-17.659
				c-6.256-3.453-14.396-5.182-24.422-5.182H255.945z"/>
			<path fill="#AEADB3" d="M315.482,155.543c22.582,0,42.025,7.579,58.332,22.724c-1.346-1.773-2.748-3.523-4.219-5.244
				c-17.863-20.875-40.051-31.316-66.564-31.316H149.186v341.271h12.451V155.543H315.482z"/>
			<path fill="#FFFFFF" d="M243.492,441.541v-86.45h48.109c30.322,0,55.012-10.718,74.063-32.149
				c19.053-21.434,28.936-46.559,29.648-75.375c0.658-26.442-6.514-49.539-21.498-69.298c-16.307-15.145-35.75-22.724-58.332-22.724
				H161.637v327.435h34.703C227.773,482.978,243.492,469.166,243.492,441.541z M243.492,205.533h27.148
				c19.205,0,31.498,6.34,36.875,19.016c10.393,5.736,15.59,16.234,15.59,31.494c0,24.451-13.338,36.675-40.012,36.675h-27.148
				v-13.835h-12.453V205.533z"/>
			<path fill="#AEADB3" d="M316.289,230.842l-5.943-6.344l-8.051-8.15l-58.803,62.534l12.453,13.835h27.148
				c26.674,0,39.633-10.749,41.209-35.151C324.875,248.686,321.598,238.215,316.289,230.842z M270.641,278.882h-2.023l41.404-45.21
				c0.414,2.661,0.631,5.498,0.631,8.536C310.652,266.658,297.314,278.882,270.641,278.882z"/>
			<path fill="#211915" d="M255.945,278.882c36.234,0.051,41.369-6.548,41.369-6.548c10.949-6.323,19.076-28.229,10.201-47.785
				c-5.377-12.676-17.67-19.016-36.875-19.016h-27.148v73.349H255.945C255.945,278.882,230.318,278.846,255.945,278.882z"/>
		</g>
	</g>
</g>
</svg>
