<?xml version="1.0" encoding="utf-8"?>
<!-- Generator: Adobe Illustrator 16.0.0, SVG Export Plug-In . SVG Version: 6.00 Build 0)  -->
<!DOCTYPE svg PUBLIC "-//W3C//DTD SVG 1.1//EN" "http://www.w3.org/Graphics/SVG/1.1/DTD/svg11.dtd">
<svg version="1.1" id="Capa_1" xmlns="http://www.w3.org/2000/svg" xmlns:xlink="http://www.w3.org/1999/xlink" x="0px" y="0px"
	 width="487.396px" height="426.238px" viewBox="0 0 487.396 426.238" enable-background="new 0 0 487.396 426.238"
	 xml:space="preserve">
<g>
	<path fill="none" d="M309.271,383.058c1.104,0.222,2.873,0.442,4.863,0.442c3.096,0.223,6.633,0,10.612-0.221
		c5.999-0.556,13.019-1.891,20.468-4.841h-50.379c0.804,0.454,1.628,0.895,2.494,1.308
		C301.089,381.516,304.406,382.398,309.271,383.058z"/>
	<path fill="none" d="M422.366,179.28v5.928C422.858,182.897,422.858,180.958,422.366,179.28z"/>
	<path fill="#CB6120" d="M347.342,56.488l-0.221-0.219c-1.539-2.201-3.521-3.301-6.16-3.521c-8.801-0.88-21.563,9.021-25.963,12.981
		v0.22c-0.221,0-8.361,6.821-22.002,20.463c-11.442,11.661-28.824,31.022-51.047,56.106c-0.881,1.1-7.921,9.682-7.921,9.682h40.044
		C294.755,115.895,343.82,78.05,347.342,56.488z"/>
	<path fill="#CB6120" d="M124.432,287.767c12.16-13.708,29.406-25.205,51.516-34.049c38.252-15.699,83.354-20.784,113.866-23.216
		c2.433-0.22,4.864-0.441,7.296-0.662c5.529-6.633,12.383-14.593,20.563-22.553c12.824-12.38,26.312-22.109,39.577-29.185
		c16.583-8.844,33.165-13.267,49.306-13.267c0.441,0,0.663,0,0.885,0c0.838,0,8.68,0.004,14.927,3.678V48.152h-72.894
		c0.719,0.514,1.404,1.09,2.049,1.735c0,0,1.539,1.541,2.201,3.3c6.6,16.282-31.904,57.867-54.348,99.012h11.882
		c2.201,0,3.741,1.54,3.741,3.74c0,1.98-1.54,3.74-3.741,3.74h-15.841c-25.523,50.605-13.422,53.027-13.422,53.027
		s14.522,2.199,47.745-52.586c0.659-1.32,1.98-1.98,3.3-1.98c1.981,0,3.081,1.98,2.201,3.741
		c-7.922,13.202-36.523,59.187-54.346,56.767c0,0-29.264-2.861-13.422-51.927c0.88-2.42,1.76-4.84,2.861-7.041h-42.466
		c-19.143,23.323-44.445,53.687-69.968,76.569c-14.963,13.642-28.384,23.103-40.266,28.384c-7.92,3.739-15.402,5.5-22.002,5.5
		c-4.841,0-9.461-0.879-13.642-2.86c-6.126-2.62-11.134-6.047-15.18-10.083v121.249h46.95
		c-10.58-12.558-10.777-30.857-10.777-32.081C102.984,323.807,110.06,304.127,124.432,287.767z"/>
	<path fill="#CB6120" d="M403.019,172.353c-11.94,1.105-44.001,8.402-79.154,54.833c12.603-1.547,23.657-3.317,33.604-5.307
		c7.742-1.326,20.342-4.864,20.342-4.864c12.162-3.316,21.891-7.518,29.186-12.161c7.516-5.085,12.162-10.612,14.594-16.803
		c0.337-1.012,0.587-1.949,0.776-2.842v-5.928c-0.189-0.647-0.439-1.264-0.776-1.842
		C416.945,170.363,403.019,172.353,403.019,172.353z"/>
	<path fill="#CB6120" d="M236.229,53.848c9.021,13.641,2.201,35.204-7.48,52.806c-9.242,16.942-21.123,30.144-21.123,30.144
		c-42.685,51.706-71.288,37.624-71.288,37.624c-25.963-11.662-2.86-49.726-2.86-49.726c15.401-27.063,37.844-37.625,37.844-37.625
		s23.764-14.082,37.186-3.74c0,0,2.641,1.76,3.301,5.281c0.659,2.42-0.221,6.38-3.301,9.682c0,0-2.201,3.08-5.941,0
		c-3.739-3.081-29.924-5.501-50.825,19.361c-38.065,45.545-11.44,52.366-11.44,52.366c24.422,8.141,62.266-37.184,62.266-37.184
		c10.121-12.762,18.703-24.863,23.544-34.324c16.501-31.684,6.38-42.025,6.38-42.025c-0.881-1.1-1.979-1.98-3.08-2.64
		c-24.863-16.502-77.449,29.923-77.449,29.923c-43.564,33.883-83.83,102.313-84.049,140.157
		c-0.441,24.862,11.439,33.662,16.941,36.524c15.402,7.04,38.283-2.862,68.209-29.704c23.321-21.122,46.644-48.626,65.126-71.068
		h-11.22c-1.981,0-3.742-1.76-3.742-3.74c0-2.2,1.761-3.74,3.742-3.74h17.381c0.439-0.661,0.879-1.101,1.32-1.761
		c1.76-1.98,3.52-3.96,5.061-5.94c24.201-29.483,44.444-50.826,57.206-63.588c13.202-13.201,21.343-20.022,22.223-20.682
		c0.44-0.661,4.62-4.181,10.121-7.701c2.642-1.785,5.188-3.24,7.638-4.376h-97.227C232.871,49.743,234.738,51.639,236.229,53.848z"
		/>
	<path fill="#CB6120" d="M180.213,48.152H66.812v117.643c11.952-26.045,27.062-46.159,27.062-46.159
		C121.549,81.428,153.328,58.235,180.213,48.152z"/>
	<path fill="#CB6120" d="M401.249,309.213c20.562-59.917-4.645-76.721-18.794-81.364c-3.096-0.885-8.623-1.99-8.623-1.99
		c-15.035,3.98-33.165,7.075-55.938,9.507c-7.739,10.833-15.478,23.657-22.994,38.471c0,0-42.364,80.695-0.063,104.602h50.379
		C364.4,370.842,386.438,352.531,401.249,309.213z"/>
	<path fill="#CB6120" d="M389.309,221.215c1.105,0.442,1.99,0.664,2.875,1.106c9.287,3.538,16.582,9.065,21.666,16.803
		c10.613,15.698,11.275,39.355,1.769,70.31c-6.632,22.331-16.802,40.46-29.627,53.728c-5.753,5.999-12.12,11.113-19.021,15.276
		h55.396V201.122C415.582,209.206,404.683,215.882,389.309,221.215z"/>
	<path fill="#CB6120" d="M257.754,356.308c-3.979-9.728-5.307-21.667-3.537-35.154c1.326-10.392,4.422-21.89,9.286-34.27
		c8.181-20.342,18.13-35.819,18.794-36.925c0.441-0.443,3.316-5.085,8.401-11.939c-1.99,0.221-16.14,1.327-16.14,1.327
		c-52.401,5.527-79.597,14.593-95.957,21.227c-10.613,4.42-19.9,9.285-28.302,14.813c-15.034,11.276-31.618,30.07-33.608,59.698
		c-2.21,32.722,25.87,40.239,30.514,38.468c3.316-1.323,5.307,0.442,5.307,0.442c1.295,1.097,2.163,2.736,2.649,4.444h120.808
		C267.635,372.714,261.53,365.347,257.754,356.308z"/>
	<path fill="#FFFFFF" d="M427.559,173.237c-1.386-2.025-3.208-3.558-5.192-4.725v10.768c0.492,1.678,0.492,3.617,0,5.928v15.913
		c2.778-3.31,4.886-6.85,6.298-10.64C431.099,183.628,430.877,177.66,427.559,173.237z"/>
</g>
</svg>
